<svg width="55" height="55" viewBox="0 0 55 55" fill="none" xmlns="http://www.w3.org/2000/svg">
<path d="M50.5484 18.5137H4.45157V49.1488H50.5484V18.5137Z" fill="#FACBB6"/>
<path d="M42.975 29.4966C44.6339 29.4966 44.6367 26.9185 42.975 26.9185C41.3161 26.9185 41.3134 29.4966 42.975 29.4966Z" stroke="white" stroke-width="2" stroke-miterlimit="10"/>
<path d="M9.25598 45.6021C10.9149 45.6021 10.9176 43.0239 9.25598 43.0239C7.59708 43.0239 7.59433 45.6021 9.25598 45.6021Z" stroke="white" stroke-width="2" stroke-miterlimit="10"/>
<path d="M10.5005 24.9023C11.1226 24.9023 11.1236 23.9355 10.5005 23.9355C9.8784 23.9355 9.87737 24.9023 10.5005 24.9023Z" fill="white"/>
<path d="M20.8646 23.3486C21.2793 23.3486 21.28 22.7041 20.8646 22.7041C20.4498 22.7041 20.4491 23.3486 20.8646 23.3486Z" fill="white"/>
<path d="M41.1286 19.4814C41.5433 19.4814 41.544 18.8369 41.1286 18.8369C40.7139 18.8369 40.7132 19.4814 41.1286 19.4814Z" fill="white"/>
<path d="M9.26299 37.2705C9.67771 37.2705 9.6784 36.626 9.26299 36.626C8.84826 36.626 8.84758 37.2705 9.26299 37.2705Z" fill="white"/>
<path d="M45.1505 39.1333C45.7726 39.1333 45.7736 38.1665 45.1505 38.1665C44.5284 38.1665 44.5274 39.1333 45.1505 39.1333Z" fill="white"/>
<path d="M48.0546 54.6674H6.99585C6.97864 54.7533 6.96146 54.8393 6.94429 54.9252L6.94321 54.9316L6.91528 54.9295C6.93246 54.8414 6.95074 54.7544 6.96792 54.6674C7.69624 51.0451 8.39126 47.9976 8.97886 45.5935C9.2055 44.6664 9.41461 43.836 9.60618 43.1023C10.2625 40.579 10.6772 39.2384 10.6772 39.2384C11.1885 36.1672 13.5561 35.1757 13.5561 35.1757L13.7043 35.1295L21.6718 32.6491C22.06 32.5287 22.4187 32.3281 22.7246 32.0604C22.7302 32.0561 22.7356 32.0514 22.7407 32.0465C23.1943 31.6461 23.5128 31.1151 23.6527 30.5265V30.5232C23.6613 30.4867 23.6699 30.4502 23.6763 30.4126C23.6827 30.3836 23.6881 30.3535 23.6924 30.3234C23.7 30.2794 23.7064 30.2364 23.7118 30.1913C23.715 30.1569 23.7182 30.1236 23.7214 30.0893C23.7247 30.0431 23.7279 29.9969 23.729 29.9507C23.73 29.9174 23.7311 29.8841 23.7311 29.8508V25.9277H31.0648V29.8508C31.065 30.272 31.1558 30.6882 31.3312 31.0711C31.5065 31.4541 31.7623 31.7948 32.081 32.0701C32.1197 32.1034 32.1594 32.1356 32.2002 32.1668C32.477 32.382 32.7903 32.5454 33.1251 32.6491L41.2409 35.1757C43.5214 36.2316 44.3346 39.2384 44.3346 39.2384H44.3464C44.3464 39.2384 46.077 44.8318 48.0546 54.6674Z" fill="#F8B997"/>
<path d="M26.5137 30.1005C29.1292 29.6446 31.065 26.6144 31.065 26.6144C31.065 26.6144 28.4712 26.4009 26.849 25.9282H23.7316V29.8507C23.7313 30.0771 23.7048 30.3027 23.6526 30.523L23.6525 30.5271C23.6525 30.5271 23.8982 30.5564 26.5137 30.1005Z" fill="#DD9176"/>
<path d="M34.8598 19.0245C34.7087 18.9595 34.5454 18.928 34.381 18.9322C34.6578 14.9738 32.9758 11.5954 30.2137 10.9961C27.4439 10.3951 24.504 12.7873 23.1202 16.5222C22.9477 16.4171 22.7506 16.3589 22.5487 16.3533C21.6565 16.3378 20.9145 17.3994 20.8915 18.7244C20.8692 20.0031 21.5251 21.0568 22.3728 21.1431C22.5323 24.3276 23.1232 26.8777 25.1334 27.7209C25.6738 27.9475 26.246 27.7246 26.6939 27.8218C27.1371 27.9179 27.5901 28.4151 27.9901 28.362C30.412 28.0407 31.7522 26.324 33.1677 23.4926C33.9524 23.6532 34.9033 22.9786 35.3853 21.8692C35.9135 20.6537 35.6782 19.3801 34.8598 19.0245Z" fill="#F8B997"/>
<path d="M25.712 18.8658C26.2267 18.8658 26.2275 18.0659 25.712 18.0659C25.1973 18.0659 25.1965 18.8658 25.712 18.8658Z" fill="#38101B"/>
<path d="M31.0273 20.0191C31.5419 20.0191 31.5428 19.2192 31.0273 19.2192C30.5126 19.2192 30.5118 20.0191 31.0273 20.0191Z" fill="#38101B"/>
<path d="M27.6081 17.1616C27.3092 17.1365 27.0141 17.0779 26.7284 16.9868C26.5879 16.9443 26.4502 16.8959 26.3141 16.8439L26.116 16.7653C26.056 16.7408 25.9953 16.7187 25.9337 16.6991C25.6849 16.6173 25.428 16.5624 25.1675 16.5354C25.1007 16.5278 25.0333 16.5232 24.9647 16.5186C24.8925 16.5152 24.8173 16.5107 24.7434 16.5044C24.5919 16.4922 24.4415 16.4688 24.2934 16.4345C24.4266 16.3612 24.565 16.2978 24.7074 16.2448C24.7776 16.2188 24.8463 16.1937 24.9182 16.1712C24.9941 16.1478 25.0714 16.1296 25.1497 16.1165C25.4685 16.0642 25.7953 16.0905 26.1017 16.1932C26.1777 16.2203 26.2533 16.2488 26.3262 16.2834C26.4009 16.3198 26.459 16.3496 26.525 16.3855C26.653 16.455 26.7794 16.5282 26.903 16.6072C27.1581 16.7649 27.3946 16.9509 27.6081 17.1616Z" fill="#38101B"/>
<path d="M30.014 17.7201C30.3068 17.6552 30.606 17.6236 30.9059 17.6257C31.0526 17.6245 31.1985 17.6298 31.3439 17.639C31.419 17.6437 31.484 17.6493 31.5666 17.6582C31.6467 17.6677 31.7259 17.6838 31.8047 17.7013C32.1187 17.7773 32.4094 17.9288 32.6516 18.1427C32.711 18.1954 32.7667 18.252 32.8186 18.3121C32.8675 18.3694 32.9123 18.4272 32.9579 18.4866C33.0504 18.6072 33.1338 18.7345 33.2076 18.8674C33.0639 18.8177 32.9241 18.7575 32.7893 18.6873C32.7234 18.6533 32.6574 18.6171 32.5944 18.5816C32.5339 18.549 32.4743 18.517 32.4138 18.488C32.1788 18.3723 31.9321 18.2821 31.6779 18.219C31.6153 18.203 31.5521 18.1894 31.4883 18.1782L31.2787 18.1393C31.1358 18.111 30.9934 18.0787 30.8519 18.04C30.5614 17.9651 30.2804 17.8578 30.014 17.7201V17.7201Z" fill="#38101B"/>
<path d="M35.0221 21.4756C35.2798 20.7487 35.2522 20.0757 34.9604 19.9722C34.6687 19.8688 34.2232 20.3741 33.9655 21.1009C33.7078 21.8278 33.7354 22.5009 34.0271 22.6043C34.3189 22.7078 34.7643 22.2024 35.0221 21.4756Z" fill="#DD9176"/>
<path d="M22.6004 18.6345C22.667 17.8662 22.4711 17.2217 22.1627 17.195C21.8543 17.1682 21.5502 17.7693 21.4836 18.5376C21.4169 19.3059 21.6128 19.9504 21.9212 19.9772C22.2296 20.0039 22.5337 19.4028 22.6004 18.6345Z" fill="#DD9176"/>
<path d="M23.1202 16.5225C23.0767 16.9147 23.0172 17.301 22.9531 17.6861L22.7546 18.8377C22.7172 19.0286 22.6861 19.2204 22.652 19.4118L22.5518 19.986C22.4883 20.3696 22.4252 20.7522 22.3728 21.1433C22.3216 20.7515 22.3123 20.3554 22.3452 19.9616C22.3731 19.569 22.4222 19.1782 22.4922 18.7909C22.5631 18.4044 22.6467 18.0207 22.7506 17.6421C22.8502 17.2615 22.9736 16.8875 23.1202 16.5225V16.5225Z" fill="#DD9176"/>
<path d="M34.4065 18.9712C34.3886 19.3642 34.3459 19.7557 34.2788 20.1433C34.2165 20.531 34.1336 20.9148 34.0378 21.2959C33.9411 21.6774 33.8238 22.0534 33.6865 22.4223C33.5532 22.7943 33.3806 23.151 33.1716 23.4863C33.286 23.1086 33.3871 22.7343 33.4883 22.3588L33.6351 21.7947C33.6834 21.6065 33.7346 21.419 33.7797 21.2298L34.0763 20.0994C34.1776 19.7225 34.2835 19.3462 34.4065 18.9712Z" fill="#DD9176"/>
<path d="M30.3629 19.4748C30.431 19.3422 30.5391 19.2343 30.6719 19.1663C30.8143 19.0898 30.9797 19.0677 31.1373 19.1039C31.2925 19.1432 31.4297 19.234 31.5266 19.3615C31.5696 19.4215 31.6069 19.4855 31.6379 19.5525C31.6619 19.621 31.6799 19.6915 31.6917 19.7632C31.6353 19.7218 31.5817 19.6768 31.5312 19.6284C31.4771 19.589 31.4295 19.5453 31.3791 19.5106C31.2885 19.4428 31.1858 19.3929 31.0766 19.3634C30.967 19.3387 30.8533 19.3384 30.7437 19.3625C30.6141 19.3902 30.4868 19.4278 30.3629 19.4748V19.4748Z" fill="#38101B"/>
<path d="M25.0476 18.3215C25.1157 18.1889 25.2238 18.081 25.3566 18.013C25.4991 17.9365 25.6645 17.9143 25.822 17.9506C25.9772 17.9899 26.1145 18.0807 26.2113 18.2082C26.2543 18.2682 26.2916 18.3322 26.3227 18.3992C26.3466 18.4677 26.3646 18.5382 26.3764 18.6098C26.32 18.5685 26.2664 18.5235 26.2159 18.475C26.1619 18.4356 26.1142 18.392 26.0639 18.3572C25.9732 18.2895 25.8705 18.2396 25.7613 18.2101C25.6517 18.1854 25.5381 18.185 25.4284 18.2092C25.2988 18.2369 25.1715 18.2744 25.0476 18.3215Z" fill="#38101B"/>
<path d="M36.722 17.1263C36.7627 16.94 36.7615 16.747 36.7188 16.5612C36.676 16.3753 36.5926 16.2013 36.4747 16.0515C36.4755 16.0361 36.4755 16.0212 36.4762 16.0059C36.7047 15.8901 36.8937 15.7091 37.0193 15.4858C37.1449 15.2625 37.2014 15.007 37.1818 14.7516C37.1621 14.4962 37.0671 14.2523 36.9088 14.0509C36.7505 13.8495 36.5361 13.6995 36.2925 13.62C36.4173 13.4226 36.4861 13.195 36.4917 12.9615C36.4973 12.728 36.4395 12.4973 36.3244 12.2941C36.2093 12.0909 36.0412 11.9226 35.8381 11.8074C35.635 11.6921 35.4044 11.6341 35.1709 11.6395C35.1737 11.6277 35.1777 11.6166 35.1803 11.6047C35.2375 11.3416 35.2113 11.0672 35.1053 10.8197C34.9993 10.5722 34.8187 10.3639 34.5887 10.2239C34.3587 10.0839 34.0908 10.0191 33.8223 10.0385C33.5537 10.0579 33.2979 10.1606 33.0905 10.3323C33.0032 10.1522 32.8754 9.99496 32.717 9.87278C32.5586 9.7506 32.374 9.66686 32.1777 9.62816C31.9814 9.58947 31.7789 9.59687 31.5859 9.64978C31.393 9.7027 31.215 9.79968 31.066 9.93309C30.987 9.91315 30.9084 9.89444 30.8304 9.87695C30.7875 9.60626 30.6598 9.35617 30.4656 9.16275C30.2715 8.96934 30.0209 8.84259 29.75 8.80078C29.4792 8.75898 29.2021 8.80428 28.9586 8.93015C28.7152 9.05603 28.518 9.25597 28.3955 9.50114C28.2328 9.33198 28.0271 9.21024 27.8005 9.14893C27.5739 9.08763 27.3349 9.08906 27.109 9.15309C26.8832 9.21711 26.679 9.34131 26.5183 9.51242C26.3576 9.68352 26.2464 9.89509 26.1966 10.1245C26.1894 10.1578 26.1848 10.191 26.1802 10.2242C25.9757 10.0803 25.7339 9.99871 25.4841 9.98936C25.2343 9.98001 24.9871 10.0433 24.7724 10.1715C24.5578 10.2997 24.3849 10.4873 24.2747 10.7118C24.1644 10.9362 24.1216 11.1877 24.1514 11.436C23.9604 11.4219 23.7686 11.4506 23.59 11.5199C23.4115 11.5892 23.2506 11.6974 23.119 11.8366C22.9875 11.9758 22.8885 12.1425 22.8294 12.3247C22.7703 12.5069 22.7525 12.7 22.7773 12.8899C22.5143 13.0792 22.3322 13.3604 22.2671 13.6778C22.202 13.9952 22.2588 14.3255 22.4261 14.603C22.4226 14.6299 22.4185 14.6575 22.4152 14.6841C22.2434 14.8003 22.102 14.956 22.0031 15.1383C21.9041 15.3205 21.8504 15.5239 21.8466 15.7312C21.8427 15.9385 21.8888 16.1438 21.9809 16.3295C22.073 16.5153 22.2085 16.6763 22.3758 16.7987C22.4915 17.9353 22.8076 18.5027 22.8076 18.5027C22.8076 18.5027 22.9222 17.8866 23.1585 17.0492C23.3914 17.0464 23.6192 16.9808 23.8179 16.8593C24.0166 16.7378 24.1788 16.5649 24.2874 16.3588C24.396 16.1528 24.4469 15.9212 24.4348 15.6886C24.4227 15.456 24.348 15.231 24.2187 15.0374C24.4299 14.9071 24.5989 14.7186 24.7055 14.4946C24.8121 14.2705 24.8517 14.0204 24.8195 13.7744C24.9023 13.7151 24.9779 13.6462 25.0446 13.5691C25.159 13.6978 25.2979 13.8023 25.4533 13.8765C25.6086 13.9507 25.7773 13.9931 25.9492 14.0012C26.1212 14.0093 26.2931 13.9829 26.4547 13.9236C26.6163 13.8643 26.7645 13.7733 26.8904 13.6559C27.1056 13.8209 27.3673 13.9138 27.6383 13.9214C27.9094 13.929 28.1759 13.8509 28.4 13.6983C28.4277 13.8831 28.4953 14.0598 28.598 14.216C28.7006 14.3722 28.836 14.5043 28.9946 14.6031C29.1533 14.7019 29.3315 14.7651 29.517 14.7884C29.7025 14.8116 29.8908 14.7944 30.069 14.7378C30.0246 15.0083 30.0673 15.2859 30.1909 15.5306C30.3146 15.7753 30.5128 15.9744 30.757 16.0991C31.0011 16.2237 31.2786 16.2676 31.5493 16.2243C31.82 16.181 32.07 16.0528 32.2631 15.8582C32.3017 16.1182 32.4186 16.3603 32.5982 16.5522C32.7777 16.7442 33.0115 16.8769 33.2683 16.9328C33.2102 17.2009 33.2387 17.4806 33.3497 17.7314C33.4608 17.9823 33.6486 18.1914 33.8861 18.3287C33.7576 18.5366 33.6908 18.7768 33.6937 19.0213C33.6965 19.2657 33.7687 19.5043 33.902 19.7092C33.8678 20.4934 33.8286 21.1167 33.8286 21.1167C33.8286 21.1167 34.1706 20.7591 34.5981 20.2397C34.6361 20.2517 34.6747 20.2626 34.7144 20.2712C34.9776 20.3285 35.252 20.3022 35.4996 20.1961C35.7471 20.0901 35.9554 19.9094 36.0954 19.6793C36.2354 19.4493 36.3001 19.1812 36.2806 18.9126C36.261 18.644 36.1582 18.3882 35.9863 18.1808C36.0167 18.1168 36.045 18.0534 36.071 17.9906C36.2356 17.9022 36.379 17.7791 36.4914 17.6299C36.6038 17.4807 36.6825 17.3089 36.722 17.1263Z" fill="#350313"/>
<path d="M25.1619 22.5913C25.1619 22.5913 28.9937 23.1572 29.6665 23.6198C29.6665 23.6198 27.7344 24.383 27.359 24.2234C26.9836 24.0638 25.1619 22.5913 25.1619 22.5913Z" fill="#FDFFFF"/>
<path d="M25.1618 22.5913C25.1618 22.5913 25.8835 24.423 27.2733 24.586C28.6631 24.749 29.6665 23.6198 29.6665 23.6198C28.8877 23.8158 28.0737 23.8247 27.2908 23.646C26.5079 23.4672 25.7784 23.1058 25.1618 22.5913V22.5913Z" fill="#D7645D"/>
<path d="M25.1619 22.5914C25.1619 22.5914 26.8216 22.196 29.6665 23.62C29.6665 23.62 27.6645 23.1983 25.1619 22.5914Z" fill="#A75844"/>
<path d="M27.8644 21.8679C27.8564 21.9831 27.8253 22.0955 27.7729 22.1984C27.7224 22.3028 27.6577 22.3998 27.5807 22.4865C27.4209 22.6631 27.2241 22.8021 27.0042 22.8936C26.7841 22.9852 26.5488 23.0348 26.3104 23.0399C26.252 23.0416 26.1935 23.0409 26.1348 23.0402C26.0955 23.0425 26.0612 23.0419 26.0245 23.0424C25.9536 23.0385 25.8774 23.0482 25.8041 23.0464C25.5047 23.0613 25.1853 23.0837 24.8425 23.1113C24.6694 23.121 24.493 23.1371 24.3078 23.1496C24.2597 23.1509 24.2147 23.1562 24.1673 23.1597C24.1179 23.1617 24.0729 23.1678 24.0236 23.1714C23.973 23.1754 23.929 23.1815 23.876 23.1881C23.8524 23.1912 23.828 23.1957 23.8016 23.2016C23.7756 23.2083 23.7504 23.218 23.7264 23.2303C23.7213 23.2006 23.7217 23.1703 23.7276 23.1408C23.7335 23.1126 23.7409 23.0823 23.7501 23.0518C23.7703 22.9972 23.7949 22.9443 23.8238 22.8937C23.8793 22.7958 23.945 22.7039 24.0198 22.6197C24.1642 22.4571 24.3314 22.3164 24.5163 22.2019C24.8903 21.9691 25.3185 21.8377 25.7587 21.8203C25.8734 21.8171 25.9882 21.8218 26.1022 21.8344C26.1593 21.842 26.2188 21.8485 26.2734 21.8578C26.3085 21.8643 26.3437 21.8707 26.3791 21.8795C26.5207 21.911 26.6638 21.935 26.8078 21.9512C27.1621 21.993 27.5211 21.9647 27.8644 21.8679V21.8679Z" fill="#350313"/>
<path d="M27.7476 21.8428C28.0199 22.0732 28.3349 22.2477 28.6746 22.3565C28.8124 22.4014 28.9526 22.439 29.0944 22.4689C29.1303 22.4755 29.165 22.4843 29.1997 22.493C29.2532 22.5071 29.31 22.5258 29.3651 22.5426C29.4742 22.5784 29.5806 22.6217 29.6836 22.6722C30.0771 22.8704 30.4122 23.1675 30.6562 23.5343C30.777 23.7152 30.8708 23.9126 30.9349 24.1204C30.968 24.228 30.9897 24.3388 30.9996 24.451C31.005 24.509 31.0055 24.5673 31.0012 24.6254C30.9969 24.657 30.9911 24.6876 30.9848 24.7157C30.9779 24.745 30.9657 24.7727 30.9488 24.7976C30.9321 24.7765 30.9131 24.7573 30.8922 24.7403C30.8707 24.724 30.8503 24.7099 30.8301 24.6972C30.7847 24.6693 30.7471 24.6455 30.7027 24.6208C30.6593 24.5972 30.6209 24.5729 30.5768 24.5507C30.5351 24.5279 30.4964 24.5044 30.4532 24.4833C30.2898 24.3951 30.1359 24.3074 29.9824 24.2268C29.6818 24.0596 29.4004 23.9069 29.1341 23.7692C29.0667 23.7404 29.0014 23.7 28.9352 23.6742C28.902 23.6585 28.8706 23.6448 28.8358 23.6265C28.7821 23.6028 28.7285 23.5792 28.6761 23.5535C28.4613 23.45 28.2677 23.3073 28.1053 23.1327C27.9431 22.9583 27.8216 22.7503 27.7493 22.5234C27.7152 22.4125 27.6966 22.2975 27.6938 22.1815C27.6888 22.0662 27.7071 21.9509 27.7476 21.8428Z" fill="#350313"/>
<path d="M29.1421 21.9765C28.709 22.2593 28.1907 22.3823 27.6767 22.3242C27.6918 22.3302 27.7071 22.3349 27.7225 22.3396L27.6287 22.3193C27.6446 22.3214 27.6605 22.3234 27.6767 22.3242C27.1926 22.1675 26.7772 21.8491 26.5001 21.4224L29.1421 21.9765Z" fill="#DD9176"/>
<path d="M48.0847 54.6676H6.99585C7.72417 51.0464 8.41919 47.9999 9.00571 45.5958C9.23131 44.6709 9.44185 43.8416 9.63092 43.1111C10.2883 40.5803 10.7051 39.2343 10.7051 39.2343C11.2175 36.1631 13.5851 35.1705 13.5851 35.1705L13.7043 35.1297L22.7267 32.0435L22.7407 32.0467L27.45 33.2906L32.081 32.0703L32.182 32.0435L41.2688 35.1705C43.5504 36.2265 44.3625 39.2343 44.3625 39.2343H44.3744C44.3744 39.2343 46.106 44.8288 48.0847 54.6676Z" fill="#577FFF"/>
<path d="M35.5035 54.6676H20.589L22.7246 32.0606L22.7267 32.0435L22.7407 32.0467L27.45 33.2906L32.081 32.0703L32.182 32.0435L32.2002 32.167L35.5035 54.6676Z" fill="#E8E9EA"/>
<path d="M12.743 54.6542L13.2918 49.0825L13.2756 54.6806L12.743 54.6542Z" fill="#2E72A0"/>
<path d="M41.3558 49.0825L41.9066 54.6542L41.3701 54.6806L41.3558 49.0825Z" fill="#2E72A0"/>
<path d="M34.8929 19.0792C34.7418 19.0142 34.5785 18.9827 34.4141 18.9869C34.6909 15.0285 33.0089 11.65 30.2468 11.0507C27.477 10.4498 24.5371 12.842 23.1533 16.5769C22.9807 16.4718 22.7837 16.4136 22.5818 16.408C21.6896 16.3925 20.9476 17.454 20.9246 18.7791C20.9023 20.0577 21.5582 21.1115 22.4059 21.1978C22.5653 24.3823 23.1563 26.9324 25.1665 27.7756C25.7069 28.0022 26.2791 27.7793 26.727 27.8765C27.1702 27.9726 27.6232 28.4698 28.0232 28.4167C30.4451 28.0954 31.7853 26.3787 33.2008 23.5473C33.9855 23.7079 34.9364 23.0332 35.4184 21.9239C35.9466 20.7084 35.7113 19.4348 34.8929 19.0792Z" fill="#F8B997"/>
<path d="M25.7451 18.92C26.2597 18.92 26.2606 18.1201 25.7451 18.1201C25.2304 18.1201 25.2296 18.92 25.7451 18.92Z" fill="#38101B"/>
<path d="M31.0604 20.0733C31.575 20.0733 31.5759 19.2734 31.0604 19.2734C30.5457 19.2734 30.5448 20.0733 31.0604 20.0733Z" fill="#38101B"/>
<path d="M27.6412 17.2163C27.3423 17.1912 27.0472 17.1326 26.7615 17.0415C26.621 16.999 26.4833 16.9506 26.3472 16.8986L26.149 16.82C26.0891 16.7955 26.0283 16.7734 25.9667 16.7537C25.7179 16.6719 25.4611 16.6171 25.2006 16.5901C25.1338 16.5825 25.0664 16.5779 24.9978 16.5733C24.9256 16.5699 24.8504 16.5654 24.7765 16.5591C24.625 16.5469 24.4746 16.5235 24.3265 16.4892C24.4597 16.4159 24.5981 16.3525 24.7405 16.2995C24.8107 16.2735 24.8794 16.2484 24.9513 16.2259C25.0272 16.2025 25.1045 16.1843 25.1828 16.1712C25.5016 16.1189 25.8284 16.1452 26.1348 16.2478C26.2108 16.275 26.2864 16.3035 26.3593 16.3381C26.434 16.3745 26.492 16.4043 26.5581 16.4402C26.6861 16.5097 26.8125 16.5828 26.9361 16.6619C27.1912 16.8196 27.4277 17.0056 27.6412 17.2163V17.2163Z" fill="#38101B"/>
<path d="M30.047 17.7743C30.3398 17.7094 30.639 17.6778 30.9389 17.6799C31.0857 17.6787 31.2316 17.684 31.377 17.6932C31.452 17.6979 31.517 17.7035 31.5997 17.7124C31.6798 17.7219 31.759 17.738 31.8378 17.7555C32.1518 17.8315 32.4425 17.983 32.6847 18.1969C32.744 18.2496 32.7998 18.3062 32.8517 18.3663C32.9006 18.4236 32.9454 18.4814 32.991 18.5408C33.0834 18.6614 33.1669 18.7887 33.2407 18.9216C33.097 18.8719 32.9572 18.8117 32.8224 18.7415C32.7565 18.7075 32.6904 18.6713 32.6275 18.6358C32.567 18.6032 32.5074 18.5712 32.4469 18.5422C32.2119 18.4265 31.9652 18.3363 31.711 18.2732C31.6484 18.2572 31.5852 18.2436 31.5214 18.2324L31.3118 18.1935C31.1689 18.1652 31.0265 18.1329 30.8849 18.0942C30.5945 18.0193 30.3134 17.912 30.047 17.7743Z" fill="#38101B"/>
<path d="M35.0551 21.5298C35.3129 20.8029 35.2853 20.1299 34.9935 20.0264C34.7018 19.923 34.2563 20.4283 33.9986 21.1551C33.7409 21.882 33.7685 22.5551 34.0602 22.6585C34.352 22.762 34.7974 22.2566 35.0551 21.5298Z" fill="#DD9176"/>
<path d="M22.6334 18.6892C22.7001 17.9209 22.5042 17.2764 22.1958 17.2496C21.8874 17.2229 21.5833 17.824 21.5166 18.5923C21.45 19.3606 21.6459 20.0051 21.9543 20.0319C22.2627 20.0586 22.5668 19.4575 22.6334 18.6892Z" fill="#DD9176"/>
<path d="M23.1533 16.5767C23.1098 16.9689 23.0502 17.3553 22.9862 17.7403L22.7877 18.8919C22.7503 19.0828 22.7192 19.2746 22.6851 19.466L22.5849 20.0402C22.5214 20.4238 22.4583 20.8064 22.4059 21.1975C22.3547 20.8057 22.3454 20.4096 22.3783 20.0158C22.4062 19.6232 22.4553 19.2324 22.5253 18.8451C22.5961 18.4586 22.6798 18.0749 22.7837 17.6963C22.8833 17.3157 23.0067 16.9417 23.1533 16.5767V16.5767Z" fill="#DD9176"/>
<path d="M34.4395 19.0254C34.4217 19.4184 34.379 19.8099 34.3119 20.1975C34.2495 20.5852 34.1666 20.969 34.0709 21.3501C33.9742 21.7316 33.8569 22.1076 33.7196 22.4765C33.5863 22.8485 33.4137 23.2052 33.2047 23.5405C33.3191 23.1628 33.4202 22.7885 33.5214 22.413L33.6682 21.8489C33.7165 21.6607 33.7676 21.4732 33.8128 21.284L34.1093 20.1536C34.2106 19.7767 34.3166 19.4004 34.4395 19.0254Z" fill="#DD9176"/>
<path d="M30.3959 19.5295C30.4641 19.3969 30.5722 19.289 30.705 19.221C30.8474 19.1445 31.0128 19.1223 31.1704 19.1586C31.3256 19.1979 31.4628 19.2887 31.5596 19.4162C31.6027 19.4762 31.64 19.5402 31.671 19.6072C31.695 19.6757 31.7129 19.7462 31.7248 19.8179C31.6684 19.7765 31.6148 19.7315 31.5643 19.683C31.5102 19.6436 31.4626 19.6 31.4122 19.5652C31.3216 19.4975 31.2189 19.4476 31.1096 19.4181C31.0001 19.3934 30.8864 19.393 30.7768 19.4172C30.6471 19.4449 30.5198 19.4825 30.3959 19.5295V19.5295Z" fill="#38101B"/>
<path d="M25.0807 18.3762C25.1488 18.2436 25.2569 18.1356 25.3897 18.0677C25.5321 17.9912 25.6975 17.969 25.8551 18.0053C26.0103 18.0446 26.1476 18.1354 26.2444 18.2629C26.2874 18.3229 26.3247 18.3868 26.3557 18.4539C26.3797 18.5224 26.3977 18.5929 26.4095 18.6645C26.3531 18.6232 26.2995 18.5782 26.249 18.5297C26.1949 18.4903 26.1473 18.4467 26.0969 18.4119C26.0063 18.3442 25.9036 18.2943 25.7943 18.2648C25.6848 18.24 25.5712 18.2397 25.4615 18.2639C25.3319 18.2916 25.2046 18.3291 25.0807 18.3762V18.3762Z" fill="#38101B"/>
<path d="M36.7551 17.1805C36.7957 16.9942 36.7946 16.8012 36.7518 16.6154C36.7091 16.4295 36.6257 16.2555 36.5077 16.1057C36.5086 16.0903 36.5085 16.0754 36.5093 16.0601C36.7378 15.9443 36.9268 15.7633 37.0524 15.54C37.178 15.3167 37.2345 15.0612 37.2149 14.8058C37.1952 14.5504 37.1002 14.3065 36.9419 14.1051C36.7836 13.9037 36.5691 13.7537 36.3256 13.6742C36.4503 13.4768 36.5192 13.2492 36.5248 13.0157C36.5304 12.7822 36.4726 12.5515 36.3575 12.3483C36.2424 12.1451 36.0743 11.9768 35.8712 11.8616C35.668 11.7463 35.4374 11.6883 35.2039 11.6937C35.2068 11.6819 35.2108 11.6708 35.2134 11.6589C35.2706 11.3958 35.2444 11.1214 35.1384 10.8739C35.0324 10.6264 34.8518 10.4181 34.6218 10.2781C34.3918 10.1381 34.1239 10.0733 33.8554 10.0927C33.5868 10.1121 33.331 10.2148 33.1236 10.3865C33.0363 10.2064 32.9085 10.0492 32.7501 9.92698C32.5917 9.8048 32.4071 9.72106 32.2108 9.68236C32.0145 9.64367 31.8119 9.65107 31.619 9.70398C31.4261 9.7569 31.2481 9.85388 31.099 9.98729C31.02 9.96736 30.9415 9.94864 30.8635 9.93115C30.8206 9.66046 30.6929 9.41037 30.4987 9.21695C30.3046 9.02354 30.054 8.89679 29.7831 8.85498C29.5123 8.81318 29.2351 8.85848 28.9917 8.98435C28.7483 9.11023 28.5511 9.31017 28.4286 9.55534C28.2659 9.38618 28.0602 9.26444 27.8336 9.20313C27.607 9.14183 27.368 9.14326 27.1421 9.20729C26.9163 9.27131 26.7121 9.39552 26.5514 9.56662C26.3907 9.73772 26.2795 9.94929 26.2297 10.1787C26.2225 10.212 26.2178 10.2452 26.2133 10.2784C26.0088 10.1345 25.767 10.0529 25.5172 10.0436C25.2673 10.0342 25.0201 10.0975 24.8055 10.2257C24.5909 10.3539 24.418 10.5415 24.3077 10.766C24.1975 10.9904 24.1547 11.2419 24.1845 11.4902C23.9934 11.4761 23.8017 11.5048 23.6231 11.5741C23.4446 11.6434 23.2837 11.7516 23.1521 11.8908C23.0205 12.03 22.9216 12.1967 22.8625 12.3789C22.8034 12.5611 22.7856 12.7542 22.8104 12.9441C22.5474 13.1334 22.3653 13.4146 22.3002 13.732C22.2351 14.0494 22.2919 14.3797 22.4592 14.6572C22.4557 14.6841 22.4516 14.7117 22.4483 14.7383C22.2765 14.8545 22.1351 15.0102 22.0362 15.1925C21.9372 15.3747 21.8835 15.5781 21.8797 15.7854C21.8758 15.9927 21.9219 16.198 22.014 16.3838C22.1061 16.5695 22.2416 16.7305 22.4089 16.8529C22.5246 17.9895 22.8407 18.5569 22.8407 18.5569C22.8407 18.5569 22.9552 17.9408 23.1916 17.1034C23.4245 17.1006 23.6523 17.035 23.851 16.9135C24.0497 16.792 24.2119 16.6191 24.3205 16.413C24.4291 16.207 24.48 15.9754 24.4679 15.7428C24.4558 15.5102 24.3811 15.2852 24.2518 15.0916C24.4629 14.9613 24.632 14.7728 24.7386 14.5488C24.8452 14.3247 24.8848 14.0746 24.8526 13.8286C24.9354 13.7693 25.011 13.7004 25.0777 13.6233C25.1921 13.752 25.331 13.8565 25.4864 13.9307C25.6417 14.0049 25.8103 14.0473 25.9823 14.0554C26.1543 14.0635 26.3262 14.0371 26.4878 13.9778C26.6494 13.9185 26.7976 13.8275 26.9235 13.7101C27.1387 13.8751 27.4004 13.968 27.6714 13.9756C27.9424 13.9832 28.209 13.9051 28.433 13.7525C28.4608 13.9374 28.5284 14.114 28.631 14.2702C28.7337 14.4264 28.869 14.5585 29.0277 14.6573C29.1864 14.7561 29.3646 14.8193 29.5501 14.8426C29.7356 14.8658 29.9239 14.8486 30.1021 14.792C30.0576 15.0625 30.1003 15.3401 30.224 15.5848C30.3477 15.8295 30.5459 16.0286 30.7901 16.1533C31.0342 16.2779 31.3117 16.3218 31.5824 16.2785C31.8531 16.2352 32.1031 16.107 32.2962 15.9124C32.3348 16.1724 32.4517 16.4145 32.6313 16.6064C32.8108 16.7984 33.0446 16.9311 33.3014 16.987C33.2433 17.2551 33.2718 17.5348 33.3828 17.7856C33.4938 18.0365 33.6816 18.2456 33.9192 18.3829C33.7907 18.5908 33.7239 18.831 33.7267 19.0755C33.7295 19.3199 33.8018 19.5585 33.935 19.7634C33.9008 20.5476 33.8617 21.1709 33.8617 21.1709C33.8617 21.1709 34.2037 20.8133 34.6312 20.2939C34.6692 20.3059 34.7078 20.3168 34.7475 20.3254C35.0106 20.3827 35.2851 20.3564 35.5327 20.2503C35.7802 20.1443 35.9885 19.9636 36.1285 19.7335C36.2684 19.5035 36.3332 19.2354 36.3136 18.9668C36.2941 18.6982 36.1912 18.4424 36.0194 18.2351C36.0498 18.171 36.0781 18.1076 36.1041 18.0448C36.2687 17.9564 36.4121 17.8333 36.5245 17.6841C36.6369 17.5349 36.7156 17.3631 36.7551 17.1805V17.1805Z" fill="#350313"/>
<path d="M25.1949 22.646C25.1949 22.646 29.0268 23.2119 29.6996 23.6745C29.6996 23.6745 27.7675 24.4377 27.3921 24.2781C27.0167 24.1185 25.1949 22.646 25.1949 22.646Z" fill="#FDFFFF"/>
<path d="M25.1949 22.646C25.1949 22.646 25.9165 24.4777 27.3064 24.6407C28.6962 24.8037 29.6996 23.6745 29.6996 23.6745C28.9208 23.8705 28.1067 23.8794 27.3239 23.7007C26.541 23.5219 25.8115 23.1605 25.1949 22.646V22.646Z" fill="#D7645D"/>
<path d="M25.1949 22.6461C25.1949 22.6461 26.8546 22.2507 29.6996 23.6746C29.6995 23.6746 27.6976 23.253 25.1949 22.6461Z" fill="#A75844"/>
<path d="M27.8975 21.9226C27.8895 22.0378 27.8584 22.1502 27.806 22.2531C27.7554 22.3575 27.6908 22.4545 27.6138 22.5412C27.454 22.7178 27.2572 22.8568 27.0373 22.9482C26.8172 23.0399 26.5819 23.0895 26.3435 23.0946C26.2851 23.0963 26.2265 23.0956 26.1678 23.0949C26.1286 23.0971 26.0943 23.0966 26.0576 23.0971C25.9867 23.0932 25.9105 23.1028 25.8372 23.1011C25.5378 23.116 25.2184 23.1384 24.8755 23.166C24.7025 23.1757 24.526 23.1918 24.3408 23.2043C24.2928 23.2056 24.2477 23.2109 24.2004 23.2144C24.151 23.2164 24.106 23.2225 24.0567 23.2261C24.006 23.2301 23.9621 23.2362 23.9091 23.2428C23.8855 23.2459 23.8611 23.2504 23.8347 23.2563C23.8087 23.263 23.7834 23.2727 23.7595 23.2849C23.7544 23.2553 23.7548 23.225 23.7606 23.1955C23.7666 23.1673 23.774 23.137 23.7832 23.1065C23.8034 23.0518 23.828 22.999 23.8569 22.9484C23.9124 22.8504 23.9781 22.7586 24.0529 22.6744C24.1972 22.5118 24.3645 22.3711 24.5493 22.2566C24.9234 22.0238 25.3516 21.8923 25.7918 21.875C25.9065 21.8718 26.0213 21.8765 26.1353 21.889C26.1924 21.8966 26.2519 21.9032 26.3065 21.9125C26.3416 21.919 26.3768 21.9254 26.4122 21.9342C26.5537 21.9657 26.6968 21.9897 26.8409 22.0059C27.1952 22.0477 27.5542 22.0193 27.8975 21.9226V21.9226Z" fill="#350313"/>
<path d="M27.7806 21.897C28.053 22.1273 28.368 22.3019 28.7077 22.4107C28.8455 22.4556 28.9856 22.4932 29.1275 22.5231C29.1634 22.5297 29.1981 22.5385 29.2328 22.5472C29.2863 22.5613 29.3431 22.58 29.3982 22.5968C29.5072 22.6326 29.6136 22.6759 29.7167 22.7264C30.1101 22.9246 30.4453 23.2217 30.6892 23.5885C30.81 23.7694 30.9039 23.9668 30.9679 24.1746C31.0011 24.2822 31.0228 24.393 31.0327 24.5052C31.038 24.5632 31.0386 24.6215 31.0343 24.6796C31.03 24.7112 31.0242 24.7417 31.0179 24.7699C31.011 24.7992 30.9988 24.8269 30.9819 24.8518C30.9652 24.8307 30.9462 24.8115 30.9253 24.7945C30.9037 24.7782 30.8834 24.7641 30.8632 24.7514C30.8177 24.7235 30.7802 24.6997 30.7358 24.675C30.6924 24.6514 30.654 24.6271 30.6099 24.6049C30.5682 24.5821 30.5295 24.5586 30.4863 24.5375C30.3229 24.4493 30.169 24.3616 30.0155 24.281C29.7149 24.1138 29.4335 23.9611 29.1672 23.8234C29.0998 23.7946 29.0345 23.7542 28.9683 23.7284C28.9351 23.7127 28.9037 23.699 28.8689 23.6807C28.8152 23.657 28.7616 23.6334 28.7092 23.6077C28.4943 23.5042 28.3007 23.3615 28.1384 23.1869C27.9762 23.0126 27.8546 22.8045 27.7824 22.5776C27.7483 22.4667 27.7296 22.3517 27.7269 22.2357C27.7219 22.1204 27.7402 22.0051 27.7806 21.897V21.897Z" fill="#350313"/>
<path d="M29.1752 22.0307C28.742 22.3135 28.2238 22.4365 27.7098 22.3784C27.7248 22.3844 27.7402 22.3891 27.7555 22.3938L27.6617 22.3735C27.6777 22.3756 27.6936 22.3776 27.7098 22.3784C27.2257 22.2217 26.8103 21.9033 26.5332 21.4766L29.1752 22.0307Z" fill="#DD9176"/>
</svg>
