<svg width="89" height="89" viewBox="0 0 89 89" fill="none" xmlns="http://www.w3.org/2000/svg">
<path d="M61.5211 28.1092L37.0832 52.5472L23.7703 39.2713L18.5415 44.5001L37.0832 63.0417L66.7498 33.3751L61.5211 28.1092ZM44.4998 7.41675C24.0298 7.41675 7.4165 24.0301 7.4165 44.5001C7.4165 64.9701 24.0298 81.5834 44.4998 81.5834C64.9698 81.5834 81.5832 64.9701 81.5832 44.5001C81.5832 24.0301 64.9698 7.41675 44.4998 7.41675ZM44.4998 74.1667C28.109 74.1667 14.8332 60.8909 14.8332 44.5001C14.8332 28.1092 28.109 14.8334 44.4998 14.8334C60.8907 14.8334 74.1665 28.1092 74.1665 44.5001C74.1665 60.8909 60.8907 74.1667 44.4998 74.1667Z" fill="#F05542"/>
</svg>
