<svg width="30" height="30" viewBox="0 0 30 30" fill="none" xmlns="http://www.w3.org/2000/svg">
<path d="M13.5938 3.51562H17.1094C18.1039 3.51563 19.0578 3.91071 19.761 4.61397C20.4643 5.31724 20.8594 6.27106 20.8594 7.26562V15.9375H10.7812C10.5326 15.9375 10.2942 15.8387 10.1183 15.6629C9.94252 15.4871 9.84375 15.2486 9.84375 15V7.26562C9.84375 6.27106 10.2388 5.31724 10.9421 4.61397C11.6454 3.91071 12.5992 3.51563 13.5938 3.51562V3.51562Z" fill="#053541"/>
<path d="M11.9531 14.0625H17.5781V22.718C17.5781 23.2196 17.3789 23.7007 17.0241 24.0554C16.6694 24.4101 16.1884 24.6094 15.6867 24.6094H13.8445C13.3429 24.6094 12.8618 24.4101 12.5071 24.0554C12.1524 23.7007 11.9531 23.2196 11.9531 22.718V14.0625Z" fill="url(#paint0_linear_474_3589)"/>
<path d="M13.3594 22.7344V14.0625H11.9531V22.7344C11.9531 23.2317 12.1507 23.7086 12.5023 24.0602C12.8539 24.4118 13.3308 24.6094 13.8281 24.6094H15.2344C14.7371 24.6094 14.2602 24.4118 13.9086 24.0602C13.5569 23.7086 13.3594 23.2317 13.3594 22.7344Z" fill="url(#paint1_linear_474_3589)"/>
<path d="M11.9531 19.6875H17.5781V22.7344C17.5781 23.2317 17.3806 23.7086 17.0289 24.0602C16.6773 24.4118 16.2004 24.6094 15.7031 24.6094H13.8281C13.3308 24.6094 12.8539 24.4118 12.5023 24.0602C12.1507 23.7086 11.9531 23.2317 11.9531 22.7344V19.6875Z" fill="url(#paint2_linear_474_3589)"/>
<path d="M17.3438 5.15625H15.4688C13.3977 5.15625 11.7188 6.83518 11.7188 8.90625V14.7656C11.7188 16.8367 13.3977 18.5156 15.4688 18.5156H17.3438C19.4148 18.5156 21.0938 16.8367 21.0938 14.7656V8.90625C21.0938 6.83518 19.4148 5.15625 17.3438 5.15625Z" fill="url(#paint3_linear_474_3589)"/>
<path d="M11.7188 12.4219V14.7656C11.7188 15.7602 12.1138 16.714 12.8171 17.4173C13.5204 18.1205 14.4742 18.5156 15.4688 18.5156H17.3438C18.3383 18.5156 19.2921 18.1205 19.9954 17.4173C20.6987 16.714 21.0938 15.7602 21.0938 14.7656V12.4219H11.7188Z" fill="url(#paint4_linear_474_3589)"/>
<path d="M13.5938 14.7656V8.90625C13.5938 7.91169 13.9888 6.95786 14.6921 6.2546C15.3954 5.55134 16.3492 5.15625 17.3438 5.15625H15.4688C14.4742 5.15625 13.5204 5.55134 12.8171 6.2546C12.1138 6.95786 11.7188 7.91169 11.7188 8.90625V14.7656C11.7188 15.7602 12.1138 16.714 12.8171 17.4173C13.5204 18.1205 14.4742 18.5156 15.4688 18.5156H17.3438C16.3492 18.5156 15.3954 18.1205 14.6921 17.4173C13.9888 16.714 13.5938 15.7602 13.5938 14.7656Z" fill="url(#paint5_linear_474_3589)"/>
<path d="M16.4062 10.5469C16.4062 10.288 16.1964 10.0781 15.9375 10.0781C15.6786 10.0781 15.4688 10.288 15.4688 10.5469V11.0156C15.4688 11.2745 15.6786 11.4844 15.9375 11.4844C16.1964 11.4844 16.4062 11.2745 16.4062 11.0156V10.5469Z" fill="#053541"/>
<path d="M19.9219 10.5469C19.9219 10.288 19.712 10.0781 19.4531 10.0781C19.1942 10.0781 18.9844 10.288 18.9844 10.5469V11.0156C18.9844 11.2745 19.1942 11.4844 19.4531 11.4844C19.712 11.4844 19.9219 11.2745 19.9219 11.0156V10.5469Z" fill="#053541"/>
<path d="M6.79688 22.5H22.5C23.3702 22.5 24.2048 22.8457 24.8202 23.4611C25.4355 24.0764 25.7812 24.911 25.7812 25.7812V28.125H3.51562V25.7812C3.51562 24.911 3.86133 24.0764 4.47668 23.4611C5.09203 22.8457 5.92663 22.5 6.79688 22.5V22.5Z" fill="url(#paint6_linear_474_3589)"/>
<path d="M18.2081 14.0625H17.7469C17.64 14.0625 17.5374 14.02 17.4618 13.9444C17.3862 13.8688 17.3438 13.7663 17.3438 13.6594V12.1219C17.3438 12.015 17.3862 11.9124 17.4618 11.8368C17.5374 11.7612 17.64 11.7188 17.7469 11.7188C17.8336 11.7187 17.918 11.7467 17.9876 11.7984C18.0572 11.8502 18.1082 11.923 18.1331 12.0061L18.5944 13.5436C18.6124 13.6038 18.6161 13.6674 18.6053 13.7293C18.5944 13.7912 18.5691 13.8497 18.5316 13.9001C18.4941 13.9505 18.4453 13.9914 18.3891 14.0196C18.333 14.0478 18.271 14.0625 18.2081 14.0625V14.0625Z" fill="url(#paint7_linear_474_3589)"/>
<path d="M16.4062 15.2344H18.9844C19.0465 15.2344 19.1061 15.2591 19.1501 15.303C19.1941 15.347 19.2188 15.4066 19.2188 15.4688V15.7031C19.2188 15.9518 19.12 16.1902 18.9442 16.366C18.7683 16.5419 18.5299 16.6406 18.2812 16.6406H17.1094C16.8607 16.6406 16.6223 16.5419 16.4465 16.366C16.2706 16.1902 16.1719 15.9518 16.1719 15.7031V15.4688C16.1719 15.4066 16.1966 15.347 16.2405 15.303C16.2845 15.2591 16.3441 15.2344 16.4062 15.2344Z" fill="#053541"/>
<path d="M16.4062 15.2344H18.9844V15.4688C18.9844 15.5309 18.9597 15.5905 18.9157 15.6345C18.8718 15.6784 18.8122 15.7031 18.75 15.7031H16.6406C16.5785 15.7031 16.5189 15.6784 16.4749 15.6345C16.4309 15.5905 16.4062 15.5309 16.4062 15.4688V15.2344Z" fill="url(#paint8_linear_474_3589)"/>
<path d="M18.9938 16.3062C18.7355 16.069 18.3976 15.9374 18.0469 15.9375H16.2049C16.2564 16.1384 16.3732 16.3165 16.5369 16.4438C16.7006 16.5711 16.902 16.6403 17.1094 16.6406H18.2813C18.4172 16.6403 18.5515 16.6102 18.6746 16.5524C18.7977 16.4946 18.9066 16.4106 18.9938 16.3062Z" fill="url(#paint9_linear_474_3589)"/>
<path d="M16.6406 9.84378C16.6098 9.84381 16.5794 9.83776 16.5509 9.82598C16.5225 9.81419 16.4967 9.7969 16.4749 9.77511C16.3161 9.66669 16.1281 9.60891 15.9358 9.60937C15.7435 9.60983 15.5558 9.66851 15.3975 9.77768C15.3525 9.81985 15.2928 9.84274 15.2311 9.84147C15.1695 9.8402 15.1107 9.81487 15.0675 9.77089C15.0245 9.7272 15.0006 9.66832 15.0008 9.60705C15.001 9.54579 15.0254 9.48708 15.0687 9.4437C15.3157 9.24745 15.622 9.14062 15.9375 9.14062C16.253 9.14062 16.5593 9.24745 16.8063 9.4437C16.8391 9.47648 16.8614 9.51824 16.8705 9.56369C16.8795 9.60915 16.8748 9.65627 16.8571 9.69909C16.8394 9.74191 16.8093 9.77851 16.7708 9.80426C16.7323 9.83002 16.687 9.84377 16.6406 9.84378ZM20.1563 9.84378C20.1255 9.84381 20.095 9.83776 20.0665 9.82598C20.0381 9.81419 20.0123 9.7969 19.9905 9.77511C19.8317 9.66669 19.6438 9.60891 19.4514 9.60937C19.2591 9.60983 19.0715 9.66851 18.9131 9.77768C18.8681 9.81985 18.8084 9.84274 18.7467 9.84147C18.6851 9.8402 18.6264 9.81487 18.5831 9.77089C18.5402 9.7272 18.5162 9.66832 18.5164 9.60705C18.5166 9.54579 18.541 9.48708 18.5843 9.4437C18.8314 9.24745 19.1376 9.14062 19.4531 9.14062C19.7687 9.14063 20.0749 9.24745 20.322 9.4437C20.3547 9.47648 20.377 9.51824 20.3861 9.56369C20.3951 9.60915 20.3905 9.65627 20.3727 9.69909C20.355 9.74191 20.325 9.77851 20.2864 9.80426C20.2479 9.83002 20.2026 9.84377 20.1563 9.84378Z" fill="#053541"/>
<path d="M16.1719 10.7812C16.3013 10.7812 16.4062 10.6763 16.4062 10.5469C16.4062 10.4174 16.3013 10.3125 16.1719 10.3125C16.0424 10.3125 15.9375 10.4174 15.9375 10.5469C15.9375 10.6763 16.0424 10.7812 16.1719 10.7812Z" fill="url(#paint10_linear_474_3589)"/>
<path d="M19.6875 10.7812C19.8169 10.7812 19.9219 10.6763 19.9219 10.5469C19.9219 10.4174 19.8169 10.3125 19.6875 10.3125C19.5581 10.3125 19.4531 10.4174 19.4531 10.5469C19.4531 10.6763 19.5581 10.7812 19.6875 10.7812Z" fill="url(#paint11_linear_474_3589)"/>
<path d="M10.5469 20.8594H18.75V22.5H10.5469V20.8594Z" fill="url(#paint12_linear_474_3589)"/>
<path d="M10.5469 21.5625H18.75V22.5H10.5469V21.5625Z" fill="url(#paint13_linear_474_3589)"/>
<path d="M3.56039 25.3125C3.53208 25.4672 3.51711 25.624 3.51562 25.7812V28.125H25.7812V25.7812C25.7798 25.624 25.7648 25.4672 25.7365 25.3125H3.56039Z" fill="url(#paint14_linear_474_3589)"/>
<path d="M14.2969 23.9062H15.7031V28.125H14.2969V23.9062Z" fill="url(#paint15_linear_474_3589)"/>
<path d="M10.0781 22.5H6.79688C5.92663 22.5 5.09203 22.8457 4.47668 23.4611C3.86133 24.0764 3.51563 24.911 3.51562 25.7812V28.125H6.79688V25.7812C6.79688 24.911 7.14258 24.0764 7.75793 23.4611C8.37328 22.8457 9.20788 22.5 10.0781 22.5V22.5Z" fill="url(#paint16_linear_474_3589)"/>
<path d="M12.1875 10.0781H12.6562C12.7806 10.0781 12.8998 10.1275 12.9877 10.2154C13.0756 10.3033 13.125 10.4226 13.125 10.5469V13.5938C13.125 13.7181 13.0756 13.8373 12.9877 13.9252C12.8998 14.0131 12.7806 14.0625 12.6562 14.0625H12.1875C11.7524 14.0625 11.3351 13.8896 11.0274 13.582C10.7197 13.2743 10.5469 12.857 10.5469 12.4219V11.7188C10.5469 11.2836 10.7197 10.8663 11.0274 10.5587C11.3351 10.251 11.7524 10.0781 12.1875 10.0781V10.0781Z" fill="url(#paint17_linear_474_3589)"/>
<path d="M12.6562 11.0156V13.125H12.1875C12.001 13.125 11.8222 13.0509 11.6903 12.9191C11.5585 12.7872 11.4844 12.6084 11.4844 12.4219V11.7188C11.4844 11.5323 11.5585 11.3534 11.6903 11.2216C11.8222 11.0897 12.001 11.0156 12.1875 11.0156H12.6562Z" fill="#BC453F"/>
<path d="M11.4844 4.21875H17.1094C17.1094 5.33763 16.6649 6.41069 15.8737 7.20186C15.0826 7.99303 14.0095 8.4375 12.8906 8.4375H11.4844V4.21875Z" fill="#053541"/>
<path d="M15.9375 3.51562H21.2109C21.615 3.51563 22.0025 3.67613 22.2882 3.96183C22.5739 4.24753 22.7344 4.63502 22.7344 5.03906C22.7344 5.23912 22.695 5.43722 22.6184 5.62206C22.5419 5.80689 22.4296 5.97483 22.2882 6.1163C22.1467 6.25776 21.9788 6.36998 21.7939 6.44654C21.6091 6.5231 21.411 6.5625 21.2109 6.5625H15.9375V3.51562Z" fill="#053541"/>
<defs>
<linearGradient id="paint0_linear_474_3589" x1="14.7656" y1="14.0625" x2="14.7656" y2="24.6094" gradientUnits="userSpaceOnUse">
<stop stop-color="#F4B7A4"/>
<stop offset="1" stop-color="#E57E70"/>
</linearGradient>
<linearGradient id="paint1_linear_474_3589" x1="13.5937" y1="14.0625" x2="13.5937" y2="24.6094" gradientUnits="userSpaceOnUse">
<stop stop-color="#E57E70"/>
<stop offset="1" stop-color="#C66258"/>
</linearGradient>
<linearGradient id="paint2_linear_474_3589" x1="14.7656" y1="19.6875" x2="14.7656" y2="24.6094" gradientUnits="userSpaceOnUse">
<stop stop-color="#E57E70" stop-opacity="0"/>
<stop offset="0.242" stop-color="#E57E70"/>
</linearGradient>
<linearGradient id="paint3_linear_474_3589" x1="21.0938" y1="11.8359" x2="11.7188" y2="11.8359" gradientUnits="userSpaceOnUse">
<stop stop-color="#F4B7A4"/>
<stop offset="1" stop-color="#E57E70"/>
</linearGradient>
<linearGradient id="paint4_linear_474_3589" x1="16.4062" y1="12.4219" x2="16.4062" y2="18.5156" gradientUnits="userSpaceOnUse">
<stop stop-color="#E57E70" stop-opacity="0"/>
<stop offset="0.997" stop-color="#E57E70"/>
</linearGradient>
<linearGradient id="paint5_linear_474_3589" x1="17.3438" y1="11.8359" x2="11.7188" y2="11.8359" gradientUnits="userSpaceOnUse">
<stop stop-color="#E57E70"/>
<stop offset="1" stop-color="#C66258"/>
</linearGradient>
<linearGradient id="paint6_linear_474_3589" x1="25.7812" y1="25.3125" x2="3.51562" y2="25.3125" gradientUnits="userSpaceOnUse">
<stop stop-color="#FF4D6C"/>
<stop offset="1" stop-color="#FF0825"/>
</linearGradient>
<linearGradient id="paint7_linear_474_3589" x1="17.9777" y1="11.7188" x2="17.9777" y2="14.0625" gradientUnits="userSpaceOnUse">
<stop stop-color="#E03F53"/>
<stop offset="1" stop-color="#B73248"/>
</linearGradient>
<linearGradient id="paint8_linear_474_3589" x1="16.4062" y1="15.4688" x2="18.9844" y2="15.4688" gradientUnits="userSpaceOnUse">
<stop stop-color="#EDEDED"/>
<stop offset="1" stop-color="#D0D0D0"/>
</linearGradient>
<linearGradient id="paint9_linear_474_3589" x1="16.2049" y1="16.2891" x2="18.9938" y2="16.2891" gradientUnits="userSpaceOnUse">
<stop stop-color="#E03F53"/>
<stop offset="1" stop-color="#B73248"/>
</linearGradient>
<linearGradient id="paint10_linear_474_3589" x1="15.9375" y1="10.5469" x2="16.4062" y2="10.5469" gradientUnits="userSpaceOnUse">
<stop stop-color="#EDEDED"/>
<stop offset="1" stop-color="#D0D0D0"/>
</linearGradient>
<linearGradient id="paint11_linear_474_3589" x1="19.4531" y1="10.5469" x2="19.9219" y2="10.5469" gradientUnits="userSpaceOnUse">
<stop stop-color="#EDEDED"/>
<stop offset="1" stop-color="#D0D0D0"/>
</linearGradient>
<linearGradient id="paint12_linear_474_3589" x1="18.75" y1="21.6797" x2="10.5469" y2="21.6797" gradientUnits="userSpaceOnUse">
<stop stop-color="#EDEDED"/>
<stop offset="1" stop-color="#D0D0D0"/>
</linearGradient>
<linearGradient id="paint13_linear_474_3589" x1="14.6484" y1="21.5625" x2="14.6484" y2="22.5" gradientUnits="userSpaceOnUse">
<stop stop-color="#D0D0D0" stop-opacity="0"/>
<stop offset="0.96" stop-color="#D0D0D0"/>
</linearGradient>
<linearGradient id="paint14_linear_474_3589" x1="14.6484" y1="25.3125" x2="14.6484" y2="28.125" gradientUnits="userSpaceOnUse">
<stop stop-color="#FF0825" stop-opacity="0"/>
<stop offset="0.992" stop-color="#FF0825"/>
</linearGradient>
<linearGradient id="paint15_linear_474_3589" x1="15" y1="23.9062" x2="15" y2="28.125" gradientUnits="userSpaceOnUse">
<stop stop-color="#CF1D37"/>
<stop offset="1" stop-color="#CF0018"/>
</linearGradient>
<linearGradient id="paint16_linear_474_3589" x1="10.0781" y1="25.3125" x2="3.51562" y2="25.3125" gradientUnits="userSpaceOnUse">
<stop stop-color="#CF1D37"/>
<stop offset="1" stop-color="#CF0018"/>
</linearGradient>
<linearGradient id="paint17_linear_474_3589" x1="11.8359" y1="10.0781" x2="11.8359" y2="14.0625" gradientUnits="userSpaceOnUse">
<stop stop-color="#E57E70"/>
<stop offset="1" stop-color="#C66258"/>
</linearGradient>
</defs>
</svg>
