<svg width="30" height="30" viewBox="0 0 30 30" fill="none" xmlns="http://www.w3.org/2000/svg">
<rect width="30" height="30" rx="15" fill="white"/>
<path d="M27.572 10.0981H2.42822V26.8082H27.572V10.0981Z" fill="#FACBB6"/>
<path d="M23.4409 16.0889C24.3458 16.0889 24.3473 14.6826 23.4409 14.6826C22.5361 14.6826 22.5346 16.0889 23.4409 16.0889Z" stroke="white" stroke-width="2" stroke-miterlimit="10"/>
<path d="M5.04883 24.8738C5.95369 24.8738 5.95519 23.4675 5.04883 23.4675C4.14398 23.4675 4.14248 24.8738 5.04883 24.8738Z" stroke="white" stroke-width="2" stroke-miterlimit="10"/>
<path d="M5.7276 13.583C6.06692 13.583 6.06748 13.0557 5.7276 13.0557C5.38828 13.0557 5.38772 13.583 5.7276 13.583Z" fill="white"/>
<path d="M11.3807 12.7356C11.607 12.7356 11.6073 12.384 11.3807 12.384C11.1545 12.384 11.1542 12.7356 11.3807 12.7356Z" fill="white"/>
<path d="M22.4337 10.6262C22.6599 10.6262 22.6603 10.2747 22.4337 10.2747C22.2075 10.2747 22.2071 10.6262 22.4337 10.6262Z" fill="white"/>
<path d="M5.05261 20.3293C5.27883 20.3293 5.2792 19.9778 5.05261 19.9778C4.8264 19.9778 4.82603 20.3293 5.05261 20.3293Z" fill="white"/>
<path d="M24.6275 21.3455C24.9668 21.3455 24.9674 20.8181 24.6275 20.8181C24.2882 20.8181 24.2876 21.3455 24.6275 21.3455Z" fill="white"/>
<path d="M26.2116 29.8188H3.81592C3.80653 29.8656 3.79716 29.9125 3.78779 29.9594L3.78721 29.9629L3.77197 29.9617C3.78134 29.9137 3.79131 29.8662 3.80068 29.8188C4.19795 27.843 4.57705 26.1807 4.89756 24.8693C5.02118 24.3637 5.13524 23.9107 5.23974 23.5105C5.59775 22.1342 5.82393 21.4029 5.82393 21.4029C6.10284 19.7277 7.39423 19.1869 7.39423 19.1869L7.4751 19.1617L11.821 17.8088C12.0327 17.7431 12.2284 17.6337 12.3952 17.4877C12.3983 17.4853 12.4012 17.4828 12.404 17.4801C12.6514 17.2617 12.8252 16.9721 12.9015 16.651V16.6492C12.9061 16.6293 12.9108 16.6094 12.9144 16.5889C12.9179 16.573 12.9208 16.5566 12.9231 16.5402C12.9272 16.5162 12.9308 16.4928 12.9337 16.4682C12.9354 16.4494 12.9372 16.4312 12.939 16.4125C12.9407 16.3873 12.9425 16.3621 12.9431 16.3369C12.9437 16.3188 12.9442 16.3006 12.9442 16.2824V14.1426H16.9444V16.2824C16.9445 16.5122 16.9941 16.7392 17.0897 16.9481C17.1854 17.1569 17.3249 17.3428 17.4987 17.493C17.5198 17.5111 17.5415 17.5287 17.5638 17.5457C17.7147 17.6631 17.8856 17.7522 18.0683 17.8088L22.495 19.1869C23.739 19.7629 24.1825 21.4029 24.1825 21.4029H24.189C24.189 21.4029 25.1329 24.4539 26.2116 29.8188Z" fill="#F8B997"/>
<path d="M14.462 16.4186C15.8886 16.17 16.9446 14.5171 16.9446 14.5171C16.9446 14.5171 15.5297 14.4006 14.6449 14.1428H12.9445V16.2824C12.9444 16.4058 12.9299 16.5289 12.9014 16.6491L12.9014 16.6513C12.9014 16.6513 13.0354 16.6673 14.462 16.4186Z" fill="#DD9176"/>
<path d="M19.0144 10.377C18.932 10.3415 18.8429 10.3244 18.7532 10.3266C18.9042 8.16753 17.9868 6.32472 16.4802 5.99782C14.9694 5.67002 13.3658 6.97486 12.611 9.0121C12.5169 8.95477 12.4094 8.92301 12.2993 8.91998C11.8126 8.9115 11.4079 9.49054 11.3953 10.2133C11.3832 10.9107 11.741 11.4855 12.2033 11.5326C12.2903 13.2696 12.6126 14.6605 13.7091 15.1205C14.0039 15.2441 14.316 15.1225 14.5603 15.1755C14.802 15.2279 15.0491 15.4991 15.2673 15.4702C16.5883 15.2949 17.3194 14.3585 18.0914 12.8141C18.5195 12.9017 19.0381 12.5337 19.3011 11.9286C19.5891 11.2657 19.4608 10.571 19.0144 10.377Z" fill="#F8B997"/>
<path d="M14.0247 10.2905C14.3054 10.2905 14.3059 9.85425 14.0247 9.85425C13.744 9.85425 13.7435 10.2905 14.0247 10.2905Z" fill="#38101B"/>
<path d="M16.9239 10.9194C17.2046 10.9194 17.205 10.4832 16.9239 10.4832C16.6431 10.4832 16.6427 10.9194 16.9239 10.9194Z" fill="#38101B"/>
<path d="M15.059 9.36118C14.896 9.34751 14.735 9.31553 14.5791 9.26584C14.5025 9.24267 14.4274 9.21627 14.3531 9.18789L14.2451 9.14503C14.2124 9.13164 14.1792 9.1196 14.1456 9.10889C14.0099 9.06427 13.8698 9.03435 13.7277 9.01963C13.6913 9.01548 13.6545 9.01297 13.6171 9.01045C13.5777 9.00862 13.5367 9.00614 13.4964 9.00272C13.4138 8.99606 13.3317 8.98331 13.251 8.96459C13.3236 8.9246 13.3991 8.89003 13.4768 8.86113C13.515 8.84693 13.5525 8.83325 13.5918 8.82097C13.6331 8.80823 13.6753 8.79826 13.718 8.79114C13.8919 8.76261 14.0702 8.77696 14.2373 8.83294C14.2787 8.84777 14.32 8.86329 14.3598 8.88216C14.4005 8.90202 14.4322 8.91827 14.4682 8.93787C14.538 8.97578 14.607 9.01567 14.6744 9.05879C14.8135 9.14483 14.9425 9.24626 15.059 9.36118Z" fill="#38101B"/>
<path d="M16.3713 9.66538C16.5311 9.63 16.6943 9.61271 16.8578 9.61386C16.9379 9.61321 17.0175 9.6161 17.0968 9.62115C17.1377 9.6237 17.1732 9.62678 17.2182 9.63163C17.2619 9.6368 17.3051 9.6456 17.3481 9.6551C17.5194 9.69657 17.678 9.77922 17.81 9.89587C17.8424 9.92462 17.8729 9.9555 17.9011 9.9883C17.9278 10.0196 17.9523 10.0511 17.9771 10.0835C18.0276 10.1493 18.0731 10.2187 18.1133 10.2912C18.035 10.2641 17.9587 10.2312 17.8852 10.1929C17.8492 10.1744 17.8132 10.1547 17.7789 10.1353C17.7458 10.1175 17.7134 10.1001 17.6803 10.0842C17.5522 10.0211 17.4176 9.97192 17.279 9.93752C17.2448 9.92877 17.2103 9.92134 17.1755 9.91523L17.0612 9.89405C16.9833 9.8786 16.9056 9.861 16.8284 9.83986C16.67 9.79904 16.5167 9.74051 16.3713 9.66538V9.66538Z" fill="#38101B"/>
<path d="M19.103 11.7138C19.2436 11.3173 19.2286 10.9502 19.0694 10.8938C18.9103 10.8373 18.6673 11.113 18.5268 11.5094C18.3862 11.9059 18.4012 12.273 18.5604 12.3295C18.7195 12.3859 18.9625 12.1103 19.103 11.7138Z" fill="#DD9176"/>
<path d="M12.3274 10.1644C12.3637 9.74537 12.2568 9.39382 12.0886 9.37922C11.9204 9.36462 11.7546 9.69251 11.7182 10.1116C11.6818 10.5306 11.7887 10.8822 11.9569 10.8968C12.1251 10.9114 12.291 10.5835 12.3274 10.1644Z" fill="#DD9176"/>
<path d="M12.611 9.01221C12.5872 9.22614 12.5548 9.43689 12.5198 9.64692L12.4115 10.2751C12.3912 10.3792 12.3742 10.4838 12.3556 10.5882L12.3009 10.9014C12.2663 11.1106 12.2319 11.3194 12.2033 11.5327C12.1754 11.319 12.1703 11.1029 12.1882 10.8881C12.2034 10.674 12.2302 10.4608 12.2684 10.2496C12.3071 10.0387 12.3527 9.82944 12.4094 9.62289C12.4637 9.4153 12.531 9.21133 12.611 9.01221V9.01221Z" fill="#DD9176"/>
<path d="M18.7671 10.3479C18.7573 10.5623 18.734 10.7758 18.6974 10.9872C18.6634 11.1987 18.6182 11.4081 18.566 11.6159C18.5132 11.824 18.4492 12.0291 18.3743 12.2303C18.3016 12.4332 18.2075 12.6278 18.0935 12.8107C18.1559 12.6047 18.2111 12.4005 18.2663 12.1957L18.3463 11.888C18.3727 11.7853 18.4006 11.6831 18.4252 11.5798L18.5869 10.9633C18.6422 10.7577 18.7 10.5524 18.7671 10.3479Z" fill="#DD9176"/>
<path d="M16.5615 10.6227C16.5987 10.5504 16.6577 10.4915 16.7301 10.4544C16.8078 10.4127 16.898 10.4006 16.984 10.4204C17.0686 10.4418 17.1435 10.4914 17.1963 10.5609C17.2198 10.5936 17.2401 10.6285 17.257 10.6651C17.2701 10.7025 17.2799 10.7409 17.2863 10.78C17.2556 10.7575 17.2263 10.7329 17.1988 10.7065C17.1693 10.685 17.1433 10.6612 17.1159 10.6422C17.0664 10.6053 17.0104 10.578 16.9508 10.562C16.8911 10.5485 16.8291 10.5483 16.7692 10.5615C16.6985 10.5766 16.6291 10.5971 16.5615 10.6227V10.6227Z" fill="#38101B"/>
<path d="M13.6624 9.99383C13.6995 9.92147 13.7585 9.8626 13.8309 9.82553C13.9086 9.78381 13.9988 9.77172 14.0848 9.7915C14.1694 9.81293 14.2443 9.86247 14.2971 9.93201C14.3206 9.96475 14.3409 9.99963 14.3579 10.0362C14.3709 10.0736 14.3807 10.112 14.3872 10.1511C14.3564 10.1285 14.3272 10.104 14.2996 10.0776C14.2701 10.0561 14.2442 10.0323 14.2167 10.0133C14.1672 9.97635 14.1112 9.94912 14.0516 9.93305C13.9919 9.91955 13.9299 9.91938 13.8701 9.93254C13.7994 9.94766 13.7299 9.96815 13.6624 9.99383Z" fill="#38101B"/>
<path d="M20.0303 9.34168C20.0524 9.24005 20.0518 9.13479 20.0285 9.03343C20.0051 8.93207 19.9597 8.83713 19.8953 8.75542C19.8958 8.74705 19.8958 8.73892 19.8962 8.73058C20.0208 8.6674 20.1239 8.56867 20.1924 8.44688C20.2609 8.32509 20.2918 8.18572 20.281 8.04639C20.2703 7.90707 20.2185 7.77406 20.1322 7.66419C20.0458 7.55432 19.9288 7.47254 19.796 7.42918C19.864 7.32147 19.9016 7.19732 19.9046 7.06996C19.9077 6.94259 19.8762 6.81679 19.8134 6.70593C19.7506 6.59508 19.6589 6.50333 19.5481 6.44045C19.4373 6.37757 19.3115 6.34593 19.1842 6.34888C19.1857 6.34248 19.1879 6.33637 19.1893 6.32988C19.2205 6.18638 19.2062 6.03671 19.1484 5.90171C19.0906 5.76672 18.9921 5.65313 18.8666 5.57675C18.7412 5.50037 18.5951 5.46502 18.4486 5.47561C18.3021 5.4862 18.1626 5.54221 18.0494 5.63584C18.0018 5.53766 17.9321 5.45186 17.8457 5.38522C17.7593 5.31857 17.6586 5.2729 17.5515 5.25179C17.4445 5.23068 17.334 5.23472 17.2288 5.26358C17.1235 5.29245 17.0264 5.34535 16.9451 5.41812C16.902 5.40724 16.8592 5.39703 16.8166 5.38749C16.7933 5.23984 16.7236 5.10343 16.6177 4.99793C16.5118 4.89243 16.3751 4.8233 16.2274 4.80049C16.0796 4.77769 15.9285 4.8024 15.7957 4.87106C15.6629 4.93972 15.5553 5.04878 15.4885 5.18251C15.3998 5.09024 15.2876 5.02383 15.164 4.99039C15.0404 4.95695 14.91 4.95774 14.7868 4.99266C14.6636 5.02758 14.5522 5.09533 14.4646 5.18866C14.3769 5.28199 14.3163 5.39739 14.2891 5.52252C14.2852 5.54067 14.2827 5.55878 14.2802 5.57688C14.1686 5.49839 14.0368 5.45391 13.9005 5.44881C13.7642 5.44371 13.6294 5.47821 13.5123 5.54814C13.3952 5.61807 13.3009 5.72043 13.2408 5.84284C13.1807 5.96525 13.1573 6.10246 13.1735 6.23786C13.0694 6.23021 12.9648 6.24585 12.8674 6.28364C12.77 6.32144 12.6822 6.38044 12.6104 6.45638C12.5387 6.53231 12.4847 6.62326 12.4525 6.72264C12.4202 6.82201 12.4105 6.92732 12.424 7.03092C12.2806 7.13415 12.1813 7.28758 12.1458 7.46071C12.1103 7.63384 12.1412 7.81398 12.2325 7.96533C12.2306 7.98002 12.2283 7.99506 12.2265 8.00959C12.1328 8.07294 12.0557 8.1579 12.0017 8.2573C11.9478 8.3567 11.9185 8.46763 11.9164 8.58072C11.9143 8.69381 11.9394 8.80575 11.9896 8.90709C12.0399 9.00843 12.1138 9.0962 12.2051 9.16299C12.2681 9.78296 12.4406 10.0925 12.4406 10.0925C12.4406 10.0925 12.5031 9.75637 12.632 9.29961C12.759 9.29809 12.8833 9.26231 12.9917 9.19603C13.1 9.12975 13.1885 9.03544 13.2477 8.92305C13.307 8.81066 13.3347 8.68437 13.3281 8.5575C13.3215 8.43063 13.2808 8.3079 13.2102 8.20226C13.3254 8.13122 13.4177 8.02841 13.4758 7.9062C13.5339 7.78399 13.5555 7.64758 13.538 7.51338C13.5831 7.48101 13.6244 7.44342 13.6607 7.4014C13.7231 7.47159 13.7989 7.5286 13.8837 7.56907C13.9684 7.60955 14.0604 7.63267 14.1542 7.63708C14.248 7.64149 14.3417 7.6271 14.4299 7.59476C14.5181 7.56241 14.5989 7.51277 14.6676 7.44874C14.7849 7.53872 14.9277 7.5894 15.0755 7.59355C15.2233 7.5977 15.3687 7.55512 15.4909 7.47186C15.5061 7.57269 15.5429 7.66904 15.5989 7.75424C15.6549 7.83945 15.7288 7.91149 15.8153 7.9654C15.9019 8.0193 15.9991 8.05378 16.1003 8.06646C16.2014 8.07914 16.3041 8.06972 16.4013 8.03885C16.3771 8.18641 16.4004 8.33786 16.4678 8.47132C16.5353 8.60478 16.6434 8.71336 16.7766 8.78137C16.9098 8.84938 17.0611 8.87331 17.2088 8.8497C17.3564 8.82609 17.4928 8.75616 17.5981 8.65001C17.6192 8.79182 17.6829 8.92386 17.7809 9.02856C17.8788 9.13326 18.0063 9.20566 18.1464 9.23614C18.1147 9.38239 18.1303 9.53492 18.1908 9.67175C18.2514 9.80859 18.3538 9.92266 18.4834 9.99754C18.4133 10.111 18.3769 10.242 18.3784 10.3753C18.38 10.5086 18.4194 10.6388 18.492 10.7506C18.4734 11.1783 18.452 11.5183 18.452 11.5183C18.452 11.5183 18.6386 11.3232 18.8718 11.0399C18.8925 11.0464 18.9135 11.0524 18.9352 11.0571C19.0787 11.0883 19.2284 11.074 19.3635 11.0161C19.4985 10.9583 19.6121 10.8597 19.6884 10.7342C19.7648 10.6087 19.8001 10.4626 19.7895 10.3161C19.7788 10.1695 19.7227 10.03 19.629 9.91689C19.6456 9.88195 19.661 9.84735 19.6752 9.8131C19.7649 9.76488 19.8432 9.69777 19.9045 9.61638C19.9658 9.53499 20.0087 9.44126 20.0303 9.34168Z" fill="#350313"/>
<path d="M13.7246 12.3228C13.7246 12.3228 15.8147 12.6314 16.1817 12.8838C16.1817 12.8838 15.1278 13.3 14.923 13.213C14.7183 13.1259 13.7246 12.3228 13.7246 12.3228Z" fill="#FDFFFF"/>
<path d="M13.7246 12.3228C13.7246 12.3228 14.1182 13.3218 14.8763 13.4108C15.6344 13.4997 16.1817 12.8838 16.1817 12.8838C15.7569 12.9906 15.3129 12.9955 14.8858 12.898C14.4588 12.8005 14.0609 12.6034 13.7246 12.3228V12.3228Z" fill="#D7645D"/>
<path d="M13.7246 12.3227C13.7246 12.3227 14.6299 12.107 16.1817 12.8837C16.1817 12.8837 15.0897 12.6537 13.7246 12.3227Z" fill="#A75844"/>
<path d="M15.1987 11.9281C15.1944 11.9909 15.1774 12.0523 15.1488 12.1084C15.1212 12.1653 15.086 12.2182 15.044 12.2655C14.9568 12.3618 14.8494 12.4377 14.7295 12.4876C14.6095 12.5375 14.4811 12.5646 14.3511 12.5674C14.3192 12.5683 14.2873 12.5679 14.2553 12.5676C14.2339 12.5688 14.2152 12.5685 14.1951 12.5688C14.1564 12.5666 14.1149 12.5719 14.0749 12.5709C13.9116 12.5791 13.7374 12.5913 13.5504 12.6063C13.456 12.6116 13.3598 12.6204 13.2587 12.6272C13.2325 12.6279 13.2079 12.6308 13.1821 12.6327C13.1552 12.6338 13.1306 12.6371 13.1037 12.6391C13.0761 12.6413 13.0521 12.6446 13.0232 12.6482C13.0104 12.6499 12.997 12.6524 12.9827 12.6556C12.9684 12.6593 12.9547 12.6645 12.9416 12.6712C12.9389 12.655 12.9391 12.6385 12.9423 12.6224C12.9455 12.607 12.9495 12.5905 12.9545 12.5739C12.9656 12.5441 12.979 12.5152 12.9947 12.4876C13.025 12.4342 13.0608 12.3841 13.1016 12.3382C13.1804 12.2495 13.2716 12.1727 13.3725 12.1103C13.5765 11.9833 13.81 11.9116 14.0501 11.9022C14.1127 11.9004 14.1753 11.9029 14.2375 11.9098C14.2687 11.9139 14.3011 11.9175 14.3309 11.9226C14.35 11.9261 14.3693 11.9296 14.3886 11.9344C14.4658 11.9516 14.5438 11.9647 14.6224 11.9735C14.8156 11.9963 15.0114 11.9809 15.1987 11.9281V11.9281Z" fill="#350313"/>
<path d="M15.135 11.9143C15.2835 12.04 15.4553 12.1352 15.6406 12.1945C15.7158 12.219 15.7922 12.2395 15.8696 12.2558C15.8892 12.2594 15.9081 12.2642 15.927 12.2689C15.9562 12.2767 15.9872 12.2869 16.0173 12.296C16.0768 12.3156 16.1348 12.3392 16.191 12.3667C16.4056 12.4748 16.5884 12.6369 16.7215 12.837C16.7874 12.9356 16.8386 13.0433 16.8735 13.1566C16.8916 13.2153 16.9034 13.2758 16.9088 13.337C16.9117 13.3686 16.912 13.4004 16.9097 13.4321C16.9073 13.4493 16.9042 13.466 16.9007 13.4814C16.897 13.4973 16.8903 13.5125 16.8811 13.526C16.872 13.5145 16.8617 13.504 16.8502 13.4948C16.8385 13.4859 16.8274 13.4782 16.8163 13.4713C16.7916 13.456 16.7711 13.4431 16.7469 13.4296C16.7232 13.4167 16.7022 13.4035 16.6782 13.3913C16.6555 13.3789 16.6343 13.3661 16.6108 13.3546C16.5216 13.3065 16.4377 13.2586 16.354 13.2147C16.19 13.1235 16.0365 13.0402 15.8913 12.9651C15.8545 12.9494 15.8189 12.9274 15.7828 12.9133C15.7647 12.9047 15.7475 12.8972 15.7285 12.8873C15.6993 12.8743 15.67 12.8615 15.6414 12.8474C15.5243 12.791 15.4187 12.7132 15.3301 12.6179C15.2416 12.5228 15.1753 12.4093 15.1359 12.2855C15.1173 12.2251 15.1072 12.1623 15.1057 12.0991C15.1029 12.0362 15.1129 11.9733 15.135 11.9143Z" fill="#350313"/>
<path d="M15.8957 11.9873C15.6594 12.1416 15.3768 12.2087 15.0964 12.177C15.1046 12.1803 15.113 12.1828 15.1213 12.1854L15.0702 12.1743C15.0789 12.1754 15.0875 12.1766 15.0964 12.177C14.8323 12.0915 14.6057 11.9178 14.4546 11.6851L15.8957 11.9873Z" fill="#DD9176"/>
<path d="M26.228 29.8187H3.81592C4.21318 27.8435 4.59229 26.1818 4.91221 24.8705C5.03526 24.366 5.1501 23.9136 5.25323 23.5152C5.61181 22.1347 5.83916 21.4005 5.83916 21.4005C6.11864 19.7253 7.41005 19.1839 7.41005 19.1839L7.4751 19.1617L12.3964 17.4783L12.404 17.48L14.9728 18.1585L17.4987 17.4929L17.5538 17.4783L22.5102 19.1839C23.7548 19.7599 24.1977 21.4005 24.1977 21.4005H24.2042C24.2042 21.4005 25.1487 24.4521 26.228 29.8187Z" fill="#577FFF"/>
<path d="M19.3656 29.8187H11.2305L12.3953 17.4876L12.3965 17.4783L12.4041 17.48L14.9729 18.1585L17.4988 17.4929L17.5539 17.4783L17.5639 17.5457L19.3656 29.8187Z" fill="#E8E9EA"/>
<path d="M6.95068 29.8115L7.25004 26.7725L7.24119 29.826L6.95068 29.8115Z" fill="#2E72A0"/>
<path d="M22.5576 26.7725L22.858 29.8115L22.5654 29.826L22.5576 26.7725Z" fill="#2E72A0"/>
<path d="M19.0325 10.4068C18.9501 10.3713 18.861 10.3542 18.7713 10.3564C18.9223 8.19731 18.0049 6.3545 16.4982 6.02761C14.9874 5.6998 13.3839 7.00464 12.6291 9.04189C12.5349 8.98455 12.4275 8.95279 12.3173 8.94976C11.8307 8.94128 11.426 9.52032 11.4134 10.2431C11.4012 10.9405 11.759 11.5153 12.2214 11.5624C12.3084 13.2993 12.6307 14.6903 13.7272 15.1502C14.0219 15.2739 14.334 15.1523 14.5784 15.2053C14.8201 15.2577 15.0672 15.5289 15.2854 15.5C16.6064 15.3247 17.3374 14.3883 18.1095 12.8439C18.5375 12.9315 19.0562 12.5635 19.3191 11.9584C19.6072 11.2954 19.4789 10.6007 19.0325 10.4068Z" fill="#F8B997"/>
<path d="M14.0428 10.3201C14.3235 10.3201 14.3239 9.88379 14.0428 9.88379C13.762 9.88379 13.7616 10.3201 14.0428 10.3201Z" fill="#38101B"/>
<path d="M16.9419 10.9492C17.2226 10.9492 17.2231 10.5129 16.9419 10.5129C16.6612 10.5129 16.6607 10.9492 16.9419 10.9492Z" fill="#38101B"/>
<path d="M15.077 9.39072C14.914 9.37705 14.7531 9.34507 14.5972 9.29538C14.5206 9.27221 14.4454 9.24581 14.3712 9.21743L14.2631 9.17457C14.2304 9.16119 14.1973 9.14914 14.1637 9.13843C14.028 9.09381 13.8879 9.06389 13.7458 9.04917C13.7094 9.04502 13.6726 9.04251 13.6352 9.03999C13.5958 9.03816 13.5548 9.03568 13.5145 9.03226C13.4318 9.0256 13.3498 9.01285 13.269 8.99413C13.3417 8.95414 13.4171 8.91957 13.4948 8.89067C13.5331 8.87647 13.5706 8.86279 13.6098 8.85051C13.6512 8.83776 13.6934 8.8278 13.7361 8.82068C13.91 8.79215 14.0882 8.8065 14.2553 8.86248C14.2968 8.87731 14.338 8.89283 14.3778 8.9117C14.4186 8.93156 14.4502 8.94781 14.4862 8.96742C14.5561 9.00533 14.625 9.04521 14.6925 9.08833C14.8316 9.17437 14.9606 9.27581 15.077 9.39072V9.39072Z" fill="#38101B"/>
<path d="M16.3894 9.69516C16.5491 9.65978 16.7123 9.6425 16.8759 9.64364C16.956 9.643 17.0355 9.64589 17.1148 9.65093C17.1558 9.65349 17.1912 9.65656 17.2363 9.66141C17.28 9.66659 17.3232 9.67539 17.3662 9.68489C17.5375 9.72636 17.696 9.80901 17.8281 9.92565C17.8605 9.9544 17.8909 9.98528 17.9192 10.0181C17.9459 10.0493 17.9703 10.0809 17.9952 10.1132C18.0456 10.179 18.0912 10.2485 18.1314 10.321C18.053 10.2938 17.9768 10.261 17.9033 10.2227C17.8673 10.2042 17.8313 10.1844 17.7969 10.165C17.7639 10.1473 17.7314 10.1298 17.6984 10.114C17.5702 10.0509 17.4357 10.0017 17.297 9.9673C17.2629 9.95855 17.2284 9.95112 17.1936 9.94501L17.0793 9.92383C17.0013 9.90838 16.9237 9.89078 16.8465 9.86964C16.688 9.82882 16.5347 9.77029 16.3894 9.69516Z" fill="#38101B"/>
<path d="M19.1209 11.7436C19.2614 11.3471 19.2464 10.98 19.0873 10.9236C18.9281 10.8671 18.6852 11.1428 18.5446 11.5392C18.404 11.9357 18.419 12.3028 18.5782 12.3593C18.7373 12.4157 18.9803 12.14 19.1209 11.7436Z" fill="#DD9176"/>
<path d="M12.3454 10.194C12.3818 9.77491 12.2749 9.42336 12.1067 9.40876C11.9385 9.39416 11.7726 9.72205 11.7363 10.1411C11.6999 10.5602 11.8068 10.9117 11.975 10.9263C12.1432 10.9409 12.3091 10.613 12.3454 10.194Z" fill="#DD9176"/>
<path d="M12.629 9.04175C12.6053 9.25568 12.5728 9.46644 12.5379 9.67646L12.4296 10.3046C12.4092 10.4087 12.3922 10.5134 12.3737 10.6177L12.319 10.9309C12.2844 11.1402 12.25 11.3489 12.2213 11.5622C12.1934 11.3485 12.1884 11.1324 12.2063 10.9176C12.2215 10.7035 12.2483 10.4904 12.2865 10.2791C12.3251 10.0683 12.3707 9.85899 12.4274 9.65244C12.4817 9.44484 12.5491 9.24087 12.629 9.04175V9.04175Z" fill="#DD9176"/>
<path d="M18.7851 10.3774C18.7754 10.5918 18.7521 10.8053 18.7155 11.0168C18.6815 11.2282 18.6363 11.4376 18.584 11.6455C18.5313 11.8536 18.4673 12.0587 18.3924 12.2599C18.3197 12.4628 18.2256 12.6573 18.1116 12.8402C18.174 12.6342 18.2291 12.43 18.2843 12.2252L18.3644 11.9175C18.3908 11.8149 18.4186 11.7126 18.4433 11.6094L18.605 10.9928C18.6603 10.7872 18.7181 10.582 18.7851 10.3774Z" fill="#DD9176"/>
<path d="M16.5796 10.6523C16.6168 10.5799 16.6757 10.5211 16.7481 10.484C16.8259 10.4423 16.9161 10.4302 17.002 10.4499C17.0867 10.4714 17.1615 10.5209 17.2143 10.5905C17.2378 10.6232 17.2582 10.6581 17.2751 10.6946C17.2882 10.732 17.298 10.7705 17.3044 10.8095C17.2736 10.787 17.2444 10.7624 17.2169 10.736C17.1874 10.7145 17.1614 10.6907 17.1339 10.6717C17.0845 10.6348 17.0285 10.6076 16.9689 10.5915C16.9091 10.578 16.8471 10.5778 16.7873 10.591C16.7166 10.6061 16.6472 10.6266 16.5796 10.6523V10.6523Z" fill="#38101B"/>
<path d="M13.6804 10.0234C13.7176 9.95101 13.7766 9.89215 13.849 9.85507C13.9267 9.81335 14.0169 9.80126 14.1028 9.82104C14.1875 9.84248 14.2624 9.89202 14.3152 9.96155C14.3386 9.99428 14.359 10.0292 14.3759 10.0657C14.389 10.1031 14.3988 10.1416 14.4052 10.1806C14.3745 10.1581 14.3452 10.1335 14.3177 10.1071C14.2882 10.0856 14.2622 10.0618 14.2347 10.0428C14.1853 10.0059 14.1293 9.97866 14.0697 9.96259C14.0099 9.94909 13.948 9.94892 13.8881 9.96209C13.8174 9.9772 13.748 9.99769 13.6804 10.0234V10.0234Z" fill="#38101B"/>
<path d="M20.0483 9.37122C20.0705 9.26959 20.0699 9.16433 20.0465 9.06297C20.0232 8.96161 19.9777 8.86667 19.9134 8.78496C19.9138 8.77659 19.9138 8.76846 19.9142 8.76012C20.0389 8.69694 20.142 8.59821 20.2105 8.47642C20.279 8.35463 20.3098 8.21526 20.2991 8.07593C20.2884 7.93661 20.2366 7.8036 20.1502 7.69373C20.0639 7.58387 19.9469 7.50208 19.8141 7.45872C19.8821 7.35101 19.9196 7.22686 19.9227 7.0995C19.9258 6.97214 19.8942 6.84633 19.8314 6.73547C19.7687 6.62462 19.677 6.53287 19.5662 6.46999C19.4554 6.40712 19.3296 6.37547 19.2022 6.37842C19.2038 6.37202 19.206 6.36591 19.2074 6.35942C19.2386 6.21592 19.2243 6.06625 19.1665 5.93126C19.1086 5.79626 19.0101 5.68267 18.8847 5.60629C18.7593 5.52991 18.6131 5.49456 18.4666 5.50515C18.3202 5.51574 18.1806 5.57175 18.0675 5.66538C18.0199 5.5672 17.9501 5.4814 17.8637 5.41476C17.7774 5.34812 17.6767 5.30244 17.5696 5.28133C17.4625 5.26023 17.3521 5.26426 17.2468 5.29313C17.1416 5.32199 17.0445 5.37489 16.9632 5.44766C16.9201 5.43678 16.8773 5.42658 16.8347 5.41703C16.8113 5.26938 16.7417 5.13297 16.6358 5.02747C16.5298 4.92197 16.3932 4.85284 16.2454 4.83003C16.0977 4.80723 15.9465 4.83194 15.8137 4.9006C15.6809 4.96926 15.5734 5.07832 15.5066 5.21205C15.4178 5.11978 15.3056 5.05337 15.182 5.01994C15.0584 4.9865 14.9281 4.98728 14.8049 5.0222C14.6817 5.05712 14.5703 5.12487 14.4826 5.2182C14.395 5.31153 14.3343 5.42693 14.3072 5.55206C14.3033 5.57022 14.3007 5.58832 14.2982 5.60642C14.1867 5.52793 14.0548 5.48345 13.9185 5.47835C13.7823 5.47325 13.6474 5.50775 13.5304 5.57768C13.4133 5.64761 13.319 5.74998 13.2589 5.87238C13.1987 5.99479 13.1754 6.132 13.1916 6.2674C13.0874 6.25975 12.9828 6.27539 12.8854 6.31319C12.788 6.35098 12.7003 6.40999 12.6285 6.48592C12.5567 6.56185 12.5028 6.6528 12.4705 6.75218C12.4383 6.85156 12.4286 6.95686 12.4421 7.06046C12.2987 7.16369 12.1993 7.31713 12.1638 7.49025C12.1283 7.66338 12.1593 7.84352 12.2505 7.99487C12.2486 8.00956 12.2464 8.0246 12.2446 8.03913C12.1509 8.10248 12.0738 8.18744 12.0198 8.28684C11.9658 8.38624 11.9366 8.49717 11.9344 8.61026C11.9323 8.72335 11.9575 8.83529 12.0077 8.93664C12.058 9.03798 12.1318 9.12575 12.2231 9.19254C12.2862 9.81251 12.4586 10.122 12.4586 10.122C12.4586 10.122 12.5211 9.78591 12.6501 9.32915C12.7771 9.32763 12.9013 9.29185 13.0097 9.22557C13.1181 9.15929 13.2066 9.06498 13.2658 8.95259C13.325 8.8402 13.3528 8.71391 13.3462 8.58704C13.3396 8.46017 13.2989 8.33744 13.2283 8.2318C13.3435 8.16076 13.4357 8.05795 13.4939 7.93574C13.552 7.81353 13.5736 7.67712 13.556 7.54292C13.6012 7.51055 13.6424 7.47297 13.6788 7.43095C13.7412 7.50113 13.817 7.55814 13.9017 7.59861C13.9865 7.63909 14.0785 7.66221 14.1723 7.66662C14.2661 7.67103 14.3598 7.65664 14.448 7.6243C14.5361 7.59195 14.6169 7.54231 14.6856 7.47828C14.803 7.56827 14.9458 7.61894 15.0936 7.62309C15.2414 7.62724 15.3868 7.58466 15.509 7.5014C15.5242 7.60224 15.561 7.69858 15.617 7.78379C15.673 7.86899 15.7468 7.94103 15.8334 7.99494C15.9199 8.04884 16.0171 8.08332 16.1183 8.096C16.2195 8.10868 16.3222 8.09926 16.4194 8.06839C16.3952 8.21595 16.4185 8.3674 16.4859 8.50086C16.5534 8.63433 16.6615 8.7429 16.7947 8.81091C16.9278 8.87892 17.0792 8.90285 17.2269 8.87924C17.3745 8.85563 17.5109 8.7857 17.6162 8.67955C17.6373 8.82137 17.701 8.9534 17.7989 9.0581C17.8969 9.1628 18.0244 9.23521 18.1645 9.26568C18.1328 9.41193 18.1483 9.56446 18.2089 9.70129C18.2694 9.83813 18.3719 9.9522 18.5014 10.0271C18.4314 10.1405 18.3949 10.2715 18.3965 10.4048C18.398 10.5382 18.4374 10.6683 18.5101 10.7801C18.4914 11.2079 18.4701 11.5478 18.4701 11.5478C18.4701 11.5478 18.6566 11.3528 18.8898 11.0695C18.9105 11.076 18.9316 11.0819 18.9533 11.0866C19.0968 11.1179 19.2465 11.1036 19.3815 11.0457C19.5165 10.9878 19.6302 10.8893 19.7065 10.7638C19.7829 10.6383 19.8182 10.4921 19.8075 10.3456C19.7969 10.1991 19.7408 10.0595 19.647 9.94643C19.6636 9.91149 19.679 9.87689 19.6932 9.84264C19.783 9.79443 19.8612 9.72731 19.9226 9.64592C19.9839 9.56453 20.0268 9.4708 20.0483 9.37122V9.37122Z" fill="#350313"/>
<path d="M13.7427 12.3523C13.7427 12.3523 15.8328 12.661 16.1997 12.9133C16.1997 12.9133 15.1459 13.3296 14.9411 13.2425C14.7364 13.1555 13.7427 12.3523 13.7427 12.3523Z" fill="#FDFFFF"/>
<path d="M13.7427 12.3523C13.7427 12.3523 14.1363 13.3514 14.8944 13.4403C15.6524 13.5292 16.1998 12.9133 16.1998 12.9133C15.775 13.0202 15.3309 13.0251 14.9039 12.9276C14.4769 12.8301 14.079 12.6329 13.7427 12.3523V12.3523Z" fill="#D7645D"/>
<path d="M13.7427 12.3522C13.7427 12.3522 14.648 12.1365 16.1997 12.9132C16.1997 12.9132 15.1078 12.6832 13.7427 12.3522Z" fill="#A75844"/>
<path d="M15.2168 11.9576C15.2124 12.0205 15.1954 12.0818 15.1669 12.1379C15.1393 12.1949 15.104 12.2478 15.062 12.2951C14.9749 12.3914 14.8675 12.4672 14.7476 12.5171C14.6275 12.5671 14.4992 12.5941 14.3691 12.5969C14.3373 12.5979 14.3054 12.5975 14.2733 12.5971C14.2519 12.5983 14.2332 12.598 14.2132 12.5983C14.1745 12.5961 14.133 12.6014 14.093 12.6005C13.9297 12.6086 13.7555 12.6208 13.5684 12.6359C13.4741 12.6412 13.3778 12.6499 13.2768 12.6568C13.2506 12.6575 13.226 12.6604 13.2002 12.6623C13.1733 12.6633 13.1487 12.6667 13.1218 12.6686C13.0942 12.6708 13.0702 12.6741 13.0413 12.6778C13.0284 12.6795 13.0151 12.6819 13.0007 12.6851C12.9865 12.6888 12.9727 12.694 12.9597 12.7007C12.9569 12.6846 12.9571 12.668 12.9603 12.652C12.9636 12.6366 12.9676 12.6201 12.9726 12.6034C12.9836 12.5736 12.9971 12.5448 13.0128 12.5172C13.0431 12.4637 13.0789 12.4136 13.1197 12.3677C13.1985 12.279 13.2897 12.2023 13.3905 12.1398C13.5946 12.0129 13.8281 11.9411 14.0682 11.9317C14.1308 11.9299 14.1934 11.9325 14.2556 11.9393C14.2867 11.9435 14.3192 11.947 14.349 11.9521C14.3681 11.9557 14.3873 11.9592 14.4066 11.964C14.4838 11.9812 14.5619 11.9942 14.6405 12.0031C14.8337 12.0259 15.0295 12.0104 15.2168 11.9576V11.9576Z" fill="#350313"/>
<path d="M15.153 11.9438C15.3016 12.0695 15.4734 12.1647 15.6587 12.224C15.7339 12.2486 15.8103 12.269 15.8877 12.2854C15.9073 12.289 15.9262 12.2938 15.9451 12.2985C15.9743 12.3062 16.0053 12.3164 16.0354 12.3256C16.0948 12.3451 16.1529 12.3687 16.2091 12.3963C16.4237 12.5044 16.6065 12.6664 16.7396 12.8665C16.8054 12.9652 16.8566 13.0728 16.8916 13.1862C16.9097 13.2449 16.9215 13.3053 16.9269 13.3665C16.9298 13.3981 16.9301 13.4299 16.9278 13.4616C16.9254 13.4789 16.9222 13.4955 16.9188 13.5109C16.9151 13.5269 16.9084 13.542 16.8992 13.5556C16.8901 13.5441 16.8797 13.5336 16.8683 13.5243C16.8566 13.5154 16.8454 13.5077 16.8344 13.5008C16.8096 13.4856 16.7892 13.4726 16.765 13.4591C16.7413 13.4462 16.7203 13.433 16.6963 13.4209C16.6735 13.4084 16.6524 13.3956 16.6288 13.3841C16.5397 13.336 16.4558 13.2882 16.3721 13.2442C16.2081 13.153 16.0546 13.0697 15.9094 12.9946C15.8726 12.9789 15.837 12.9569 15.8009 12.9428C15.7827 12.9343 15.7656 12.9268 15.7466 12.9168C15.7173 12.9039 15.6881 12.891 15.6595 12.877C15.5423 12.8205 15.4367 12.7427 15.3482 12.6475C15.2597 12.5524 15.1934 12.4388 15.154 12.3151C15.1354 12.2546 15.1252 12.1919 15.1237 12.1286C15.121 12.0657 15.131 12.0028 15.153 11.9438V11.9438Z" fill="#350313"/>
<path d="M15.9138 12.0169C15.6775 12.1711 15.3948 12.2382 15.1144 12.2065C15.1227 12.2098 15.131 12.2124 15.1394 12.2149L15.0882 12.2038C15.0969 12.205 15.1056 12.2061 15.1144 12.2065C14.8504 12.121 14.6238 11.9474 14.4727 11.7146L15.9138 12.0169Z" fill="#DD9176"/>
</svg>
