<svg width="20" height="20" viewBox="0 0 20 20" fill="none" xmlns="http://www.w3.org/2000/svg">
<g clip-path="url(#clip0_506_3554)">
<path d="M-0.261318 13.3369L-11.0897 17.7964L-10.3025 19.7078L0.525868 15.2484L-0.261318 13.3369Z" stroke="#87DBF6" stroke-width="3" stroke-miterlimit="10"/>
<path d="M-2.08554 10.3478L-4.15302 11.1992L-1.93627 16.5819L0.131207 15.7305L-2.08554 10.3478Z" stroke="#87DBF6" stroke-width="3" stroke-miterlimit="10"/>
<path d="M18.3812 6.0127H1.61874V17.1527H18.3812V6.0127Z" fill="#A7DB71"/>
<path d="M2.32901 4.90234L7.16651 20.0566" stroke="white" stroke-width="3" stroke-miterlimit="10"/>
<path d="M1.61887 15.518L7.7133 5.01709" stroke="white" stroke-width="3" stroke-miterlimit="10"/>
<path d="M11.485 4.90234L5.88684 19.9177" stroke="white" stroke-width="3" stroke-miterlimit="10"/>
<path d="M6.35092 7.36426L18.29 11.9056" stroke="white" stroke-width="3" stroke-miterlimit="10"/>
<path d="M16.504 5.01709L18.3814 19.6489" stroke="white" stroke-width="3" stroke-miterlimit="10"/>
<path d="M14.1103 5.04736L12.8478 20.0565" stroke="white" stroke-width="3" stroke-miterlimit="10"/>
<path d="M1.61887 20.0564L18.29 13.8525" stroke="white" stroke-width="3" stroke-miterlimit="10"/>
<path d="M15.187 19.7392L15.1604 19.7407L15.18 20.0563H4.77841L4.79794 19.7407L2.95419 19.6786C3.69091 15.9954 4.33974 13.8978 4.33974 13.8978C4.52841 12.7665 5.40067 12.4009 5.40067 12.4009L5.50341 12.3579L7.60068 11.4798L7.82763 11.3849C7.9561 11.3449 8.07599 11.2813 8.18114 11.1974C8.20301 11.1798 8.22411 11.1614 8.24442 11.1423C8.33598 11.0567 8.41198 10.9558 8.46903 10.8442C8.50812 10.7676 8.53776 10.6866 8.55731 10.6028H8.55771V10.6017C8.56005 10.5915 8.56239 10.5817 8.56434 10.5716C8.5663 10.5622 8.56825 10.5528 8.56981 10.5435C8.57215 10.5298 8.5745 10.5157 8.57645 10.5021C8.57762 10.4946 8.57841 10.4872 8.57919 10.4794C8.58036 10.4692 8.58153 10.4591 8.58231 10.4485C8.58348 10.4388 8.58387 10.429 8.58465 10.4192V10.4153C8.58543 10.4075 8.58582 10.3993 8.58582 10.3911C8.58621 10.379 8.5866 10.3665 8.5866 10.354V8.90869H11.2886V10.354C11.2886 10.5134 11.3239 10.6708 11.392 10.8149C11.46 10.9591 11.5592 11.0863 11.6823 11.1876C11.6905 11.1946 11.6987 11.2009 11.7069 11.2075C11.8088 11.2865 11.924 11.3466 12.0471 11.3849L14.2893 12.0829L15.037 12.3157C15.0729 12.3325 15.1081 12.3505 15.1425 12.3696C15.146 12.3716 15.1499 12.3735 15.1538 12.3759C15.9054 12.8075 16.1768 13.8126 16.1768 13.8126H16.1811C16.1811 13.8126 16.8304 15.9099 17.5671 19.5931L15.187 19.7392Z" fill="#ED9A72"/>
<path d="M9.61159 10.4463C10.5752 10.2783 11.2884 9.16198 11.2884 9.16198C11.2884 9.16198 10.3328 9.0833 9.73511 8.90918H8.58663V10.3543C8.58653 10.4377 8.57677 10.5208 8.55752 10.6019L8.5575 10.6035C8.5575 10.6035 8.648 10.6143 9.61159 10.4463Z" fill="#B86A55"/>
<path d="M17.6643 20.0567H2.33582L2.41941 19.6091C3.15613 15.9259 3.80535 13.8286 3.80535 13.8286C3.99363 12.697 4.86589 12.3313 4.86589 12.3313L5.53152 12.1243L7.60066 11.4802L7.85574 11.4009L8.82097 12.8454L8.98894 13.0966L9.91745 14.486L10.9264 13.0435L11.1964 12.6571L12.0753 11.4009L14.4514 12.1403L15.0651 12.3313C15.0913 12.3435 15.1171 12.3563 15.1425 12.37C15.146 12.372 15.1499 12.3739 15.1538 12.3763C15.9268 12.7985 16.205 13.8286 16.205 13.8286H16.2092C16.2092 13.8286 16.8585 15.9259 17.5952 19.6091L17.6643 20.0567Z" fill="#D2D3D5"/>
<path d="M15.2069 20.0564H4.80771L4.82607 19.7561L5.50341 12.358L5.52451 12.1264L5.53154 12.124L8.18115 11.1975L8.23427 11.1787L9.97451 11.6385L9.97646 11.6381L11.6823 11.1877L11.717 11.1787L14.2893 12.083L14.4514 12.14L15.187 19.7393L15.1886 19.7561L15.2069 20.0564Z" fill="#577FFF"/>
<path d="M8.34693 10.7803L8.23419 11.1791L8.93654 13.1735L9.97708 11.6387L8.34693 10.7803Z" fill="#D2D3D5"/>
<path d="M11.6045 10.7803L11.7172 11.1791L11.0149 13.1735L9.97433 11.6387L11.6045 10.7803Z" fill="#D2D3D5"/>
<path d="M9.08734 12.9511C9.08734 12.9511 10.028 13.4299 10.8641 12.9511L9.97434 11.6387L9.08734 12.9511Z" fill="#E25050"/>
<path d="M12.1892 5.80057C12.1294 5.79074 12.0682 5.79398 12.0098 5.81006C11.7573 4.37016 10.8559 3.31151 9.81513 3.34246C8.77142 3.37349 7.93265 4.48985 7.76947 5.94816C7.69844 5.9259 7.62283 5.92257 7.55012 5.93852C7.22973 6.01217 7.0587 6.45761 7.16809 6.93343C7.27366 7.3926 7.60174 7.71113 7.91249 7.66674C8.25224 8.79119 8.68994 9.65053 9.48358 9.77354C9.69692 9.8066 9.88171 9.67608 10.0505 9.67106C10.2175 9.66609 10.4236 9.80364 10.5619 9.74915C11.3994 9.41924 11.7261 8.68641 11.9808 7.54838C12.2757 7.53614 12.5558 7.21048 12.6296 6.77102C12.7106 6.28955 12.5134 5.85505 12.1892 5.80057Z" fill="#E9966E"/>
<path d="M9.49279 5.98975C9.38371 6.00732 9.27299 6.01256 9.16273 6.00536C9.10873 6.00265 9.05518 5.99757 9.00191 5.99105L8.92409 5.98054C8.90048 5.97709 8.87679 5.97459 8.85301 5.97303C8.75679 5.96588 8.66008 5.96907 8.56454 5.98255C8.54 5.98576 8.51548 5.9901 8.49055 5.99454C8.46443 5.99975 8.43714 6.0048 8.41017 6.00912C8.35491 6.0182 8.29906 6.0232 8.24307 6.02407C8.28417 5.98604 8.32802 5.95108 8.37426 5.9195C8.39702 5.90396 8.41936 5.88889 8.44308 5.87446C8.46813 5.85937 8.49417 5.84597 8.52101 5.83434C8.63036 5.78734 8.74953 5.76774 8.86818 5.77724C8.89777 5.7802 8.92734 5.78366 8.95648 5.78956C8.98642 5.79595 9.00982 5.80145 9.03661 5.80843C9.08857 5.82192 9.14025 5.83684 9.19148 5.85413C9.29669 5.88788 9.39776 5.93337 9.49279 5.98975V5.98975Z" fill="#38101B"/>
<path d="M11.5704 5.53857C11.4888 5.61308 11.3991 5.67816 11.3029 5.73259C11.2563 5.75993 11.2087 5.78504 11.1606 5.8088C11.1357 5.82108 11.114 5.83122 11.0859 5.84356C11.0586 5.85526 11.0303 5.86465 11.002 5.87357C10.8877 5.90698 10.7671 5.912 10.6504 5.88819C10.6218 5.88226 10.5936 5.87443 10.566 5.86475C10.5398 5.85544 10.5149 5.84522 10.4895 5.83463C10.4378 5.8131 10.3877 5.78779 10.3398 5.7589C10.3948 5.74837 10.4505 5.74192 10.5064 5.73959C10.5337 5.73833 10.5614 5.73773 10.5881 5.73753C10.6134 5.73681 10.6383 5.73608 10.6629 5.73423C10.7592 5.72802 10.8546 5.71149 10.9473 5.68493C10.9703 5.67856 10.993 5.67129 11.0154 5.66314L11.0895 5.63704C11.1403 5.61984 11.1917 5.60398 11.244 5.59036C11.3505 5.5609 11.46 5.54353 11.5704 5.53857V5.53857Z" fill="#38101B"/>
<path d="M12.4409 6.78548C12.4685 6.50271 12.3989 6.2645 12.2854 6.25341C12.1719 6.24233 12.0575 6.46257 12.0298 6.74533C12.0022 7.0281 12.0718 7.26631 12.1853 7.2774C12.2988 7.28848 12.4132 7.06824 12.4409 6.78548Z" fill="#B86A55"/>
<path d="M7.64751 7.29013C7.76016 7.27232 7.8155 7.03039 7.77113 6.74977C7.72676 6.46914 7.59947 6.25609 7.48683 6.2739C7.37418 6.29171 7.31884 6.53364 7.36321 6.81427C7.40758 7.09489 7.53487 7.30794 7.64751 7.29013Z" fill="#B86A55"/>
<path d="M7.76945 5.94824C7.78872 6.09234 7.80173 6.23578 7.81302 6.37914L7.84427 6.80852C7.84787 6.88011 7.85376 6.95145 7.85858 7.02289L7.87372 7.2371C7.88508 7.3799 7.8965 7.52231 7.91247 7.66682C7.85938 7.53127 7.8209 7.39044 7.79768 7.24673C7.77279 7.10389 7.75565 6.9598 7.74633 6.8151C7.73732 6.67062 7.73316 6.526 7.7367 6.38137C7.73851 6.23645 7.74945 6.09179 7.76945 5.94824V5.94824Z" fill="#B86A55"/>
<path d="M11.9984 5.94482C12.0269 6.08693 12.0465 6.23069 12.0569 6.37524C12.069 6.5194 12.0734 6.66401 12.073 6.80878C12.0723 6.95377 12.0638 7.09863 12.0474 7.2427C12.0328 7.38754 12.0027 7.5304 11.9578 7.66886C11.9652 7.52366 11.9681 7.38083 11.9709 7.2376L11.9733 7.02287C11.9739 6.95127 11.9755 6.8797 11.9749 6.80803L11.9805 6.37755C11.9833 6.23377 11.9878 6.08981 11.9984 5.94482Z" fill="#B86A55"/>
<path d="M11.3062 6.39365C11.2875 6.44534 11.2531 6.48988 11.2078 6.52098C11.1594 6.55565 11.1 6.57157 11.0407 6.56576C10.9822 6.55873 10.9277 6.53203 10.8863 6.49003C10.8678 6.47013 10.8511 6.44853 10.8366 6.42551C10.8246 6.40159 10.8147 6.37669 10.807 6.35107C10.8296 6.36351 10.8513 6.37744 10.872 6.39275C10.8937 6.4046 10.9131 6.41829 10.9332 6.42861C10.9695 6.44908 11.0094 6.46247 11.0507 6.46807C11.0919 6.47194 11.1334 6.46669 11.1723 6.45269C11.2184 6.43644 11.2631 6.41671 11.3062 6.39365V6.39365Z" fill="#B86A55"/>
<path d="M9.42246 8.6796C9.40726 8.62657 9.41139 8.56987 9.43413 8.51961C9.46913 8.43895 9.5409 8.40494 9.62427 8.35829C9.73778 8.29127 9.8478 8.21849 9.9539 8.14026C10.1265 8.01599 10.1452 7.96856 10.2881 7.89603C10.3833 7.8477 10.4464 7.81679 10.5265 7.82954C10.6771 7.85351 10.7555 8.01052 10.7665 8.03338C10.8636 8.23538 10.7496 8.45035 10.7237 8.49581C10.6034 8.707 10.3846 8.77339 10.2639 8.80998C9.92187 8.91371 9.48642 8.85676 9.42246 8.6796Z" fill="#C15856"/>
<path d="M10.689 8.54207C10.2794 8.4707 9.90123 8.60475 9.74487 8.85097C9.91884 8.87366 10.0956 8.85975 10.2639 8.81014C10.3749 8.77649 10.568 8.71617 10.692 8.54268C10.691 8.5425 10.69 8.54224 10.689 8.54207Z" fill="#D7645D"/>
<path d="M9.94037 7.43848C9.94775 7.48038 9.9466 7.52334 9.937 7.56479C9.9282 7.60661 9.91369 7.64701 9.89386 7.68486C9.85242 7.76218 9.79437 7.82936 9.72388 7.88159C9.65331 7.93389 9.57357 7.97253 9.48879 7.99552C9.46807 8.00132 9.44707 8.00625 9.42602 8.01123C9.41219 8.01551 9.39987 8.01835 9.38679 8.0218C9.36108 8.02669 9.3347 8.03691 9.30834 8.0428C9.20261 8.07472 9.0904 8.11107 8.97026 8.15137C8.90926 8.17021 8.8476 8.19163 8.78248 8.21254C8.76541 8.21729 8.74979 8.22318 8.73316 8.22863C8.71568 8.23372 8.70013 8.23991 8.68282 8.24555C8.66506 8.2515 8.64988 8.25758 8.63154 8.26465C8.62338 8.26787 8.61504 8.27163 8.60613 8.27608C8.59742 8.28081 8.58925 8.28648 8.58178 8.293C8.57733 8.28285 8.57478 8.27198 8.57425 8.26092C8.57388 8.25029 8.57383 8.23882 8.57441 8.22709C8.57677 8.20576 8.58089 8.18467 8.58672 8.16403C8.59787 8.12407 8.6132 8.0854 8.63246 8.04865C8.66965 7.9777 8.71696 7.91253 8.77289 7.85518C8.88597 7.73875 9.02739 7.65372 9.18325 7.60844C9.22397 7.5971 9.26543 7.58858 9.30733 7.58295C9.32841 7.5806 9.35027 7.57765 9.3706 7.57613C9.38373 7.57534 9.3969 7.5745 9.41035 7.57452C9.46375 7.57322 9.51704 7.56907 9.56999 7.56208C9.70036 7.54557 9.82621 7.50357 9.94037 7.43848V7.43848Z" fill="#350313"/>
<path d="M9.89634 7.43945C10.0142 7.49765 10.1423 7.53209 10.2734 7.54082C10.3267 7.54466 10.3801 7.54564 10.4335 7.54376C10.4469 7.54293 10.4601 7.54299 10.4733 7.543C10.4937 7.54331 10.5157 7.54496 10.5368 7.54605C10.579 7.54918 10.6209 7.55522 10.6622 7.56412C10.8205 7.60006 10.9667 7.67654 11.0865 7.78604C11.1458 7.83996 11.1968 7.90221 11.2382 7.97083C11.2596 8.00636 11.2772 8.04406 11.2907 8.08328C11.2978 8.10354 11.3031 8.12435 11.3067 8.1455C11.308 8.15718 11.3087 8.16863 11.3089 8.17926C11.309 8.19033 11.3071 8.20134 11.3033 8.21173C11.2955 8.20567 11.287 8.20049 11.278 8.19629C11.2688 8.19237 11.2603 8.18912 11.252 8.18639C11.2332 8.18042 11.2177 8.17525 11.1996 8.17038C11.182 8.16577 11.1661 8.16052 11.1484 8.15647C11.1314 8.15203 11.1155 8.14708 11.0982 8.14335C11.0319 8.12634 10.9691 8.10863 10.9071 8.09344C10.7848 8.06035 10.6706 8.03073 10.5632 8.00516C10.5365 8.00084 10.5096 7.9922 10.4836 7.98885C10.4703 7.98619 10.4579 7.98408 10.4438 7.98063C10.4225 7.97691 10.4013 7.97324 10.3802 7.96868C10.2942 7.95077 10.2123 7.91693 10.1388 7.86892C10.0653 7.82097 10.0034 7.75736 9.95741 7.68264C9.93537 7.64603 9.91848 7.60656 9.90722 7.56535C9.89517 7.52454 9.89147 7.48172 9.89634 7.43945V7.43945Z" fill="#350313"/>
<path d="M10.4069 7.36377C10.2771 7.50335 10.1027 7.59333 9.91376 7.61821C9.91968 7.61902 9.92559 7.61933 9.93149 7.61965L9.89615 7.6207C9.90203 7.62003 9.9079 7.61937 9.91376 7.61821C9.72677 7.60515 9.54996 7.52818 9.41299 7.40021L10.4069 7.36377Z" fill="#B86A55"/>
<path d="M11.0566 6.51733C11.2462 6.51733 11.2465 6.22266 11.0566 6.22266C10.867 6.22266 10.8667 6.51733 11.0566 6.51733Z" fill="#38101B"/>
<path d="M9.20662 6.39365C9.18798 6.44534 9.15359 6.48988 9.10829 6.52098C9.05985 6.55565 9.00047 6.57157 8.94118 6.56576C8.88262 6.55873 8.82819 6.53203 8.78679 6.49003C8.76823 6.47014 8.75158 6.44853 8.73708 6.42551C8.72509 6.40159 8.71519 6.37669 8.70749 6.35107C8.73005 6.36351 8.75176 6.37744 8.77248 6.39275C8.79411 6.4046 8.81356 6.41829 8.83362 6.42861C8.86994 6.44908 8.90981 6.46247 8.95112 6.46807C8.99232 6.47194 9.03386 6.46669 9.07279 6.45269C9.11884 6.43644 9.16358 6.41671 9.20662 6.39365V6.39365Z" fill="#B86A55"/>
<path d="M8.95705 6.51733C9.14666 6.51733 9.14697 6.22266 8.95705 6.22266C8.76744 6.22266 8.76713 6.51733 8.95705 6.51733Z" fill="#38101B"/>
<path d="M8.23493 4.86524C8.23493 4.86524 10.8152 5.27071 11.1839 4.39832C11.1839 4.39832 11.6631 4.39832 11.7736 5.30758C11.8842 6.21683 11.9334 6.59773 11.9334 6.59773C11.9334 6.59773 12.1791 6.37656 12.2651 5.33215C12.3511 4.28773 12.1791 3.85768 11.6262 3.89454C11.6262 3.89454 11.6999 2.99758 10.1272 3.12045C8.5544 3.24332 8.0752 3.47678 8.0752 3.86997C8.0752 4.26316 8.13663 4.65635 8.23493 4.86524Z" fill="#38101B"/>
<path d="M8.01378 3.87012C8.01378 3.87012 7.41171 4.06671 7.43628 4.73022C7.46085 5.39373 7.75575 6.59788 7.75575 6.59788C7.75575 6.59788 8.01378 5.04969 8.23495 4.86538C8.23495 4.86538 7.98921 4.16501 8.01378 3.87012Z" fill="#350313"/>
<path d="M12.1846 5.80545C12.1249 5.79563 12.0637 5.79887 12.0053 5.81495C11.7528 4.37504 10.8514 3.31639 9.81061 3.34734C8.7669 3.37838 7.92813 4.49474 7.76495 5.95305C7.69392 5.93078 7.61831 5.92745 7.5456 5.9434C7.22522 6.01705 7.05418 6.4625 7.16358 6.93831C7.26914 7.39748 7.59723 7.71601 7.90797 7.67162C8.24773 8.79607 8.68543 9.65541 9.47907 9.77842C9.6924 9.81148 9.87719 9.68096 10.046 9.67594C10.213 9.67097 10.4191 9.80852 10.5574 9.75403C11.3948 9.42412 11.7216 8.69129 11.9763 7.55326C12.2712 7.54102 12.5513 7.21536 12.6251 6.7759C12.706 6.29443 12.5088 5.85994 12.1846 5.80545Z" fill="#E9966E"/>
<path d="M9.48828 5.99415C9.37919 6.01172 9.26848 6.01696 9.15822 6.00975C9.10422 6.00704 9.05067 6.00196 8.99739 5.99545L8.91957 5.98494C8.89597 5.98148 8.87228 5.97898 8.8485 5.97743C8.75228 5.97028 8.65557 5.97347 8.56003 5.98695C8.53548 5.99015 8.51097 5.9945 8.48603 5.99893C8.45992 6.00415 8.43263 6.0092 8.40565 6.01352C8.3504 6.0226 8.29455 6.02759 8.23856 6.02847C8.27966 5.99043 8.32351 5.95548 8.36974 5.9239C8.39251 5.90836 8.41485 5.89329 8.43857 5.87885C8.46362 5.86376 8.48965 5.85036 8.51649 5.83874C8.62584 5.79174 8.74502 5.77213 8.86366 5.78163C8.89325 5.7846 8.92283 5.78806 8.95197 5.79395C8.98191 5.80034 9.00531 5.80584 9.0321 5.81283C9.08406 5.82631 9.13574 5.84124 9.18697 5.85852C9.29218 5.89228 9.39325 5.93777 9.48828 5.99415V5.99415Z" fill="#38101B"/>
<path d="M11.5659 5.54297C11.4843 5.61748 11.3945 5.68256 11.2984 5.73698C11.2517 5.76432 11.2042 5.78943 11.156 5.81319C11.1312 5.82548 11.1094 5.83562 11.0814 5.84796C11.0541 5.85965 11.0258 5.86904 10.9975 5.87796C10.8832 5.91137 10.7625 5.91639 10.6459 5.89258C10.6173 5.88666 10.5891 5.87882 10.5615 5.86914C10.5353 5.85983 10.5104 5.84962 10.4849 5.83902C10.4332 5.81749 10.3832 5.79217 10.3352 5.76329C10.3902 5.75277 10.4459 5.74631 10.5019 5.74398C10.5292 5.74273 10.5569 5.74213 10.5835 5.74192C10.6089 5.7412 10.6338 5.74047 10.6584 5.73862C10.7547 5.73241 10.8501 5.71588 10.9428 5.68932C10.9658 5.68295 10.9885 5.67568 11.0109 5.66754L11.085 5.64144C11.1358 5.62423 11.1872 5.60837 11.2395 5.59475C11.346 5.56529 11.4555 5.54792 11.5659 5.54297V5.54297Z" fill="#38101B"/>
<path d="M12.4364 6.79036C12.464 6.5076 12.3944 6.26938 12.2809 6.2583C12.1674 6.24721 12.053 6.46745 12.0254 6.75021C11.9977 7.03298 12.0674 7.27119 12.1809 7.28228C12.2944 7.29337 12.4088 7.07313 12.4364 6.79036Z" fill="#B86A55"/>
<path d="M7.643 7.29453C7.75564 7.27672 7.81099 7.03479 7.76661 6.75416C7.72224 6.47354 7.59495 6.26049 7.48231 6.2783C7.36967 6.29611 7.31432 6.53804 7.35869 6.81866C7.40307 7.09929 7.53035 7.31234 7.643 7.29453Z" fill="#B86A55"/>
<path d="M7.76496 5.95264C7.78423 6.09673 7.79724 6.24017 7.80854 6.38353L7.83978 6.81292C7.84338 6.8845 7.84927 6.95585 7.85409 7.02728L7.86924 7.24149C7.88059 7.3843 7.89201 7.52671 7.90798 7.67121C7.85489 7.53567 7.81641 7.39484 7.7932 7.25113C7.76831 7.10828 7.75117 6.96419 7.74184 6.8195C7.73283 6.67501 7.72868 6.53039 7.73221 6.38577C7.73402 6.24085 7.74496 6.09618 7.76496 5.95264V5.95264Z" fill="#B86A55"/>
<path d="M11.9939 5.94971C12.0224 6.09181 12.0419 6.23557 12.0524 6.38012C12.0645 6.52428 12.0689 6.66889 12.0685 6.81366C12.0678 6.95866 12.0592 7.10351 12.0429 7.24758C12.0283 7.39242 11.9982 7.53528 11.9533 7.67374C11.9606 7.52855 11.9636 7.38571 11.9664 7.24248L11.9688 7.02775C11.9694 6.95616 11.971 6.88459 11.9703 6.81291L11.976 6.38243C11.9788 6.23865 11.9832 6.0947 11.9939 5.94971Z" fill="#B86A55"/>
<path d="M11.3017 6.39853C11.283 6.45022 11.2486 6.49476 11.2033 6.52586C11.1549 6.56054 11.0955 6.57645 11.0362 6.57064C10.9777 6.56362 10.9232 6.53691 10.8818 6.49491C10.8633 6.47502 10.8466 6.45341 10.8321 6.43039C10.8201 6.40648 10.8102 6.38157 10.8025 6.35596C10.8251 6.3684 10.8468 6.38232 10.8675 6.39764C10.8891 6.40948 10.9086 6.42317 10.9286 6.43349C10.965 6.45396 11.0048 6.46735 11.0462 6.47296C11.0874 6.47682 11.1289 6.47157 11.1678 6.45757C11.2139 6.44132 11.2586 6.42159 11.3017 6.39853V6.39853Z" fill="#B86A55"/>
<path d="M9.41794 8.684C9.40274 8.63097 9.40688 8.57426 9.42961 8.524C9.46461 8.44335 9.53638 8.40933 9.61976 8.36269C9.73327 8.29566 9.84329 8.22289 9.94939 8.14465C10.122 8.02038 10.1406 7.97295 10.2836 7.90042C10.3788 7.85209 10.4419 7.82118 10.522 7.83394C10.6726 7.8579 10.751 8.01491 10.762 8.03777C10.8591 8.23977 10.7451 8.45474 10.7192 8.50021C10.5989 8.7114 10.38 8.77779 10.2594 8.81438C9.91735 8.91811 9.4819 8.86115 9.41794 8.684Z" fill="#C15856"/>
<path d="M10.6846 8.54646C10.2749 8.47509 9.89674 8.60915 9.74039 8.85537C9.91435 8.87805 10.0911 8.86414 10.2594 8.81453C10.3704 8.78089 10.5635 8.72056 10.6875 8.54707C10.6865 8.54689 10.6856 8.54663 10.6846 8.54646Z" fill="#D7645D"/>
<path d="M9.93586 7.44287C9.94323 7.48478 9.94208 7.52774 9.93248 7.56919C9.92369 7.611 9.90917 7.6514 9.88934 7.68925C9.8479 7.76657 9.78985 7.83375 9.71937 7.88598C9.64879 7.93828 9.56906 7.97693 9.48428 7.99992C9.46355 8.00572 9.44255 8.01064 9.42151 8.01562C9.40768 8.0199 9.39536 8.02275 9.38228 8.0262C9.35657 8.03108 9.33019 8.04131 9.30382 8.0472C9.19809 8.07911 9.08588 8.11546 8.96575 8.15577C8.90474 8.17461 8.84308 8.19602 8.77797 8.21694C8.76089 8.22169 8.74527 8.22758 8.72864 8.23302C8.71117 8.23811 8.69562 8.2443 8.6783 8.24995C8.66055 8.25589 8.64537 8.26197 8.62702 8.26905C8.61886 8.27226 8.61052 8.27602 8.60161 8.28047C8.5929 8.2852 8.58473 8.29087 8.57726 8.29739C8.57282 8.28725 8.57027 8.27637 8.56974 8.26531C8.56936 8.25469 8.56932 8.24321 8.56989 8.23148C8.57225 8.21016 8.57637 8.18907 8.58221 8.16842C8.59335 8.12846 8.60868 8.08979 8.62795 8.05305C8.66514 7.98209 8.71244 7.91692 8.76838 7.85957C8.88146 7.74314 9.02287 7.65811 9.17873 7.61283C9.21945 7.60149 9.26091 7.59298 9.30281 7.58735C9.3239 7.585 9.34575 7.58204 9.36609 7.58052C9.37921 7.57973 9.39239 7.57889 9.40584 7.57891C9.45923 7.57762 9.51252 7.57346 9.56547 7.56647C9.69584 7.54996 9.8217 7.50796 9.93586 7.44287V7.44287Z" fill="#350313"/>
<path d="M9.89185 7.44434C10.0097 7.50253 10.1378 7.53697 10.2689 7.5457C10.3222 7.54954 10.3756 7.55052 10.429 7.54864C10.4424 7.54782 10.4556 7.54787 10.4688 7.54788C10.4892 7.54819 10.5112 7.54984 10.5324 7.55093C10.5745 7.55406 10.6164 7.5601 10.6577 7.569C10.816 7.60495 10.9622 7.68142 11.082 7.79092C11.1413 7.84485 11.1924 7.9071 11.2337 7.97571C11.2551 8.01124 11.2727 8.04894 11.2862 8.08816C11.2933 8.10843 11.2986 8.12924 11.3023 8.15038C11.3035 8.16206 11.3042 8.17351 11.3044 8.18414C11.3046 8.19522 11.3027 8.20622 11.2988 8.21661C11.291 8.21055 11.2825 8.20537 11.2735 8.20117C11.2644 8.19726 11.2558 8.194 11.2475 8.19128C11.2287 8.18531 11.2132 8.18014 11.1951 8.17526C11.1775 8.17066 11.1616 8.1654 11.1439 8.16135C11.127 8.15691 11.111 8.15196 11.0937 8.14823C11.0275 8.13122 10.9646 8.11351 10.9026 8.09833C10.7803 8.06523 10.6661 8.03561 10.5587 8.01004C10.532 8.00572 10.5051 7.99708 10.4791 7.99374C10.4659 7.99107 10.4534 7.98896 10.4393 7.98551C10.418 7.98179 10.3968 7.97812 10.3757 7.97356C10.2897 7.95565 10.2079 7.92182 10.1343 7.8738C10.0608 7.82585 9.99889 7.76224 9.95292 7.68752C9.93088 7.65092 9.91399 7.61145 9.90273 7.57023C9.89068 7.52942 9.88698 7.48661 9.89185 7.44434V7.44434Z" fill="#350313"/>
<path d="M10.4024 7.36816C10.2726 7.50775 10.0982 7.59772 9.90925 7.6226C9.91517 7.62341 9.92107 7.62372 9.92698 7.62404L9.89163 7.62509C9.89751 7.62442 9.90339 7.62376 9.90925 7.6226C9.72226 7.60954 9.54544 7.53257 9.40848 7.4046L10.4024 7.36816Z" fill="#B86A55"/>
<path d="M11.0521 6.52221C11.2417 6.52221 11.242 6.22754 11.0521 6.22754C10.8625 6.22754 10.8622 6.52221 11.0521 6.52221Z" fill="#38101B"/>
<path d="M9.20211 6.39853C9.18346 6.45022 9.14907 6.49476 9.10378 6.52586C9.05534 6.56054 8.99595 6.57645 8.93666 6.57064C8.87811 6.56362 8.82368 6.53692 8.78228 6.49491C8.76371 6.47502 8.74707 6.45341 8.73256 6.43039C8.72058 6.40648 8.71068 6.38157 8.70297 6.35596C8.72554 6.36839 8.74725 6.38232 8.76797 6.39764C8.78959 6.40948 8.80905 6.42317 8.8291 6.43349C8.86542 6.45396 8.9053 6.46735 8.94661 6.47296C8.9878 6.47682 9.02934 6.47157 9.06828 6.45757C9.11432 6.44132 9.15906 6.42159 9.20211 6.39853V6.39853Z" fill="#B86A55"/>
<path d="M8.95257 6.52221C9.14218 6.52221 9.14249 6.22754 8.95257 6.22754C8.76296 6.22754 8.76264 6.52221 8.95257 6.52221Z" fill="#38101B"/>
<path d="M8.23041 4.86963C8.23041 4.86963 10.8107 5.27511 11.1793 4.40272C11.1793 4.40272 11.6585 4.40272 11.7691 5.31197C11.8797 6.22122 11.9289 6.60213 11.9289 6.60213C11.9289 6.60213 12.1746 6.38095 12.2606 5.33654C12.3466 4.29213 12.1746 3.86208 11.6217 3.89894C11.6217 3.89894 11.6954 3.00197 10.1226 3.12484C8.54988 3.24772 8.07068 3.48117 8.07068 3.87436C8.07068 4.26756 8.13211 4.66075 8.23041 4.86963Z" fill="#38101B"/>
<path d="M8.00926 3.87451C8.00926 3.87451 7.40719 4.07111 7.43176 4.73462C7.45634 5.39813 7.75123 6.60227 7.75123 6.60227C7.75123 6.60227 8.00926 5.05408 8.23043 4.86978C8.23043 4.86978 7.98469 4.1694 8.00926 3.87451Z" fill="#350313"/>
</g>
<defs>
<clipPath id="clip0_506_3554">
<rect width="20" height="20" fill="white"/>
</clipPath>
</defs>
</svg>
