<svg width="20" height="20" viewBox="0 0 20 20" fill="none" xmlns="http://www.w3.org/2000/svg">
<g clip-path="url(#clip0_506_3679)">
<path d="M18.3812 6.34863H1.61874V17.4887H18.3812V6.34863Z" fill="#FF7E84"/>
<path d="M12.2119 5.27281C12.1535 5.26141 12.0933 5.26281 12.0355 5.27689C11.8296 3.8555 10.9753 2.78955 9.95233 2.78955C8.92647 2.78955 8.07017 3.86135 7.86733 5.28869C7.79823 5.26475 7.72408 5.25927 7.65221 5.27281C7.33543 5.33578 7.15446 5.76823 7.248 6.23869C7.33825 6.69269 7.65114 7.01507 7.9576 6.98055C8.25841 8.09472 8.66315 8.95139 9.43894 9.09536C9.64747 9.13406 9.83275 9.01129 9.99865 9.01129C10.1628 9.01129 10.3612 9.15238 10.4986 9.10291C11.3306 8.80338 11.6729 8.09327 11.9563 6.98312C12.2462 6.97972 12.5308 6.66809 12.6161 6.23869C12.7097 5.76823 12.5287 5.33578 12.2119 5.27281Z" fill="#E9966E"/>
<path d="M8.93328 5.92183C9.11957 5.92183 9.11988 5.63232 8.93328 5.63232C8.747 5.63232 8.74669 5.92183 8.93328 5.92183Z" fill="#38101B"/>
<path d="M10.9019 5.92183C11.0882 5.92183 11.0885 5.63232 10.9019 5.63232C10.7156 5.63232 10.7153 5.92183 10.9019 5.92183Z" fill="#38101B"/>
<path d="M9.49808 5.06154C9.39465 5.09449 9.28783 5.11569 9.17966 5.12474C9.12679 5.12997 9.07402 5.13283 9.02131 5.13425L8.94417 5.13537C8.92073 5.13545 8.89735 5.13646 8.87402 5.13842C8.77949 5.14547 8.68599 5.16265 8.59512 5.18966C8.57174 5.19634 8.54855 5.20413 8.52497 5.21207C8.50036 5.22093 8.47458 5.22982 8.449 5.23794C8.39663 5.2548 8.34309 5.26779 8.28882 5.27679C8.32322 5.23385 8.36073 5.19351 8.40106 5.15609C8.42092 5.13768 8.44043 5.11978 8.46137 5.10231C8.48352 5.084 8.50686 5.06719 8.53125 5.05199C8.63065 4.9904 8.74359 4.95401 8.86026 4.94597C8.88944 4.94455 8.91867 4.9436 8.94785 4.94509C8.97787 4.94694 9.0014 4.94888 9.02845 4.95177C9.0809 4.9573 9.13328 4.96428 9.18557 4.97362C9.29271 4.99111 9.39754 5.02059 9.49808 5.06154V5.06154Z" fill="#38101B"/>
<path d="M10.3793 5.07092C10.4792 5.02846 10.5836 4.99738 10.6904 4.97828C10.7426 4.96814 10.7949 4.96037 10.8472 4.95404C10.8742 4.95074 10.8977 4.94844 10.9277 4.94614C10.9568 4.94421 10.9861 4.94471 11.0153 4.94569C11.1321 4.95196 11.2455 4.98664 11.3459 5.04671C11.3705 5.06154 11.3941 5.07799 11.4165 5.09596C11.4377 5.11312 11.4575 5.13071 11.4776 5.14882C11.5185 5.18563 11.5566 5.22539 11.5917 5.2678C11.5373 5.25963 11.4836 5.24746 11.4309 5.23139C11.4052 5.22366 11.3793 5.21517 11.3546 5.20668C11.3309 5.1991 11.3076 5.19166 11.2841 5.18533C11.1928 5.1597 11.0991 5.14395 11.0045 5.13833C10.9811 5.13676 10.9577 5.1361 10.9343 5.13634L10.8571 5.13639C10.8044 5.13577 10.7516 5.13371 10.6986 5.12929C10.5903 5.12188 10.4832 5.1023 10.3793 5.07092V5.07092Z" fill="#38101B"/>
<path d="M12.4574 6.12725C12.4928 5.85037 12.4314 5.61441 12.3202 5.6002C12.2091 5.586 12.0903 5.79894 12.0549 6.07582C12.0196 6.3527 12.081 6.58866 12.1921 6.60286C12.3032 6.61706 12.422 6.40412 12.4574 6.12725Z" fill="#B86A55"/>
<path d="M7.70842 6.60292C7.81956 6.58872 7.88097 6.35275 7.84559 6.07588C7.81021 5.799 7.69143 5.58606 7.58029 5.60026C7.46915 5.61446 7.40774 5.85043 7.44312 6.12731C7.4785 6.40418 7.59728 6.61712 7.70842 6.60292Z" fill="#B86A55"/>
<path d="M7.86734 5.28857C7.88206 5.43064 7.89064 5.57189 7.89755 5.713L7.9157 6.13558C7.91715 6.20599 7.92084 6.27622 7.92349 6.34651L7.93211 6.55731C7.93909 6.69788 7.94614 6.83807 7.95761 6.98044C7.90943 6.84578 7.87575 6.70636 7.85715 6.56455C7.83688 6.42355 7.82426 6.28155 7.81932 6.13918C7.8147 5.99703 7.81484 5.85488 7.82254 5.71296C7.82854 5.5707 7.8435 5.42896 7.86734 5.28857V5.28857Z" fill="#B86A55"/>
<path d="M12.0475 5.28857C12.0713 5.42896 12.0863 5.5707 12.0923 5.71296C12.1 5.85489 12.1001 5.99703 12.0955 6.13918C12.0906 6.28155 12.0779 6.42355 12.0577 6.56455C12.0391 6.70636 12.0054 6.84578 11.9572 6.98044C11.9687 6.83807 11.9757 6.69788 11.9827 6.55732L11.9913 6.34651C11.994 6.27622 11.9977 6.20599 11.9991 6.13558L12.0173 5.713C12.0242 5.57189 12.0328 5.43065 12.0475 5.28857Z" fill="#B86A55"/>
<path d="M8.68719 5.74941C8.71215 5.70782 8.74821 5.67402 8.79132 5.65179C8.83494 5.62835 8.88349 5.61555 8.933 5.61445C8.98328 5.6126 9.03312 5.62444 9.07719 5.64871C9.12044 5.67145 9.15599 5.70649 9.17935 5.74941C9.13119 5.73917 9.09168 5.72548 9.05121 5.72C9.01298 5.71264 8.97404 5.70958 8.93513 5.71089C8.8955 5.71184 8.85601 5.71586 8.817 5.72291C8.77616 5.73005 8.73439 5.73932 8.68719 5.74941Z" fill="#38101B"/>
<path d="M10.6349 5.74941C10.6598 5.70782 10.6959 5.67402 10.739 5.65179C10.7826 5.62835 10.8311 5.61555 10.8807 5.61445C10.9309 5.6126 10.9808 5.62444 11.0249 5.64871C11.0681 5.67145 11.1037 5.70649 11.127 5.74941C11.0789 5.73917 11.0393 5.72548 10.9989 5.72C10.9606 5.71264 10.9217 5.70958 10.8828 5.71089C10.8432 5.71184 10.8037 5.71586 10.7647 5.72291C10.7238 5.73005 10.6821 5.73932 10.6349 5.74941Z" fill="#38101B"/>
<path d="M9.11047 7.44404C9.11047 7.44404 9.82457 6.89932 10.7806 7.35669C10.7806 7.35669 10.0858 7.6125 9.11047 7.44404Z" fill="#A75844"/>
<path d="M9.11047 7.44428C9.11047 7.44428 9.54285 8.01066 10.0429 7.92999C10.5429 7.84932 10.7806 7.35693 10.7806 7.35693L9.11047 7.44428Z" fill="#D7645D"/>
<path d="M9.95574 6.81543C9.96176 6.8568 9.95938 6.89895 9.94874 6.93938C9.93888 6.98019 9.92345 7.01944 9.90287 7.05603C9.85991 7.13075 9.80095 7.19503 9.7302 7.24426C9.65937 7.29356 9.57994 7.32918 9.49601 7.34928C9.47548 7.35437 9.45472 7.3586 9.43391 7.36287C9.4202 7.36667 9.40802 7.3691 9.39508 7.37211C9.36968 7.37615 9.34348 7.38542 9.31742 7.39044C9.21266 7.41869 9.1014 7.45111 8.98225 7.48719C8.92179 7.5039 8.86061 7.52313 8.79605 7.54177C8.77915 7.54594 8.76364 7.55126 8.74714 7.55612C8.72984 7.56062 8.71439 7.56624 8.69722 7.57128C8.67961 7.5766 8.66453 7.58212 8.6463 7.58854C8.6382 7.59145 8.6299 7.5949 8.62102 7.59901C8.61232 7.6034 8.60413 7.60874 8.59661 7.61492C8.59254 7.60482 8.59035 7.59407 8.59016 7.58319C8.5901 7.57275 8.59039 7.56148 8.5913 7.54998C8.59424 7.5291 8.5989 7.50851 8.60523 7.48841C8.61734 7.44949 8.63353 7.41196 8.65352 7.37645C8.69212 7.30785 8.74047 7.24523 8.79707 7.19054C8.91153 7.07951 9.05288 7.00014 9.20726 6.96023C9.24759 6.95028 9.28855 6.94313 9.32985 6.93882C9.35064 6.93713 9.37218 6.93486 9.3922 6.93397C9.4051 6.93357 9.41807 6.93313 9.43127 6.93355C9.48375 6.93384 9.5362 6.93131 9.58841 6.92599C9.71692 6.91358 9.84173 6.87602 9.95574 6.81543V6.81543Z" fill="#350313"/>
<path d="M9.91245 6.81543C10.0265 6.87602 10.1513 6.91358 10.2798 6.92599C10.332 6.93131 10.3844 6.93383 10.4369 6.93355C10.4501 6.93313 10.4631 6.93357 10.476 6.93397C10.496 6.93486 10.5176 6.93713 10.5383 6.93882C10.5796 6.94312 10.6206 6.95028 10.6609 6.96022C10.8153 7.00014 10.9567 7.07951 11.0711 7.19054C11.1277 7.24523 11.1761 7.30785 11.2147 7.37644C11.2347 7.41196 11.2508 7.44949 11.263 7.48841C11.2693 7.50851 11.274 7.5291 11.2769 7.54997C11.2778 7.56148 11.2781 7.57275 11.278 7.58319C11.2778 7.59407 11.2756 7.60482 11.2716 7.61492C11.2641 7.60873 11.2559 7.6034 11.2472 7.59901C11.2383 7.5949 11.23 7.59145 11.2219 7.58854C11.2037 7.58212 11.1886 7.57659 11.171 7.57128C11.1538 7.56624 11.1384 7.56061 11.121 7.55612C11.1046 7.55126 11.089 7.54594 11.0721 7.54177C11.0076 7.52313 10.9464 7.5039 10.8859 7.48718C10.7668 7.45111 10.6555 7.41869 10.5508 7.39044C10.5247 7.38542 10.4985 7.37615 10.4731 7.37211C10.4602 7.3691 10.448 7.36666 10.4343 7.36287C10.4135 7.35859 10.3927 7.35437 10.3722 7.34928C10.2883 7.32918 10.2088 7.29356 10.138 7.24425C10.0672 7.19503 10.0083 7.13075 9.96532 7.05603C9.94474 7.01944 9.92931 6.98018 9.91945 6.93938C9.90881 6.89895 9.90643 6.8568 9.91245 6.81543V6.81543Z" fill="#350313"/>
<path d="M10.416 6.75586C10.2845 6.88914 10.1106 6.97241 9.92434 6.99132C9.93013 6.99229 9.93592 6.99277 9.94171 6.99325H9.90697C9.91276 6.99277 9.91855 6.99229 9.92434 6.99132C9.74109 6.97304 9.5697 6.89228 9.43893 6.76261L10.416 6.75586Z" fill="#B86A55"/>
<path d="M7.90213 6.07018C7.90213 6.07018 7.82473 3.48402 8.93843 3.66964C10.0521 3.85525 11.5892 4.26664 11.7147 4.66568C11.8326 5.04071 12.0011 6.14894 12.0011 6.14894C12.0011 6.14894 12.5916 5.27496 12.5185 4.74353C12.1968 2.40429 9.2036 2.17145 8.93843 2.72829C8.93843 2.72829 7.42698 3.31166 7.4535 4.45188C7.48002 5.59209 7.90213 6.07018 7.90213 6.07018Z" fill="#38101B"/>
<path d="M1.79166 3.66278C1.9212 4.77656 2.43147 6.26285 3.71022 6.4315C4.31737 6.51158 4.92785 6.36375 5.53318 6.3317C5.86027 6.31438 6.22699 6.30819 6.52119 6.47227C6.8293 6.64411 6.95151 7.00645 7.03727 7.32683C7.33212 8.42832 7.27515 9.72749 8.06676 10.6339C8.41628 11.034 8.94052 11.2855 9.46574 11.0896C9.98165 10.8973 10.3301 10.4142 10.6182 9.96988C11.3916 8.77715 12.3772 7.00172 14.0821 7.28982C14.1558 7.30229 14.1876 7.18938 14.1132 7.17682C12.8876 6.96969 11.8891 7.86806 11.2366 8.79883C10.8656 9.32816 10.571 9.92167 10.1526 10.4161C9.73716 10.907 9.13327 11.2526 8.51992 10.8722C7.4605 10.2152 7.45831 8.69635 7.2268 7.61612C7.1229 7.13132 6.9868 6.54313 6.48556 6.32395C5.95835 6.0934 5.29814 6.23073 4.74902 6.29014C4.05331 6.3654 3.29223 6.40267 2.77747 5.84042C2.25522 5.27 1.99637 4.41529 1.90885 3.66278C1.90024 3.58876 1.78295 3.58788 1.79166 3.66278Z" fill="white"/>
<path d="M18.6935 19.4472C18.5747 18.7931 18.3267 18.1524 17.9419 17.6075C17.6072 17.1336 17.1527 16.8462 16.5668 16.8159C15.921 16.7824 15.2916 16.9941 14.6529 17.049C14.2905 17.0802 13.8735 17.0847 13.5939 16.8148C13.3598 16.5886 13.2569 16.2495 13.1659 15.9462C12.8509 14.8967 12.7822 13.6271 11.9227 12.8401C11.5268 12.4775 10.9888 12.3143 10.4921 12.5717C9.99862 12.8274 9.69635 13.3453 9.43657 13.814C8.75336 15.0467 7.87501 16.7983 6.18667 16.6229C6.11174 16.6151 6.11228 16.7323 6.18667 16.74C7.42747 16.8689 8.36989 15.8828 8.95773 14.9109C9.28168 14.3753 9.53242 13.7869 9.90104 13.2795C10.2826 12.7543 10.87 12.3447 11.5191 12.6927C12.6026 13.2735 12.7143 14.7539 13.0039 15.8068C13.1335 16.2776 13.2962 16.8772 13.7927 17.0842C14.3282 17.3075 14.9961 17.1277 15.5421 17.032C16.2654 16.9051 17.0517 16.8136 17.6138 17.3899C18.1463 17.9359 18.4466 18.7412 18.5805 19.4784C18.594 19.5525 18.707 19.5211 18.6935 19.4472L18.6935 19.4472Z" fill="white"/>
<path d="M14.7883 1.39616C14.3162 1.8582 13.9471 2.41482 13.7052 3.02951C13.4919 3.58353 13.5057 4.13563 13.8201 4.6448C14.1039 5.1045 14.5235 5.46124 14.8875 5.85412C15.0883 6.07077 15.2919 6.30389 15.4176 6.57379C15.6106 6.98803 15.4474 7.36827 15.1985 7.71366C14.5315 8.63948 13.4714 9.37305 13.2022 10.539C13.0794 11.071 13.1686 11.6665 13.6501 11.9893C14.0995 12.2906 14.6962 12.2793 15.2129 12.2347C16.6463 12.111 18.6927 11.7601 19.5301 13.3068C19.5661 13.3731 19.6673 13.314 19.6313 13.2476C19.0425 12.16 17.7087 11.931 16.5826 11.9925C15.5784 12.0473 13.2422 12.6455 13.2664 10.9524C13.2839 9.72322 14.4331 8.86957 15.133 7.99134C15.49 7.54341 15.7858 7.05066 15.5037 6.48448C15.2625 6.00026 14.827 5.6269 14.4581 5.24262C14.025 4.79138 13.6025 4.264 13.6762 3.59841C13.7642 2.80532 14.32 2.02514 14.8712 1.47903C14.8816 1.46792 14.8872 1.45321 14.887 1.43801C14.8867 1.4228 14.8806 1.40829 14.8698 1.39754C14.8591 1.38679 14.8446 1.38064 14.8293 1.38038C14.8141 1.38012 14.7994 1.38578 14.7883 1.39616H14.7883Z" fill="white"/>
<path d="M10.9591 21.0904C11.2076 20.0292 11.2426 18.4726 10.1478 17.8685C9.70106 17.622 9.18644 17.5326 8.69687 17.4106C8.09508 17.2607 7.34 17.0651 7.26136 16.3387C7.18662 15.6482 7.41871 14.9264 7.52085 14.2482C7.61245 13.6401 7.64959 13.0023 7.42265 12.4178C7.2304 11.9226 6.83088 11.506 6.26971 11.5049C5.65978 11.5037 5.12637 11.9109 4.66705 12.2653C3.56861 13.113 2.07322 14.3296 0.621941 13.5112C0.60856 13.5039 0.592898 13.5022 0.578259 13.5063C0.56362 13.5104 0.551148 13.52 0.543476 13.5332C0.535803 13.5463 0.533529 13.5619 0.537133 13.5767C0.540737 13.5914 0.549938 13.6042 0.562794 13.6123C1.62649 14.2122 2.86135 13.7252 3.77911 13.0846C4.60209 12.5102 6.23082 10.7691 7.13807 12.1188C7.901 13.2537 7.20981 14.7573 7.14014 15.985C7.12525 16.2474 7.13838 16.5236 7.26236 16.7611C7.38769 17.0012 7.61909 17.154 7.85983 17.2626C8.31737 17.4691 8.81787 17.5519 9.30027 17.6789C9.87822 17.8311 10.4727 18.068 10.7399 18.646C11.074 19.3688 11.0231 20.3035 10.8461 21.0593C10.8289 21.1326 10.9419 21.1639 10.9591 21.0904Z" fill="white"/>
<path d="M17.4452 18.8093L15.2702 18.9421L15.2007 18.9464L15.0812 18.9538L15.1148 19.4956H4.86633L4.89367 19.053L4.89992 18.9538L4.89719 18.9542L4.82649 18.9632L3.60226 19.1171C4.3257 15.4983 4.03625 13.3675 4.03625 13.3675C4.20149 12.3772 4.78859 11.796 4.91516 11.6808C4.93078 11.6663 4.93937 11.6593 4.93937 11.6593L5.16867 11.5878L7.87687 10.7448C8.01832 10.7008 8.14899 10.6276 8.26047 10.53C8.26399 10.5269 8.26711 10.5241 8.27062 10.5206C8.43104 10.3762 8.54382 10.1864 8.59406 9.97646C8.59875 9.95615 8.60305 9.93584 8.60617 9.91553C8.60804 9.90769 8.60934 9.89972 8.61007 9.8917C8.61085 9.8874 8.61164 9.88311 8.61203 9.87842C8.61348 9.8708 8.61452 9.8631 8.61515 9.85537C8.61633 9.84521 8.6175 9.83506 8.61828 9.82451C8.61945 9.81514 8.62023 9.80537 8.62062 9.79561V9.79248C8.62141 9.78456 8.6218 9.77661 8.62179 9.76865C8.62218 9.75654 8.62257 9.74404 8.62257 9.73193V8.31201H11.2769V9.73193C11.2767 9.90547 11.3192 10.0764 11.4007 10.2296C11.4632 10.347 11.5471 10.4516 11.648 10.5382C11.6577 10.5468 11.6679 10.555 11.678 10.5632C11.7807 10.6443 11.8973 10.7059 12.0222 10.7448L14.9597 11.6593C15.7855 12.0413 16.0796 13.13 16.0796 13.13H16.0839C16.0839 13.13 16.7214 15.1905 17.4452 18.8093Z" fill="#ED9A72"/>
<path d="M9.62939 9.82218C10.5761 9.65717 11.2768 8.56038 11.2768 8.56038C11.2768 8.56038 10.3379 8.48308 9.75075 8.31201H8.6224V9.73176C8.62231 9.8137 8.61271 9.89536 8.59381 9.97509L8.59378 9.97657C8.59378 9.97657 8.6827 9.9872 9.62939 9.82218Z" fill="#B86A55"/>
<path d="M12.2016 5.28355C12.1432 5.27216 12.083 5.27355 12.0252 5.28764C11.8193 3.86624 10.9651 2.80029 9.94204 2.80029C8.91618 2.80029 8.05988 3.8721 7.85705 5.29943C7.78795 5.27549 7.71379 5.27002 7.64192 5.28355C7.32515 5.34653 7.14418 5.77897 7.23771 6.24943C7.32797 6.70343 7.64086 7.02581 7.94731 6.9913C8.24813 8.10546 8.65287 8.96214 9.42865 9.10611C9.63719 9.14481 9.82247 9.02203 9.98836 9.02203C10.1525 9.02203 10.3509 9.16313 10.4883 9.11365C11.3203 8.81412 11.6626 8.10401 11.946 6.99386C12.2359 6.99046 12.5205 6.67883 12.6058 6.24943C12.6994 5.77897 12.5184 5.34652 12.2016 5.28355Z" fill="#E9966E"/>
<path d="M8.923 5.93306C9.10928 5.93306 9.10959 5.64355 8.923 5.64355C8.73672 5.64355 8.73641 5.93306 8.923 5.93306Z" fill="#38101B"/>
<path d="M10.8916 5.93306C11.0779 5.93306 11.0782 5.64355 10.8916 5.64355C10.7053 5.64355 10.705 5.93306 10.8916 5.93306Z" fill="#38101B"/>
<path d="M9.48782 5.07228C9.38439 5.10523 9.27758 5.12643 9.1694 5.13549C9.11654 5.14071 9.06377 5.14357 9.01106 5.14499L8.93391 5.14611C8.91048 5.14619 8.8871 5.14721 8.86377 5.14916C8.76924 5.15621 8.67573 5.17339 8.58487 5.2004C8.56149 5.20709 8.5383 5.21488 8.51471 5.22281C8.4901 5.23168 8.46432 5.24056 8.43874 5.24868C8.38638 5.26555 8.33284 5.27853 8.27856 5.28753C8.31296 5.24459 8.35048 5.20425 8.39081 5.16683C8.41066 5.14842 8.43018 5.13053 8.45112 5.11305C8.47327 5.09474 8.49661 5.07793 8.521 5.06273C8.6204 5.00114 8.73334 4.96475 8.85 4.95671C8.87918 4.95529 8.90842 4.95434 8.93759 4.95583C8.96761 4.95768 8.99115 4.95962 9.0182 4.96251C9.07064 4.96804 9.12303 4.97502 9.17532 4.98437C9.28246 5.00185 9.38728 5.03134 9.48782 5.07228Z" fill="#38101B"/>
<path d="M10.369 5.08166C10.4689 5.0392 10.5733 5.00812 10.6802 4.98902C10.7323 4.97889 10.7846 4.97111 10.8369 4.96478C10.8639 4.96148 10.8874 4.95919 10.9174 4.95688C10.9466 4.95495 10.9758 4.95545 11.005 4.95643C11.1218 4.9627 11.2353 4.99738 11.3356 5.05745C11.3602 5.07228 11.3838 5.08873 11.4062 5.1067C11.4274 5.12386 11.4472 5.14145 11.4673 5.15956C11.5082 5.19637 11.5464 5.23614 11.5814 5.27854C11.527 5.27037 11.4733 5.2582 11.4207 5.24213C11.395 5.2344 11.369 5.22591 11.3443 5.21742C11.3206 5.20984 11.2973 5.2024 11.2738 5.19607C11.1825 5.17045 11.0888 5.15469 10.9942 5.14907C10.9708 5.14751 10.9474 5.14684 10.924 5.14708L10.8468 5.14713C10.7941 5.14651 10.7413 5.14445 10.6884 5.14003C10.5801 5.13262 10.4729 5.11305 10.369 5.08166V5.08166Z" fill="#38101B"/>
<path d="M12.4471 6.13799C12.4825 5.86111 12.4211 5.62515 12.3099 5.61095C12.1988 5.59674 12.08 5.80968 12.0447 6.08656C12.0093 6.36344 12.0707 6.5994 12.1818 6.61361C12.293 6.62781 12.4117 6.41487 12.4471 6.13799Z" fill="#B86A55"/>
<path d="M7.69813 6.61366C7.80927 6.59946 7.87069 6.3635 7.83531 6.08662C7.79993 5.80974 7.68115 5.5968 7.57001 5.611C7.45887 5.62521 7.39746 5.86117 7.43284 6.13805C7.46822 6.41492 7.58699 6.62787 7.69813 6.61366Z" fill="#B86A55"/>
<path d="M7.85706 5.29932C7.87178 5.44139 7.88036 5.58263 7.88727 5.72374L7.90542 6.14632C7.90686 6.21672 7.91056 6.28696 7.91321 6.35725L7.92182 6.56806C7.92881 6.70862 7.93586 6.84881 7.94732 6.99118C7.89914 6.85652 7.86547 6.7171 7.84687 6.57529C7.8266 6.43429 7.81397 6.29229 7.80904 6.14992C7.80442 6.00777 7.80455 5.86563 7.81225 5.72371C7.81826 5.58144 7.83322 5.4397 7.85706 5.29932Z" fill="#B86A55"/>
<path d="M12.0372 5.29932C12.061 5.4397 12.076 5.58144 12.082 5.72371C12.0897 5.86563 12.0898 6.00777 12.0852 6.14992C12.0803 6.29229 12.0676 6.43429 12.0474 6.57529C12.0288 6.7171 11.9951 6.85652 11.9469 6.99118C11.9584 6.84881 11.9654 6.70862 11.9724 6.56806L11.981 6.35725C11.9837 6.28696 11.9874 6.21673 11.9888 6.14632L12.007 5.72374C12.0139 5.58263 12.0225 5.44139 12.0372 5.29932Z" fill="#B86A55"/>
<path d="M8.67691 5.76015C8.70186 5.71856 8.73792 5.68476 8.78103 5.66254C8.82466 5.63909 8.8732 5.6263 8.92272 5.62519C8.973 5.62334 9.02284 5.63519 9.06691 5.65945C9.11016 5.68219 9.14571 5.71723 9.16907 5.76015C9.12091 5.74991 9.0814 5.73622 9.04092 5.73075C9.00269 5.72338 8.96375 5.72032 8.92484 5.72164C8.88522 5.72258 8.84572 5.7266 8.80672 5.73366C8.76588 5.74079 8.72411 5.75006 8.67691 5.76015Z" fill="#38101B"/>
<path d="M10.6246 5.76015C10.6495 5.71856 10.6856 5.68476 10.7287 5.66254C10.7723 5.63909 10.8209 5.6263 10.8704 5.62519C10.9207 5.62334 10.9705 5.63519 11.0146 5.65945C11.0578 5.68219 11.0934 5.71723 11.1167 5.76015C11.0686 5.74991 11.0291 5.73622 10.9886 5.73075C10.9504 5.72338 10.9114 5.72032 10.8725 5.72164C10.8329 5.72258 10.7934 5.7266 10.7544 5.73366C10.7135 5.74079 10.6718 5.75006 10.6246 5.76015Z" fill="#38101B"/>
<path d="M9.10022 7.45478C9.10022 7.45478 9.81432 6.91007 10.7703 7.36743C10.7703 7.36743 10.0755 7.62324 9.10022 7.45478Z" fill="#A75844"/>
<path d="M9.10022 7.45502C9.10022 7.45502 9.5326 8.02141 10.0326 7.94074C10.5327 7.86006 10.7703 7.36768 10.7703 7.36768L9.10022 7.45502Z" fill="#D7645D"/>
<path d="M9.94545 6.82617C9.95147 6.86754 9.94909 6.9097 9.93844 6.95012C9.92859 6.99093 9.91316 7.03018 9.89258 7.06677C9.84962 7.14149 9.79065 7.20577 9.71991 7.255C9.64908 7.3043 9.56965 7.33992 9.48572 7.36002C9.46519 7.36511 9.44443 7.36934 9.42362 7.37361C9.40991 7.37741 9.39774 7.37984 9.38479 7.38285C9.35939 7.3869 9.33319 7.39616 9.30713 7.40118C9.20237 7.42943 9.09111 7.46186 8.97196 7.49793C8.9115 7.51464 8.85032 7.53387 8.78576 7.55251C8.76886 7.55668 8.75335 7.56201 8.73685 7.56687C8.71955 7.57136 8.7041 7.57698 8.68693 7.58202C8.66932 7.58734 8.65424 7.59287 8.63602 7.59928C8.62791 7.60219 8.61961 7.60564 8.61073 7.60975C8.60203 7.61414 8.59384 7.61948 8.58632 7.62566C8.58225 7.61557 8.58007 7.60481 8.57987 7.59393C8.57981 7.58349 8.5801 7.57222 8.58101 7.56072C8.58395 7.53985 8.58861 7.51925 8.59494 7.49915C8.60705 7.46023 8.62324 7.4227 8.64323 7.38719C8.68183 7.31859 8.73018 7.25597 8.78679 7.20129C8.90124 7.09025 9.04259 7.01088 9.19698 6.97097C9.2373 6.96102 9.27826 6.95387 9.31957 6.94956C9.34035 6.94787 9.36189 6.94561 9.38191 6.94471C9.39482 6.94431 9.40778 6.94387 9.42099 6.94429C9.47346 6.94458 9.52591 6.94205 9.57812 6.93673C9.70663 6.92433 9.83144 6.88676 9.94545 6.82617Z" fill="#350313"/>
<path d="M9.90217 6.82617C10.0162 6.88676 10.141 6.92433 10.2695 6.93673C10.3217 6.94205 10.3742 6.94458 10.4266 6.94429C10.4398 6.94387 10.4528 6.94431 10.4657 6.94471C10.4857 6.94561 10.5073 6.94787 10.5281 6.94956C10.5694 6.95386 10.6103 6.96102 10.6506 6.97097C10.805 7.01088 10.9464 7.09025 11.0608 7.20128C11.1174 7.25597 11.1658 7.31859 11.2044 7.38719C11.2244 7.4227 11.2406 7.46023 11.2527 7.49915C11.259 7.51925 11.2637 7.53984 11.2666 7.56072C11.2675 7.57222 11.2678 7.58349 11.2677 7.59393C11.2676 7.60481 11.2654 7.61557 11.2613 7.62566C11.2538 7.61948 11.2456 7.61414 11.2369 7.60975C11.228 7.60564 11.2197 7.60219 11.2116 7.59928C11.1934 7.59287 11.1783 7.58734 11.1607 7.58202C11.1435 7.57698 11.1281 7.57136 11.1108 7.56687C11.0943 7.562 11.0788 7.55668 11.0618 7.55251C10.9973 7.53387 10.9361 7.51464 10.8757 7.49792C10.7565 7.46185 10.6452 7.42943 10.5405 7.40118C10.5144 7.39616 10.4882 7.3869 10.4628 7.38285C10.4499 7.37984 10.4377 7.37741 10.424 7.37361C10.4032 7.36933 10.3824 7.36511 10.3619 7.36002C10.278 7.33992 10.1985 7.3043 10.1277 7.255C10.057 7.20577 9.99799 7.14149 9.95504 7.06677C9.93446 7.03018 9.91902 6.99093 9.90917 6.95012C9.89853 6.90969 9.89615 6.86754 9.90217 6.82617V6.82617Z" fill="#350313"/>
<path d="M10.4058 6.7666C10.2742 6.89988 10.1004 6.98315 9.91408 7.00207C9.91987 7.00303 9.92566 7.00351 9.93145 7.004H9.89671C9.9025 7.00351 9.90829 7.00303 9.91408 7.00207C9.73083 6.98378 9.55945 6.90303 9.42868 6.77335L10.4058 6.7666Z" fill="#B86A55"/>
<path d="M17.5718 19.4956H2.42804L2.55616 18.8093C3.27999 15.1905 3.91789 13.13 3.91789 13.13C4.07765 12.1718 4.73625 11.7726 4.91515 11.6808C4.94367 11.6663 4.96007 11.6593 4.96007 11.6593L5.16867 11.5878L8.26046 10.53L8.26906 10.5269L9.94679 10.9698L9.97882 10.9784L9.98077 10.978L9.99835 10.9733L11.648 10.5382L11.6909 10.5269L14.9804 11.6593C15.8062 12.0413 16.0999 13.13 16.0999 13.13H16.1046C16.1046 13.13 16.7421 15.1905 17.4659 18.8093L17.5718 19.4956Z" fill="#E8E9EA"/>
<path d="M8.37982 10.1353L8.26907 10.5271L8.95911 12.4865L9.98142 10.9787L8.37982 10.1353Z" fill="#D2D3D5"/>
<path d="M11.5803 10.1353L11.691 10.5271L11.001 12.4865L9.97867 10.9787L11.5803 10.1353Z" fill="#D2D3D5"/>
<path d="M10.5511 19.4955H9.07803L9.63741 12.1166L10.2815 12.0107L10.2855 12.124L10.5511 19.4955Z" fill="#577FFF"/>
<path d="M9.29813 11.9304C9.29813 11.9304 10.0381 12.5322 10.6134 11.8808L9.97122 10.9336L9.29813 11.9304Z" fill="#577FFF"/>
<path d="M4.97023 16.7588L4.89719 18.9545L4.89367 19.0533L4.87922 19.4959H4.79172L4.82648 18.9635L4.97023 16.7588Z" fill="#D2D3D5"/>
<path d="M15.3062 19.4959H15.2187L15.2007 18.9467L15.1277 16.7588L15.2702 18.9424L15.3062 19.4959Z" fill="#D2D3D5"/>
<path d="M12.006 15.1992H13.8434C13.8434 15.1992 13.2951 15.9635 12.006 15.1992Z" fill="#D2D3D5"/>
<path d="M7.89184 6.08092C7.89184 6.08092 7.81445 3.49476 8.92815 3.68038C10.0418 3.86599 11.5789 4.27739 11.7044 4.67642C11.8223 5.05146 11.9908 6.15969 11.9908 6.15969C11.9908 6.15969 12.5813 5.2857 12.5082 4.75427C12.1866 2.41504 9.19332 2.18219 8.92815 2.73904C8.92815 2.73904 7.4167 3.3224 7.44322 4.46262C7.46973 5.60283 7.89184 6.08092 7.89184 6.08092Z" fill="#38101B"/>
</g>
<defs>
<clipPath id="clip0_506_3679">
<rect width="20" height="20" fill="white"/>
</clipPath>
</defs>
</svg>
