<svg width="20" height="20" viewBox="0 0 20 20" fill="none" xmlns="http://www.w3.org/2000/svg">
<g clip-path="url(#clip0_506_3626)">
<path d="M18.3812 5.99219H1.61874V17.1322H18.3812V5.99219Z" fill="#C3EDFB"/>
<path d="M15.2594 6.57324H0.971863V8.75986H15.2594V6.57324Z" stroke="#87DBF6" stroke-width="3" stroke-miterlimit="10"/>
<path d="M16.6094 4.28809H13.6562V14.2162H16.6094V4.28809Z" stroke="#87DBF6" stroke-width="3" stroke-miterlimit="10"/>
<path d="M19.2812 11.8926H11.8807V12.9363H19.2812V11.8926Z" stroke="#87DBF6" stroke-width="3" stroke-miterlimit="10"/>
<path d="M7.80502 9.98926H5.75076V12.9365H7.80502V9.98926Z" stroke="#87DBF6" stroke-width="3" stroke-miterlimit="10"/>
<path d="M10.4074 16.9023H5.10623V20.6148H10.4074V16.9023Z" stroke="#87DBF6" stroke-width="3" stroke-miterlimit="10"/>
<path d="M2.91249 12.4146H1.1828V20.8255H2.91249V12.4146Z" stroke="#87DBF6" stroke-width="3" stroke-miterlimit="10"/>
<path d="M19.5765 18.7583H7.86581V20.8255H19.5765V18.7583Z" stroke="#87DBF6" stroke-width="3" stroke-miterlimit="10"/>
<path d="M11.344 4.49902H9.61685V9.43496H11.344V4.49902Z" stroke="#87DBF6" stroke-width="3" stroke-miterlimit="10"/>
<path d="M19.0281 15.2998H16.7922V21.1211H19.0281V15.2998Z" stroke="#87DBF6" stroke-width="3" stroke-miterlimit="10"/>
<path d="M11.8807 13.6958H9.49603V17.7458H11.8807V13.6958Z" stroke="#87DBF6" stroke-width="3" stroke-miterlimit="10"/>
<path d="M10.0672 11.8926H7.21561V14.4028H10.0672V11.8926Z" stroke="#87DBF6" stroke-width="3" stroke-miterlimit="10"/>
<path d="M12.3788 5.82131C12.3156 5.80898 12.2505 5.81049 12.1879 5.82573C11.9652 4.28797 11.041 3.13477 9.93424 3.13477C8.8244 3.13477 7.89801 4.29431 7.67857 5.83849C7.60381 5.81259 7.52358 5.80667 7.44583 5.82131C7.10312 5.88944 6.90734 6.35729 7.00853 6.86625C7.10617 7.35742 7.44467 7.7062 7.77622 7.66885C8.10166 8.87423 8.53953 9.80103 9.37882 9.95679C9.60443 9.99866 9.80488 9.86583 9.98435 9.86583C10.1619 9.86583 10.3766 10.0185 10.5252 9.96495C11.4254 9.6409 11.7957 8.87266 12.1023 7.67163C12.4159 7.66795 12.7237 7.33081 12.8161 6.86625C12.9173 6.35728 12.7215 5.88944 12.3788 5.82131Z" fill="#E9966E"/>
<path d="M12.6444 6.74569C12.6827 6.44615 12.6162 6.19087 12.496 6.1755C12.3758 6.16014 12.2473 6.39051 12.209 6.69005C12.1707 6.98959 12.2372 7.24488 12.3574 7.26024C12.4776 7.27561 12.6061 7.04523 12.6444 6.74569Z" fill="#B86A55"/>
<path d="M7.50665 7.26053C7.62689 7.24517 7.69333 6.98989 7.65505 6.69034C7.61678 6.3908 7.48828 6.16043 7.36804 6.17579C7.2478 6.19116 7.18136 6.44644 7.21964 6.74598C7.25791 7.04553 7.38641 7.2759 7.50665 7.26053Z" fill="#B86A55"/>
<path d="M7.67859 5.83887C7.69452 5.99257 7.70381 6.14537 7.71127 6.29804L7.73091 6.75521C7.73247 6.83138 7.73647 6.90736 7.73934 6.98341L7.74866 7.21147C7.75622 7.36354 7.76384 7.51521 7.77625 7.66924C7.72412 7.52355 7.68769 7.37272 7.66757 7.2193C7.64564 7.06675 7.63198 6.91313 7.62664 6.75911C7.62165 6.60532 7.62179 6.45154 7.63012 6.298C7.63662 6.14409 7.65281 5.99074 7.67859 5.83887V5.83887Z" fill="#B86A55"/>
<path d="M12.2009 5.83887C12.2267 5.99074 12.2429 6.14409 12.2494 6.298C12.2577 6.45154 12.2578 6.60532 12.2528 6.75911C12.2475 6.91313 12.2338 7.06675 12.2119 7.2193C12.1918 7.37272 12.1554 7.52355 12.1032 7.66924C12.1156 7.51521 12.1233 7.36354 12.1308 7.21147L12.1401 6.98341C12.143 6.90736 12.147 6.83138 12.1486 6.75521L12.1682 6.29804C12.1757 6.14537 12.185 5.99257 12.2009 5.83887Z" fill="#B86A55"/>
<path d="M8.47015 6.25244C8.51558 6.21735 8.56668 6.19031 8.62124 6.17249C8.6751 6.1539 8.73121 6.1426 8.78806 6.13889C8.84634 6.13403 8.90501 6.13972 8.96127 6.15568C9.01965 6.17014 9.07125 6.20432 9.10734 6.25244C9.05519 6.24119 9.00193 6.23595 8.94859 6.23679C8.89781 6.23611 8.84663 6.23969 8.79486 6.24303C8.68694 6.25311 8.57848 6.25625 8.47015 6.25244V6.25244Z" fill="#38101B"/>
<path d="M9.29452 6.52365C9.49606 6.52365 9.49639 6.21045 9.29452 6.21045C9.09299 6.21045 9.09266 6.52365 9.29452 6.52365Z" fill="#38101B"/>
<path d="M10.7339 6.25244C10.7793 6.21735 10.8304 6.19031 10.885 6.17249C10.9389 6.1539 10.995 6.14259 11.0518 6.13888C11.1101 6.13403 11.1688 6.13972 11.225 6.15568C11.2834 6.17014 11.335 6.20432 11.3711 6.25244C11.319 6.2412 11.2657 6.23595 11.2124 6.23679C11.1616 6.23611 11.1104 6.23969 11.0586 6.24303C10.9507 6.25311 10.8422 6.25625 10.7339 6.25244V6.25244Z" fill="#38101B"/>
<path d="M11.4201 6.52365C11.6217 6.52365 11.622 6.21045 11.4201 6.21045C11.2186 6.21045 11.2183 6.52365 11.4201 6.52365Z" fill="#38101B"/>
<path d="M8.08359 6.2208C8.2101 6.16602 8.34256 6.12618 8.4783 6.10209C8.54529 6.08923 8.61294 6.08002 8.68158 6.07376C8.75236 6.06675 8.82359 6.06552 8.89457 6.07007C9.02243 6.0794 9.15717 6.08954 9.28981 6.10805C9.42569 6.12508 9.55974 6.15439 9.69033 6.19563C9.55872 6.23532 9.42328 6.26099 9.28627 6.2722C9.15043 6.28541 9.01374 6.28739 8.87758 6.27812C8.81889 6.27287 8.7536 6.2728 8.68845 6.27121C8.62308 6.26982 8.55681 6.26825 8.49005 6.26529C8.35362 6.26098 8.21772 6.24611 8.08359 6.2208V6.2208Z" fill="#38101B"/>
<path d="M10.2029 6.24619C10.3295 6.19141 10.4619 6.15157 10.5977 6.12748C10.6646 6.11462 10.7323 6.10541 10.8009 6.09915C10.8717 6.09214 10.9429 6.09091 11.0139 6.09546C11.1418 6.10479 11.2765 6.11493 11.4092 6.13344C11.545 6.15047 11.6791 6.17978 11.8097 6.22101C11.6781 6.26071 11.5426 6.28638 11.4056 6.29758C11.2698 6.3108 11.1331 6.31279 10.9969 6.30351C10.9382 6.29826 10.873 6.29819 10.8078 6.29661C10.7424 6.29522 10.6762 6.29365 10.6094 6.29068C10.473 6.28637 10.3371 6.2715 10.2029 6.24619Z" fill="#38101B"/>
<path d="M9.69034 5.66016C9.72178 5.69725 9.74536 5.74034 9.75964 5.78682C9.77429 5.83222 9.78244 5.87948 9.78384 5.92717C9.78522 5.97551 9.77885 6.02376 9.76497 6.07008C9.75104 6.11757 9.72537 6.16078 9.69034 6.19574C9.68589 6.14528 9.68561 6.102 9.68371 6.05842L9.6795 5.92984C9.67825 5.88696 9.67787 5.84375 9.6788 5.79931C9.6794 5.75271 9.68326 5.70622 9.69034 5.66016V5.66016Z" fill="#B86A55"/>
<path d="M11.8097 5.69287C11.8411 5.72996 11.8647 5.77305 11.879 5.81953C11.8937 5.86494 11.9018 5.91219 11.9032 5.95989C11.9046 6.00822 11.8982 6.05647 11.8843 6.1028C11.8704 6.15028 11.8447 6.1935 11.8097 6.22845C11.8052 6.178 11.805 6.13472 11.8031 6.09113L11.7989 5.96256C11.7976 5.91968 11.7972 5.87646 11.7982 5.83203C11.7988 5.78543 11.8026 5.73893 11.8097 5.69287Z" fill="#B86A55"/>
<path d="M7.7107 6.78388C7.7107 6.78388 7.62697 3.98601 8.83184 4.18682C10.0367 4.38763 11.6996 4.8327 11.8354 5.26441C11.963 5.67014 12.1452 6.86909 12.1452 6.86909C12.1452 6.86909 12.7775 5.9288 12.762 5.34866C12.685 2.46778 9.11872 2.56599 8.83184 3.16842C8.83184 3.16842 7.19666 3.79955 7.22535 5.0331C7.25404 6.26666 7.7107 6.78388 7.7107 6.78388Z" fill="#350313"/>
<path d="M8.55286 4.19709C8.55286 4.19709 9.19922 4.78534 9.88973 4.96074C9.88973 4.96074 9.33651 4.55216 9.27559 4.26785C9.21467 3.98354 8.55286 4.19709 8.55286 4.19709Z" fill="#350313"/>
<path d="M9.0853 4.19709C9.0853 4.19709 9.73166 4.78534 10.4222 4.96074C10.4222 4.96074 9.86895 4.55216 9.80803 4.26785C9.74711 3.98354 9.0853 4.19709 9.0853 4.19709Z" fill="#350313"/>
<path d="M9.612 4.19709C9.612 4.19709 10.2584 4.78534 10.9489 4.96074C10.9489 4.96074 10.3957 4.55216 10.3347 4.26785C10.2738 3.98354 9.612 4.19709 9.612 4.19709Z" fill="#350313"/>
<path d="M9.77918 8.20909C9.77918 8.20909 9.66642 8.5872 9.77918 8.79278C9.89193 8.99837 10.1725 8.972 10.2333 8.79277C10.3038 8.58524 10.202 8.16211 10.202 8.16211L9.77918 8.20909Z" fill="#38101B"/>
<path d="M10.8927 8.27908C10.8927 8.27908 10.3897 7.6949 9.85482 7.81383C9.31993 7.93276 9.09454 8.47965 9.09454 8.47965L10.8927 8.27908Z" fill="#D7645D"/>
<path d="M9.93791 7.49023C9.94443 7.53499 9.94186 7.5806 9.93034 7.62433C9.91968 7.66848 9.90298 7.71094 9.88072 7.75053C9.83425 7.83136 9.77045 7.90091 9.69392 7.95416C9.61728 8.0075 9.53135 8.04604 9.44055 8.06779C9.41835 8.07329 9.39589 8.07786 9.37337 8.08248C9.35854 8.08659 9.34537 8.08923 9.33136 8.09248C9.30388 8.09686 9.27554 8.10688 9.24734 8.11232C9.134 8.14288 9.01364 8.17796 8.88473 8.21698C8.81932 8.23507 8.75314 8.25587 8.6833 8.27604C8.66501 8.28054 8.64823 8.2863 8.63039 8.29156C8.61166 8.29642 8.59494 8.30251 8.57637 8.30796C8.55733 8.31371 8.541 8.31969 8.52129 8.32663C8.51251 8.32978 8.50354 8.33351 8.49394 8.33796C8.48453 8.34271 8.47567 8.34848 8.46753 8.35517C8.46313 8.34425 8.46076 8.33262 8.46055 8.32084C8.46048 8.30955 8.4608 8.29736 8.46178 8.28491C8.46496 8.26233 8.47 8.24005 8.47686 8.21831C8.48996 8.1762 8.50747 8.1356 8.5291 8.09717C8.57085 8.02297 8.62317 7.95522 8.68441 7.89605C8.74497 7.83672 8.81319 7.78573 8.88725 7.74445C8.96295 7.70153 9.04394 7.66873 9.12817 7.64688C9.17179 7.63612 9.21611 7.62838 9.2608 7.62372C9.28328 7.62189 9.30658 7.61945 9.32824 7.61847C9.34221 7.61804 9.35623 7.61757 9.37052 7.61802C9.42729 7.61833 9.48404 7.6156 9.54052 7.60984C9.67955 7.59642 9.81458 7.55578 9.93791 7.49023V7.49023Z" fill="#350313"/>
<path d="M9.89111 7.49023C10.0145 7.55578 10.1495 7.59642 10.2885 7.60984C10.345 7.6156 10.4017 7.61833 10.4585 7.61802C10.4728 7.61757 10.4868 7.61805 10.5008 7.61847C10.5224 7.61945 10.5457 7.62189 10.5682 7.62372C10.6129 7.62838 10.6572 7.63612 10.7009 7.64688C10.7851 7.66873 10.8661 7.70153 10.9418 7.74445C11.0158 7.78573 11.0841 7.83672 11.1446 7.89606C11.2059 7.95522 11.2582 8.02297 11.2999 8.09718C11.3216 8.1356 11.3391 8.1762 11.3522 8.21831C11.359 8.24006 11.3641 8.26233 11.3672 8.28491C11.3682 8.29736 11.3685 8.30955 11.3685 8.32085C11.3683 8.33262 11.3659 8.34425 11.3615 8.35517C11.3534 8.34848 11.3445 8.34271 11.3351 8.33796C11.3255 8.33351 11.3165 8.32978 11.3077 8.32663C11.288 8.31969 11.2717 8.31371 11.2527 8.30796C11.2341 8.30251 11.2174 8.29643 11.1986 8.29157C11.1808 8.28631 11.164 8.28055 11.1457 8.27604C11.0759 8.25587 11.0097 8.23507 10.9443 8.21698C10.8154 8.17796 10.695 8.14288 10.5817 8.11232C10.5535 8.10689 10.5251 8.09686 10.4977 8.09249C10.4837 8.08923 10.4705 8.0866 10.4557 8.08249C10.4331 8.07787 10.4107 8.07329 10.3885 8.06779C10.2977 8.04604 10.2117 8.0075 10.1351 7.95417C10.0586 7.9009 9.99478 7.83136 9.94831 7.75053C9.92604 7.71095 9.90934 7.66848 9.89868 7.62433C9.88717 7.5806 9.8846 7.53499 9.89111 7.49023V7.49023Z" fill="#350313"/>
<path d="M10.4359 7.42578C10.2936 7.56997 10.1055 7.66006 9.90398 7.68052C9.91025 7.68156 9.91651 7.68209 9.92278 7.68261H9.88519C9.89146 7.68209 9.89772 7.68156 9.90398 7.68052C9.70573 7.66074 9.52032 7.57338 9.37885 7.43309L10.4359 7.42578Z" fill="#B86A55"/>
<path d="M18.0234 20.2944H1.95978C2.72931 16.4819 3.39962 14.3151 3.39962 14.3151C3.60001 13.1124 4.52696 12.7241 4.52696 12.7241L6.98595 11.9589L6.98751 11.9585L7.70509 11.7351C7.85281 11.6892 7.98969 11.6139 8.10743 11.5136L8.10783 11.5132C8.11564 11.5065 8.12267 11.5003 8.13009 11.4937C8.30445 11.3374 8.42685 11.1316 8.48087 10.9038C8.48876 10.8714 8.49489 10.8385 8.49923 10.8054C8.50124 10.7945 8.50267 10.7836 8.50353 10.7726C8.50627 10.7519 8.50822 10.7308 8.50939 10.7097C8.51017 10.6995 8.51056 10.689 8.51095 10.6784C8.51134 10.6655 8.51173 10.6522 8.51173 10.639V9.10303H11.3832V10.639C11.3831 10.806 11.4194 10.971 11.4898 11.1225C11.5601 11.2739 11.6626 11.4082 11.7902 11.5159C11.7992 11.5233 11.8082 11.5308 11.8172 11.5378L11.8176 11.5382C11.8197 11.54 11.8219 11.5417 11.8242 11.5433C11.9334 11.6289 12.0573 11.6939 12.1899 11.7351L13.1551 12.0355L13.1567 12.0358L15.3676 12.7241C15.374 12.7269 15.3802 12.7301 15.3863 12.7335C15.3973 12.7386 15.4078 12.7437 15.4184 12.7487C16.2731 13.1827 16.5793 14.3151 16.5793 14.3151H16.584C16.584 14.3151 17.2543 16.4819 18.0234 20.2944Z" fill="#ED9A72"/>
<path d="M9.60098 10.7368C10.6252 10.5583 11.3832 9.37173 11.3832 9.37173C11.3832 9.37173 10.3675 9.2881 9.73227 9.10303H8.51156V10.639C8.51145 10.7276 8.50107 10.816 8.48062 10.9022L8.48059 10.9039C8.48059 10.9039 8.57679 10.9153 9.60098 10.7368Z" fill="#B86A55"/>
<path d="M12.3838 5.82668C12.3206 5.81435 12.2554 5.81586 12.1929 5.8311C11.9702 4.29335 11.046 3.14014 9.93922 3.14014C8.82938 3.14014 7.90298 4.29968 7.68354 5.84386C7.60878 5.81796 7.52855 5.81204 7.4508 5.82668C7.1081 5.89481 6.91231 6.36266 7.0135 6.87163C7.11115 7.36279 7.44965 7.71157 7.78119 7.67423C8.10663 8.8796 8.54451 9.8064 9.3838 9.96216C9.6094 10.004 9.80985 9.8712 9.98933 9.8712C10.1669 9.8712 10.3815 10.0238 10.5302 9.97032C11.4303 9.64627 11.8007 8.87803 12.1072 7.677C12.4209 7.67332 12.7287 7.33618 12.8211 6.87163C12.9223 6.36266 12.7265 5.89481 12.3838 5.82668Z" fill="#E9966E"/>
<path d="M12.6494 6.75106C12.6877 6.45152 12.6212 6.19624 12.501 6.18087C12.3807 6.16551 12.2522 6.39588 12.214 6.69542C12.1757 6.99497 12.2421 7.25025 12.3624 7.26561C12.4826 7.28098 12.6111 7.0506 12.6494 6.75106Z" fill="#B86A55"/>
<path d="M7.51156 7.26541C7.6318 7.25005 7.69824 6.99477 7.65996 6.69523C7.62169 6.39568 7.49319 6.16531 7.37295 6.18068C7.25271 6.19604 7.18627 6.45132 7.22455 6.75086C7.26282 7.0504 7.39132 7.28078 7.51156 7.26541Z" fill="#B86A55"/>
<path d="M7.68353 5.84375C7.69946 5.99745 7.70875 6.15025 7.71622 6.30292L7.73585 6.76009C7.73742 6.83626 7.74142 6.91225 7.74428 6.98829L7.75361 7.21635C7.76116 7.36843 7.76878 7.52009 7.78119 7.67412C7.72907 7.52843 7.69264 7.3776 7.67251 7.22418C7.65059 7.07163 7.63692 6.91801 7.63159 6.76398C7.62659 6.6102 7.62673 6.45642 7.63506 6.30288C7.64156 6.14897 7.65775 5.99562 7.68353 5.84375Z" fill="#B86A55"/>
<path d="M12.2059 5.84375C12.2317 5.99562 12.2478 6.14897 12.2543 6.30288C12.2627 6.45642 12.2628 6.6102 12.2578 6.76398C12.2525 6.91801 12.2388 7.07163 12.2169 7.22418C12.1968 7.3776 12.1603 7.52843 12.1082 7.67412C12.1206 7.52009 12.1282 7.36843 12.1358 7.21635L12.1451 6.98829C12.148 6.91225 12.152 6.83626 12.1536 6.76009L12.1732 6.30292C12.1807 6.15025 12.1899 5.99745 12.2059 5.84375Z" fill="#B86A55"/>
<path d="M8.47513 6.25732C8.52055 6.22223 8.57166 6.19519 8.62622 6.17737C8.68008 6.15878 8.73618 6.14748 8.79304 6.14377C8.85131 6.13892 8.90999 6.14461 8.96624 6.16057C9.02463 6.17503 9.07623 6.2092 9.11232 6.25732C9.06017 6.24608 9.00691 6.24083 8.95357 6.24168C8.90279 6.24099 8.85161 6.24458 8.79984 6.24791C8.69192 6.25799 8.58346 6.26113 8.47513 6.25732V6.25732Z" fill="#38101B"/>
<path d="M9.2995 6.52902C9.50103 6.52902 9.50136 6.21582 9.2995 6.21582C9.09797 6.21582 9.09763 6.52902 9.2995 6.52902Z" fill="#38101B"/>
<path d="M10.7389 6.25732C10.7843 6.22223 10.8354 6.19519 10.89 6.17737C10.9438 6.15878 10.9999 6.14748 11.0568 6.14377C11.1151 6.13892 11.1737 6.14461 11.23 6.16057C11.2884 6.17503 11.34 6.2092 11.3761 6.25732C11.3239 6.24608 11.2707 6.24083 11.2173 6.24168C11.1665 6.24099 11.1154 6.24458 11.0636 6.24791C10.9557 6.25799 10.8472 6.26113 10.7389 6.25732Z" fill="#38101B"/>
<path d="M11.4251 6.52902C11.6266 6.52902 11.627 6.21582 11.4251 6.21582C11.2236 6.21582 11.2232 6.52902 11.4251 6.52902Z" fill="#38101B"/>
<path d="M8.08856 6.22617C8.21507 6.17139 8.34754 6.13155 8.48328 6.10746C8.55026 6.0946 8.61792 6.08539 8.68655 6.07913C8.75733 6.07212 8.82857 6.07089 8.89955 6.07544C9.02741 6.08478 9.16214 6.09491 9.29479 6.11342C9.43066 6.13045 9.56472 6.15977 9.6953 6.201C9.56369 6.2407 9.42825 6.26636 9.29124 6.27757C9.15541 6.29079 9.01871 6.29277 8.88255 6.28349C8.82386 6.27824 8.75858 6.27817 8.69343 6.27659C8.62806 6.2752 8.56178 6.27363 8.49504 6.27066C8.3586 6.26636 8.2227 6.25148 8.08856 6.22617V6.22617Z" fill="#38101B"/>
<path d="M10.2079 6.25108C10.3344 6.19629 10.4669 6.15645 10.6026 6.13236C10.6696 6.11951 10.7373 6.11029 10.8059 6.10403C10.8767 6.09702 10.9479 6.09579 11.0189 6.10035C11.1468 6.10968 11.2815 6.11981 11.4141 6.13832C11.55 6.15535 11.6841 6.18466 11.8147 6.22589C11.683 6.26559 11.5476 6.29126 11.4106 6.30246C11.2748 6.31569 11.1381 6.31767 11.0019 6.30839C10.9432 6.30314 10.8779 6.30307 10.8128 6.30149C10.7474 6.30009 10.6811 6.29853 10.6144 6.29556C10.478 6.29125 10.3421 6.27638 10.2079 6.25108Z" fill="#38101B"/>
<path d="M9.69531 5.66553C9.72676 5.70262 9.75034 5.74571 9.76463 5.79219C9.77927 5.8376 9.78741 5.88485 9.78881 5.93254C9.7902 5.98088 9.78383 6.02913 9.76995 6.07545C9.75601 6.12294 9.73035 6.16615 9.69531 6.20111C9.69087 6.15066 9.69058 6.10737 9.68869 6.06379L9.68448 5.93521C9.68322 5.89234 9.68285 5.84911 9.68377 5.80468C9.68438 5.75809 9.68823 5.71159 9.69531 5.66553V5.66553Z" fill="#B86A55"/>
<path d="M11.8147 5.69775C11.8461 5.73485 11.8697 5.77794 11.884 5.82442C11.8986 5.86982 11.9068 5.91708 11.9082 5.96477C11.9096 6.01311 11.9032 6.06136 11.8893 6.10768C11.8754 6.15517 11.8497 6.19838 11.8147 6.23334C11.8102 6.18289 11.8099 6.13961 11.808 6.09602L11.8038 5.96744C11.8026 5.92457 11.8022 5.88134 11.8031 5.83691C11.8037 5.79031 11.8076 5.74381 11.8147 5.69775V5.69775Z" fill="#B86A55"/>
<path d="M18.0402 20.2941H1.98047C2.74883 16.4875 3.41836 14.3242 3.41836 14.3242C3.61875 13.1215 4.5457 12.7332 4.5457 12.7332L6.81093 12.0281L6.8125 12.0277L7.72383 11.7441L8.23984 12.5164L8.44843 12.8285L8.74883 13.2773L8.74922 13.2785L8.92773 13.5461L9.42344 14.2875L9.91484 15.023L10.4242 14.2945L10.9875 13.4898L11.2746 13.0793L11.5293 12.7152L11.8141 12.3082L12.2086 11.7441L13.1812 12.0469H13.1816L15.3863 12.7332C15.3973 12.7383 15.4078 12.7434 15.4184 12.7484C16.2875 13.1746 16.598 14.3242 16.598 14.3242H16.6027C16.6027 14.3242 17.2723 16.4875 18.0402 20.2941Z" fill="#3F3F3F"/>
<path d="M8.12396 11.5068L8.58642 15.5305L9.97834 18.2112L11.7848 14.5157L11.8248 11.5068L9.97541 11.997L8.12396 11.5068Z" fill="#E8E9EA"/>
<path d="M9.61442 13.2771L8.91348 16.9846L9.97833 18.2111L10.7297 17.3435L10.3111 13.1626L9.61442 13.2771Z" fill="#577FFF"/>
<path d="M8.24563 11.0845L8.12582 11.5085L8.87235 13.6283L9.97832 11.9969L8.24563 11.0845Z" fill="#D2D3D5"/>
<path d="M11.7081 11.0845L11.8279 11.5085L11.0814 13.6283L9.9754 11.9969L11.7081 11.0845Z" fill="#D2D3D5"/>
<path d="M9.24722 13.0755C9.24722 13.0755 10.0478 13.7265 10.6702 13.0218L9.97542 11.9971L9.24722 13.0755Z" fill="#577FFF"/>
<path d="M8.12396 11.5068L6.7678 12.0455L6.35748 13.1606L7.59777 13.4465L6.7678 14.5133L9.97835 18.2112C9.97835 18.2112 8.82554 14.5136 8.12396 11.5068Z" fill="#595959"/>
<path d="M11.8248 11.5068L13.1809 12.0455L13.5913 13.1606L12.351 13.4465L13.1809 14.5133L9.97833 18.2112C9.97833 18.2112 11.1232 14.5136 11.8248 11.5068Z" fill="#595959"/>
<path d="M4.35904 20.2889L4.56486 18.2988L4.56755 20.2993L4.35904 20.2889Z" fill="#595959"/>
<path d="M15.5512 20.2996L15.5543 18.2988L15.7597 20.2887L15.5512 20.2996Z" fill="#595959"/>
<path d="M7.71568 6.78876C7.71568 6.78876 7.63195 3.99089 8.83682 4.19171C10.0417 4.39252 11.7046 4.83759 11.8403 5.26929C11.9679 5.67502 12.1502 6.87398 12.1502 6.87398C12.1502 6.87398 12.7825 5.93368 12.767 5.35355C12.69 2.47267 9.12369 2.57087 8.83682 3.17331C8.83682 3.17331 7.20164 3.80443 7.23032 5.03798C7.25901 6.27154 7.71568 6.78876 7.71568 6.78876Z" fill="#350313"/>
<path d="M8.55783 4.20197C8.55783 4.20197 9.20419 4.79022 9.8947 4.96562C9.8947 4.96562 9.34149 4.55704 9.28056 4.27273C9.21964 3.98842 8.55783 4.20197 8.55783 4.20197Z" fill="#350313"/>
<path d="M9.09027 4.20197C9.09027 4.20197 9.73663 4.79022 10.4271 4.96562C10.4271 4.96562 9.87393 4.55704 9.813 4.27273C9.75208 3.98842 9.09027 4.20197 9.09027 4.20197Z" fill="#350313"/>
<path d="M9.61697 4.20197C9.61697 4.20197 10.2633 4.79022 10.9538 4.96562C10.9538 4.96562 10.4006 4.55704 10.3397 4.27273C10.2788 3.98842 9.61697 4.20197 9.61697 4.20197Z" fill="#350313"/>
<path d="M9.78415 8.21397C9.78415 8.21397 9.6714 8.59208 9.78415 8.79766C9.89691 9.00325 10.1774 8.97688 10.2383 8.79765C10.3088 8.59012 10.207 8.16699 10.207 8.16699L9.78415 8.21397Z" fill="#38101B"/>
<path d="M10.8977 8.28445C10.8977 8.28445 10.3947 7.70027 9.8598 7.8192C9.3249 7.93813 9.09952 8.48502 9.09952 8.48502L10.8977 8.28445Z" fill="#D7645D"/>
<path d="M9.94289 7.49561C9.94941 7.54036 9.94683 7.58597 9.93532 7.6297C9.92465 7.67385 9.90796 7.71631 9.8857 7.7559C9.83922 7.83673 9.77543 7.90628 9.69889 7.95953C9.62226 8.01287 9.53633 8.05141 9.44553 8.07316C9.42333 8.07866 9.40087 8.08323 9.37834 8.08786C9.36351 8.09196 9.35034 8.0946 9.33634 8.09785C9.30887 8.10223 9.28051 8.11226 9.25231 8.11768C9.13898 8.14825 9.01862 8.18332 8.88971 8.22235C8.82429 8.24044 8.75811 8.26124 8.68827 8.2814C8.66999 8.28591 8.65321 8.29168 8.63536 8.29694C8.61664 8.30179 8.59991 8.30788 8.58135 8.31333C8.5623 8.31908 8.54597 8.32506 8.52626 8.332C8.5175 8.33515 8.50851 8.33888 8.49891 8.34333C8.4895 8.34808 8.48065 8.35385 8.47251 8.36054C8.4681 8.34962 8.46573 8.33799 8.46552 8.32621C8.46546 8.31492 8.46577 8.30273 8.46675 8.29028C8.46994 8.2677 8.47498 8.24542 8.48183 8.22367C8.49494 8.18157 8.51245 8.14097 8.53407 8.10254C8.57583 8.02833 8.62815 7.96059 8.68938 7.90142C8.74995 7.84208 8.81817 7.7911 8.89223 7.74982C8.96792 7.7069 9.04892 7.6741 9.13314 7.65225C9.17677 7.64149 9.22108 7.63375 9.26577 7.62909C9.28825 7.62726 9.31156 7.62481 9.33322 7.62384C9.34719 7.62341 9.36121 7.62294 9.37549 7.62339C9.43226 7.6237 9.48901 7.62097 9.54549 7.61521C9.68452 7.60179 9.81955 7.56115 9.94289 7.49561V7.49561Z" fill="#350313"/>
<path d="M9.89608 7.49561C10.0194 7.56115 10.1545 7.60179 10.2935 7.61521C10.35 7.62097 10.4067 7.6237 10.4635 7.62339C10.4778 7.62294 10.4918 7.62342 10.5058 7.62384C10.5274 7.62481 10.5507 7.62727 10.5732 7.62909C10.6179 7.63375 10.6622 7.64149 10.7058 7.65225C10.7901 7.6741 10.8711 7.7069 10.9468 7.74982C11.0208 7.7911 11.089 7.84209 11.1496 7.90142C11.2108 7.96059 11.2632 8.02834 11.3049 8.10254C11.3265 8.14097 11.344 8.18157 11.3572 8.22368C11.364 8.24543 11.369 8.2677 11.3722 8.29028C11.3732 8.30273 11.3735 8.31492 11.3735 8.32622C11.3732 8.33799 11.3709 8.34962 11.3665 8.36054C11.3583 8.35385 11.3495 8.34808 11.3401 8.34333C11.3305 8.33888 11.3215 8.33516 11.3127 8.332C11.293 8.32507 11.2767 8.31908 11.2576 8.31333C11.2391 8.30788 11.2223 8.3018 11.2036 8.29694C11.1858 8.29168 11.169 8.28591 11.1507 8.28141C11.0809 8.26124 11.0147 8.24044 10.9493 8.22235C10.8204 8.18333 10.7 8.14825 10.5867 8.11768C10.5585 8.11226 10.5301 8.10223 10.5026 8.09785C10.4886 8.0946 10.4755 8.09196 10.4606 8.08786C10.4381 8.08323 10.4157 8.07866 10.3935 8.07316C10.3027 8.05141 10.2167 8.01288 10.1401 7.95954C10.0636 7.90628 9.99976 7.83673 9.95328 7.7559C9.93102 7.71631 9.91432 7.67385 9.90366 7.6297C9.89215 7.58597 9.88957 7.54036 9.89608 7.49561V7.49561Z" fill="#350313"/>
<path d="M10.4409 7.43066C10.2986 7.57486 10.1105 7.66494 9.90896 7.6854C9.91522 7.68645 9.92149 7.68697 9.92775 7.68749H9.89017C9.89643 7.68697 9.9027 7.68645 9.90896 7.6854C9.71071 7.66562 9.52529 7.57826 9.38382 7.43797L10.4409 7.43066Z" fill="#B86A55"/>
</g>
<defs>
<clipPath id="clip0_506_3626">
<rect width="20" height="20" fill="white"/>
</clipPath>
</defs>
</svg>
