<svg width="89" height="89" viewBox="0 0 89 89" fill="none" xmlns="http://www.w3.org/2000/svg">
<path d="M40.7915 55.6251H48.2082V63.0417H40.7915V55.6251ZM40.7915 25.9584H48.2082V48.2084H40.7915V25.9584ZM44.4998 7.41675C23.9928 7.41675 7.4165 24.1042 7.4165 44.5001C7.4165 54.3352 11.3235 63.7675 18.278 70.722C21.7215 74.1655 25.8095 76.897 30.3087 78.7606C34.8078 80.6242 39.63 81.5834 44.4998 81.5834C54.3349 81.5834 63.7672 77.6764 70.7217 70.722C77.6762 63.7675 81.5832 54.3352 81.5832 44.5001C81.5832 39.6302 80.624 34.8081 78.7604 30.3089C76.8968 25.8097 74.1652 21.7217 70.7217 18.2782C67.2782 14.8347 63.1902 12.1032 58.691 10.2395C54.1919 8.37594 49.3697 7.41675 44.4998 7.41675ZM44.4998 74.1667C36.6317 74.1667 29.0859 71.0412 23.5223 65.4776C17.9588 59.914 14.8332 52.3682 14.8332 44.5001C14.8332 36.632 17.9588 29.0862 23.5223 23.5226C29.0859 17.959 36.6317 14.8334 44.4998 14.8334C52.3679 14.8334 59.9138 17.959 65.4773 23.5226C71.0409 29.0862 74.1665 36.632 74.1665 44.5001C74.1665 52.3682 71.0409 59.914 65.4773 65.4776C59.9138 71.0412 52.3679 74.1667 44.4998 74.1667Z" fill="#F24E1E"/>
</svg>
