<svg width="45" height="45" viewBox="0 0 45 45" fill="none" xmlns="http://www.w3.org/2000/svg">
<path d="M12.2611 2.81397C12.0862 2.82226 11.9208 2.89547 11.797 3.01929L9.11528 5.6996C9.04295 5.77152 8.98715 5.85832 8.95173 5.95396C8.9163 6.04961 8.90211 6.15182 8.91014 6.2535C8.91817 6.35518 8.94823 6.4539 8.99822 6.5428C9.04822 6.63171 9.11696 6.70867 9.19967 6.76835L23.722 17.2604C23.8576 17.3579 24.0235 17.4039 24.1899 17.3903C24.3564 17.3766 24.5125 17.3041 24.6304 17.1859L29.5833 12.2344C29.6625 12.1554 29.7218 12.0585 29.7561 11.952C29.7904 11.8454 29.7987 11.7321 29.7804 11.6217C29.7621 11.5112 29.7177 11.4067 29.6509 11.3169C29.5841 11.2271 29.4968 11.1545 29.3962 11.1052L12.6014 2.88429C12.4956 2.83275 12.3786 2.80857 12.2611 2.81397V2.81397ZM12.434 4.36788L27.8943 11.9349L24.0595 15.7698L10.6917 6.11163L12.434 4.36788V4.36788ZM33.5658 15.4998C33.4716 15.4985 33.3782 15.5161 33.2909 15.5516C33.2037 15.5871 33.1246 15.6398 33.0581 15.7065L28.1025 20.6607C27.9844 20.7792 27.9126 20.9359 27.8997 21.1027C27.8868 21.2694 27.9338 21.4353 28.0322 21.5705L38.5228 36.0915C38.5825 36.1737 38.6593 36.242 38.748 36.2917C38.8366 36.3414 38.935 36.3713 39.0363 36.3793C39.1376 36.3874 39.2395 36.3733 39.3348 36.3382C39.4302 36.3031 39.5168 36.2477 39.5887 36.1758L42.269 33.4955C42.373 33.3919 42.4419 33.2584 42.4661 33.1136C42.4903 32.9689 42.4686 32.8202 42.404 32.6883L34.1859 15.8949C34.1289 15.7785 34.0408 15.6801 33.9313 15.6106C33.8219 15.5411 33.6954 15.5032 33.5658 15.5012V15.4998ZM33.3548 17.3982L40.9204 32.8557L39.1795 34.5966L29.52 21.2316L33.3548 17.3982V17.3982Z" fill="#2B4255"/>
<path d="M36.4655 4.96705C35.4769 4.96705 34.4855 5.34392 33.7332 6.09627L11.4497 28.3783L10.5033 27.8327L8.38267 26.6022L6.25924 25.3745C6.12505 25.2971 5.96903 25.2661 5.81543 25.2865C5.66184 25.3068 5.51926 25.3773 5.40986 25.487L4.0697 26.8272L2.72954 28.1674C2.65881 28.2381 2.604 28.3231 2.56876 28.4168C2.53352 28.5104 2.51866 28.6105 2.52518 28.7103C2.5317 28.8101 2.55946 28.9074 2.60659 28.9957C2.65371 29.0839 2.71913 29.1611 2.79846 29.222L10.3191 34.9708L16.0706 42.4914C16.1315 42.5709 16.2086 42.6364 16.2968 42.6836C16.385 42.7309 16.4822 42.7588 16.5821 42.7654C16.6819 42.7721 16.782 42.7574 16.8757 42.7222C16.9694 42.6871 17.0545 42.6324 17.1253 42.5617L18.4655 41.2216L19.8056 39.8814C19.9152 39.7716 19.9854 39.6286 20.0053 39.4747C20.0251 39.3208 19.9935 39.1647 19.9153 39.0306L18.6877 36.91L17.46 34.7866L16.9116 33.8416L39.1964 11.5567C39.919 10.8318 40.3248 9.85005 40.3248 8.8265C40.3248 7.80296 39.919 6.82115 39.1964 6.09627C38.8381 5.73741 38.4123 5.4529 37.9436 5.25911C37.475 5.06532 36.9726 4.96607 36.4655 4.96705V4.96705ZM36.4655 6.36205C37.0913 6.36205 37.717 6.60533 38.2022 7.09049C39.1725 8.0608 39.1725 9.5908 38.2022 10.5611L15.5475 33.2158C15.4419 33.3215 15.3727 33.4581 15.3499 33.6057C15.3272 33.7534 15.3521 33.9045 15.421 34.0371L15.6136 34.4055C15.6181 34.4145 15.6228 34.4234 15.6277 34.4322L16.2436 35.4925L17.4713 37.6131L18.4303 39.2683L17.4713 40.2274L16.6992 40.9994L11.3794 34.0427C11.3414 33.9929 11.297 33.9485 11.2472 33.9105L4.29329 28.5935L5.06534 27.82L6.02299 26.8638L7.67674 27.8186L9.80017 29.0491L10.8605 29.6608C10.8697 29.6666 10.8791 29.6723 10.8886 29.6777L11.2528 29.8675C11.3857 29.9371 11.5374 29.9623 11.6857 29.9396C11.8339 29.9168 11.971 29.8472 12.0769 29.741L34.7274 7.09049C34.9549 6.86028 35.2258 6.6774 35.5243 6.55238C35.8229 6.42736 36.1432 6.36267 36.4669 6.36205H36.4655Z" fill="#2B4255"/>
<path fill-rule="evenodd" clip-rule="evenodd" d="M13.4944 31.0725C13.3119 31.0773 13.1385 31.153 13.0107 31.2834L9.43742 34.8609C9.37027 34.9258 9.31671 35.0034 9.27986 35.0892C9.24301 35.175 9.22362 35.2672 9.2228 35.3606C9.22199 35.4539 9.23979 35.5465 9.27514 35.6329C9.31049 35.7194 9.36269 35.7979 9.42871 35.8639C9.49473 35.9299 9.57323 35.9821 9.65964 36.0175C9.74605 36.0528 9.83864 36.0706 9.932 36.0698C10.0254 36.069 10.1176 36.0496 10.2034 36.0127C10.2892 35.9759 10.3668 35.9223 10.4316 35.8552L14.0035 32.2791C14.1048 32.1804 14.174 32.0535 14.2021 31.9148C14.2301 31.7762 14.2157 31.6324 14.1608 31.5021C14.1058 31.3718 14.0128 31.2611 13.8939 31.1844C13.775 31.1078 13.6358 31.0688 13.4944 31.0725V31.0725Z" fill="#2B4255"/>
<path fill-rule="evenodd" clip-rule="evenodd" d="M11.8462 10.1167L10.0575 11.9054L11.0517 12.8997L12.8405 11.1109L11.8462 10.1167V10.1167ZM14.5266 12.797L10.9505 16.3703L11.9447 17.3645L15.5208 13.7926L14.5266 12.797ZM34.1789 32.4522L32.393 34.2381L33.3872 35.2309L35.1731 33.445L34.1789 32.4522ZM31.5 29.7719L27.9239 33.3437L28.9181 34.3394L32.4942 30.7661L31.5 29.7719V29.7719Z" fill="#F05542"/>
</svg>
