<svg width="45" height="45" viewBox="0 0 45 45" fill="none" xmlns="http://www.w3.org/2000/svg">
<mask id="path-1-inside-1_467_3139" fill="white">
<path d="M16.4524 40.5021L18.9843 31.6406L21.0937 18.9844L23.2031 31.6406L24.603 36.5407"/>
</mask>
<path d="M18.9843 31.6406L19.9459 31.9154L19.9614 31.8609L19.9707 31.805L18.9843 31.6406ZM21.0937 18.9844L22.0801 18.82H20.1073L21.0937 18.9844ZM23.2031 31.6406L22.2167 31.805L22.226 31.8609L22.2416 31.9153L23.2031 31.6406ZM17.4139 40.7768L19.9459 31.9154L18.0228 31.3659L15.4909 40.2274L17.4139 40.7768ZM19.9707 31.805L22.0801 19.1488L20.1073 18.82L17.998 31.4762L19.9707 31.805ZM20.1073 19.1488L22.2167 31.805L24.1895 31.4762L22.0801 18.82L20.1073 19.1488ZM22.2416 31.9153L23.6415 36.8154L25.5645 36.266L24.1646 31.3659L22.2416 31.9153Z" fill="#2B4255" mask="url(#path-1-inside-1_467_3139)"/>
<path d="M21.2969 33.75V34.25H21.7969H23.4287L23.5448 34.6562H21.7969H21.2969V35.1562V37.5918L20.8906 37.7893V35.1562V34.6562H20.3906H18.6427L18.7588 34.25H20.3906H20.8906V33.75V32.3438V31.8438H20.3906H19.4463L19.4651 31.7781L19.4729 31.7509L19.4776 31.723L19.5252 31.4375H22.6623L22.71 31.723L22.7146 31.7509L22.7224 31.7781L22.7412 31.8438H21.7969H21.2969V32.3438V33.75Z" fill="#D7E0EF" stroke="#F05542"/>
<path d="M30.0312 17.375H33.25V31.8438H30.0312V17.375Z" stroke="#2B4255"/>
<path d="M27.4688 32.3906H35.8125V34.4579L27.4688 35.0539V32.3906Z" stroke="#F05542" stroke-width="1.5"/>
<path d="M32.12 35.6034L32.3795 35.7332L32.621 35.5723C33.915 34.7101 35.4343 34.25 36.9886 34.25C38.981 34.25 40.961 34.5711 42.8512 35.2017L42.8514 35.2017L43.7969 35.5167V42.3906H12.94C13.2237 42.2514 13.4853 42.0655 13.7129 41.8379C14.0692 41.4817 14.553 41.2812 15.0567 41.2812C16.3586 41.2812 17.5848 40.6687 18.3656 39.6271L18.3659 39.6267L18.4407 39.5267C18.4408 39.5266 18.4409 39.5265 18.441 39.5264C19.0152 38.7611 19.7591 38.1407 20.6143 37.7128C21.4694 37.2849 22.4123 37.0625 23.369 37.0625H24.2726C25.071 37.0625 25.8366 36.7454 26.4015 36.1806C27.1873 35.3948 28.2534 34.9531 29.3653 34.9531C30.3214 34.9531 31.265 35.1756 32.12 35.6034ZM9.2988 42.3906H3.82878C4.49593 42.1258 5.21439 41.9844 5.95053 41.9844C7.0787 41.9844 8.20305 42.1211 9.2988 42.3906Z" fill="white" stroke="#2B4255"/>
<mask id="path-7-inside-2_467_3139" fill="white">
<path d="M29.5312 10.5469L30.5859 1.40625H32.6943L33.75 10.5469"/>
</mask>
<path d="M30.5859 1.40625V0.40625H29.6947L29.5925 1.29163L30.5859 1.40625ZM32.6943 1.40625L33.6877 1.29151L33.5854 0.40625H32.6943V1.40625ZM30.5247 10.6615L31.5793 1.52087L29.5925 1.29163L28.5378 10.4323L30.5247 10.6615ZM30.5859 2.40625H32.6943V0.40625H30.5859V2.40625ZM31.7009 1.52099L32.7566 10.6616L34.7434 10.4321L33.6877 1.29151L31.7009 1.52099Z" fill="#2B4255" mask="url(#path-7-inside-2_467_3139)"/>
<path d="M18.7812 25.8125H23.4062V26.2188H18.7812V25.8125Z" fill="#D7E0EF" stroke="#F05542"/>
<path d="M18.0781 28.625H24.1094V29.0312H18.0781V28.625Z" fill="#D7E0EF" stroke="#F05542"/>
<path d="M28.625 23.7031H34.6562V24.1094H28.625V23.7031Z" fill="#C1CFE8" stroke="#F05542"/>
<path d="M28.625 26.5156H34.6562V26.9219H28.625V26.5156Z" fill="#C1CFE8" stroke="#F05542"/>
<path d="M26.7205 41.6607C27.2763 40.5753 28.397 39.8751 29.6452 39.8751H29.8583H30.1259L30.2743 39.6524L31.1944 38.272L31.5323 38.4971L30.4034 40.1904C30.3651 40.2478 30.3017 40.2813 30.2344 40.2813H29.6452C28.573 40.2813 27.6078 40.8719 27.1107 41.791L26.7205 41.6607ZM38.2384 41.6876H37.8201C38.0493 40.6521 38.9749 39.8751 40.0782 39.8751H40.2813V40.2813H40.0782C39.1995 40.2813 38.4584 40.8779 38.2384 41.6876Z" fill="#719301" stroke="#2B4255"/>
<path d="M30.0312 11.0469H33.25V13.5625H30.0312V12.3047V11.0469Z" stroke="#2B4255"/>
<path d="M28.625 10.3438H34.6562V10.75H28.625V10.3438Z" fill="#C1CFE8" stroke="#F05542"/>
<path d="M6.21509 12.5702L6.74233 12.7872L6.88871 12.2362C7.07109 11.5496 7.69272 11.0469 8.4375 11.0469L8.43926 11.0469L8.89074 11.1598L9.01348 10.6772C9.26812 9.67597 10.1704 8.9375 11.25 8.9375C12.3296 8.9375 13.2319 9.67597 13.4865 10.6772L13.6093 11.1598L14.0607 11.0469L14.0625 11.0469C15.3403 11.0469 16.375 12.0816 16.375 13.3594C16.375 14.6371 15.3403 15.6719 14.0625 15.6719H5.625C4.73395 15.6719 4.01562 14.9535 4.01562 14.0625C4.01562 13.1715 4.73395 12.4531 5.625 12.4531C5.83163 12.4531 6.03428 12.4957 6.21509 12.5702Z" stroke="#2B4255"/>
<path d="M19.1875 7.73438V8.23438H19.6875C20.5786 8.23438 21.2969 8.9527 21.2969 9.84375C21.2969 10.7348 20.5786 11.4531 19.6875 11.4531H17.5843C17.0218 10.4152 16.0195 9.64587 14.819 9.41537C14.5875 8.96445 14.2745 8.56902 13.9029 8.24299C13.9555 8.23729 14.0087 8.23438 14.0625 8.23438H14.5625V7.73438C14.5625 6.45661 15.5973 5.42188 16.875 5.42188C18.1528 5.42188 19.1875 6.45661 19.1875 7.73438Z" stroke="#2B4255"/>
<path d="M28.875 14.1094H34.4062V16.8281H28.875V14.1094Z" stroke="#F05542" stroke-width="1.5"/>
</svg>
