<svg width="45" height="45" viewBox="0 0 45 45" fill="none" xmlns="http://www.w3.org/2000/svg">
<path fill-rule="evenodd" clip-rule="evenodd" d="M42.8794 7.06064C42.787 7.0621 42.6959 7.08175 42.6111 7.11844C42.5264 7.15514 42.4497 7.20817 42.3854 7.27451C42.3212 7.34085 42.2706 7.41919 42.2367 7.50507C42.2027 7.59095 42.186 7.68267 42.1875 7.77501V28.8688C42.1875 29.0552 42.2616 29.2341 42.3934 29.3659C42.5253 29.4978 42.7041 29.5719 42.8906 29.5719C43.0771 29.5719 43.2559 29.4978 43.3878 29.3659C43.5196 29.2341 43.5937 29.0552 43.5937 28.8688V7.77501C43.5952 7.68078 43.5778 7.5872 43.5424 7.49985C43.5071 7.41249 43.4545 7.33313 43.3879 7.26649C43.3212 7.19985 43.2419 7.14728 43.1545 7.11192C43.0671 7.07656 42.9736 7.05912 42.8794 7.06064Z" fill="#2B4255"/>
<path d="M22.5 9.88306C14.7417 9.88306 8.4375 16.1873 8.4375 23.9456C8.4375 31.7024 14.7417 38.0081 22.5 38.0081C30.2583 38.0081 36.5625 31.7024 36.5625 23.9456C36.5625 16.1873 30.2583 9.88306 22.5 9.88306V9.88306ZM22.5 11.2893C29.4975 11.2893 35.1562 16.9467 35.1562 23.9456C35.1562 30.9431 29.4975 36.6018 22.5 36.6018C15.5025 36.6018 9.84375 30.9431 9.84375 23.9456C9.84375 16.9467 15.5025 11.2893 22.5 11.2893V11.2893ZM40.0781 26.7581C39.8916 26.7581 39.7128 26.8321 39.581 26.964C39.4491 27.0959 39.375 27.2747 39.375 27.4612V37.3049C39.375 37.4914 39.4491 37.6703 39.581 37.8021C39.7128 37.934 39.8916 38.0081 40.0781 38.0081H42.8906C43.0771 38.0081 43.2559 37.934 43.3878 37.8021C43.5197 37.6703 43.5938 37.4914 43.5938 37.3049V27.4612C43.5938 27.2747 43.5197 27.0959 43.3878 26.964C43.2559 26.8321 43.0771 26.7581 42.8906 26.7581H40.0781ZM40.7812 28.1643H42.1875V36.6018H40.7812V28.1643ZM1.40625 8.47681V17.6174C1.40629 17.8036 1.48012 17.9821 1.61156 18.1138L2.8125 19.3148V37.3049C2.8125 37.4914 2.88659 37.6703 3.01845 37.8021C3.15031 37.934 3.32914 38.0081 3.51562 38.0081H6.32812C6.51461 38.0081 6.69344 37.934 6.8253 37.8021C6.95716 37.6703 7.03125 37.4914 7.03125 37.3049V19.3148L8.23219 18.1138C8.36363 17.9821 8.43746 17.8036 8.4375 17.6174V8.47681H7.03125V17.3263L5.83031 18.5259C5.76505 18.5913 5.71334 18.6689 5.67811 18.7543C5.64288 18.8398 5.62483 18.9313 5.625 19.0237V36.6018H4.21875V19.0237C4.21892 18.9313 4.20087 18.8398 4.16564 18.7543C4.13041 18.6689 4.0787 18.5913 4.01344 18.5259L2.8125 17.3263V8.47681H1.40625V8.47681Z" fill="#2B4255"/>
<path d="M43.5094 6.99316C40.4747 6.99316 37.9631 9.2966 37.9631 12.1977V27.5258H39.3694V12.1977C39.3694 10.1094 41.1764 8.39941 43.508 8.39941V6.99316H43.5094Z" fill="#2B4255"/>
<path fill-rule="evenodd" clip-rule="evenodd" d="M37.9688 26.7581V28.1643H42.1875V26.7581H37.9688ZM4.21875 8.47681V16.9143H5.625V8.47681H4.21875Z" fill="#2B4255"/>
<path d="M22.5 16.9144C18.6244 16.9144 15.4688 20.07 15.4688 23.9456C15.4688 27.8198 18.6244 30.9769 22.5 30.9769C26.3756 30.9769 29.5312 27.8198 29.5312 23.9456C29.5312 20.07 26.3756 16.9144 22.5 16.9144V16.9144ZM22.5 18.3206C25.6148 18.3206 28.125 20.8294 28.125 23.9456C28.125 27.0605 25.6148 29.5706 22.5 29.5706C19.3852 29.5706 16.875 27.0605 16.875 23.9456C16.875 20.8294 19.3852 18.3206 22.5 18.3206V18.3206ZM27.7931 14.1047C27.6348 14.0977 27.4787 14.1445 27.3502 14.2374C27.2218 14.3303 27.1285 14.4639 27.0855 14.6164C27.0426 14.769 27.0524 14.9316 27.1134 15.0779C27.1745 15.2242 27.2832 15.3456 27.4219 15.4223C28.5415 16.0685 29.5229 16.9289 30.31 17.9543C31.097 18.9798 31.6744 20.1503 32.0091 21.3989C32.0305 21.4908 32.0702 21.5775 32.1258 21.6537C32.1814 21.7299 32.2518 21.7942 32.3327 21.8427C32.4137 21.8911 32.5036 21.9228 32.5971 21.9358C32.6905 21.9488 32.7856 21.9428 32.8768 21.9183C32.9679 21.8937 33.0531 21.8511 33.1274 21.7929C33.2017 21.7347 33.2635 21.6622 33.3092 21.5796C33.3548 21.497 33.3834 21.4061 33.3932 21.3122C33.403 21.2184 33.3938 21.1235 33.3661 21.0333C32.9838 19.6064 32.3241 18.2689 31.4248 17.0969C30.5256 15.925 29.4043 14.9417 28.125 14.2031C28.0243 14.1432 27.9102 14.1093 27.7931 14.1047V14.1047Z" fill="#F05542"/>
</svg>
