<svg width="45" height="45" viewBox="0 0 45 45" fill="none" xmlns="http://www.w3.org/2000/svg">
<path d="M3.51562 6.32812C3.32914 6.32812 3.15031 6.4022 3.01845 6.53407C2.88659 6.66593 2.8125 6.84477 2.8125 7.03125V15.4688C2.8125 15.6552 2.88659 15.8341 3.01845 15.9659C3.15031 16.0978 3.32914 16.1719 3.51562 16.1719H40.0781C40.2646 16.1719 40.4434 16.0978 40.5753 15.9659C40.7072 15.8341 40.7812 15.6552 40.7812 15.4688V7.03125C40.7812 6.84477 40.7072 6.66593 40.5753 6.53407C40.4434 6.4022 40.2646 6.32812 40.0781 6.32812H35.2997C35.1132 6.32812 34.9344 6.4022 34.8025 6.53407C34.6706 6.66593 34.5966 6.84477 34.5966 7.03125C34.5966 7.21773 34.6706 7.39657 34.8025 7.52843C34.9344 7.6603 35.1132 7.73438 35.2997 7.73438H39.375V14.7656H4.21875V7.73438H8.13516C8.32164 7.73438 8.50047 7.6603 8.63234 7.52843C8.7642 7.39657 8.83829 7.21773 8.83829 7.03125C8.83829 6.84477 8.7642 6.66593 8.63234 6.53407C8.50047 6.4022 8.32164 6.32812 8.13516 6.32812H3.51562ZM11.3977 6.32812C11.2112 6.32812 11.0323 6.4022 10.9005 6.53407C10.7686 6.66593 10.6945 6.84477 10.6945 7.03125C10.6945 7.21773 10.7686 7.39657 10.9005 7.52843C11.0323 7.6603 11.2112 7.73438 11.3977 7.73438H32.1356C32.3221 7.73438 32.5009 7.6603 32.6328 7.52843C32.7647 7.39657 32.8388 7.21773 32.8388 7.03125C32.8388 6.84477 32.7647 6.66593 32.6328 6.53407C32.5009 6.4022 32.3221 6.32812 32.1356 6.32812H11.3977V6.32812ZM4.20751 16.8778C4.02151 16.8808 3.84426 16.9573 3.71458 17.0907C3.5849 17.2241 3.51337 17.4034 3.51562 17.5894V41.4844C3.51562 41.6709 3.58971 41.8497 3.72158 41.9816C3.85344 42.1134 4.03227 42.1875 4.21875 42.1875H39.375C39.5615 42.1875 39.7403 42.1134 39.8722 41.9816C40.004 41.8497 40.0781 41.6709 40.0781 41.4844V17.5894C40.0781 17.4029 40.004 17.2241 39.8722 17.0922C39.7403 16.9603 39.5615 16.8862 39.375 16.8862C39.1885 16.8862 39.0097 16.9603 38.8778 17.0922C38.746 17.2241 38.6719 17.4029 38.6719 17.5894V40.7812H4.92188V17.5894C4.92302 17.4954 4.90529 17.4021 4.86975 17.3151C4.83422 17.228 4.7816 17.149 4.715 17.0827C4.6484 17.0163 4.56918 16.964 4.48201 16.9288C4.39484 16.8937 4.3015 16.8763 4.20751 16.8778V16.8778Z" fill="#2B4255"/>
<path d="M8.4375 2.8125C8.25102 2.8125 8.07219 2.88658 7.94033 3.01844C7.80846 3.1503 7.73438 3.32914 7.73438 3.51562V10.5469C7.73438 10.7334 7.80846 10.9122 7.94033 11.0441C8.07219 11.1759 8.25102 11.25 8.4375 11.25H11.25C11.4365 11.25 11.6153 11.1759 11.7472 11.0441C11.879 10.9122 11.9531 10.7334 11.9531 10.5469V3.51562C11.9531 3.32914 11.879 3.1503 11.7472 3.01844C11.6153 2.88658 11.4365 2.8125 11.25 2.8125H8.4375ZM9.14062 4.21875H10.5469V9.84375H9.14062V4.21875ZM32.3438 2.8125C32.1573 2.8125 31.9784 2.88658 31.8466 3.01844C31.7147 3.1503 31.6406 3.32914 31.6406 3.51562V10.5469C31.6406 10.7334 31.7147 10.9122 31.8466 11.0441C31.9784 11.1759 32.1573 11.25 32.3438 11.25H35.1562C35.3427 11.25 35.5216 11.1759 35.6534 11.0441C35.7853 10.9122 35.8594 10.7334 35.8594 10.5469V3.51562C35.8594 3.32914 35.7853 3.1503 35.6534 3.01844C35.5216 2.88658 35.3427 2.8125 35.1562 2.8125H32.3438ZM33.0469 4.21875H34.4531V9.84375H33.0469V4.21875Z" fill="#2B4255"/>
<path d="M24.6094 26.7202H27.4219V29.5327H24.6094V26.7202Z" fill="#2B4255"/>
<path d="M28.8281 26.7202H31.6406V29.5327H28.8281V26.7202ZM33.0469 26.7202H35.8594V29.5327H33.0469V26.7202ZM7.73438 30.939H10.5469V33.7515H7.73438V30.939ZM11.9531 30.939H14.7656V33.7515H11.9531V30.939ZM16.1719 30.939H18.9844V33.7515H16.1719V30.939ZM20.3906 30.939H23.2031V33.7515H20.3906V30.939ZM24.6094 30.939H27.4219V33.7515H24.6094V30.939ZM28.8281 30.939H31.6406V33.7515H28.8281V30.939Z" fill="#F05542"/>
<path d="M33.0469 30.939H35.8594V33.7515H33.0469V30.939Z" fill="#2B4255"/>
<path d="M12 35H14.8125V37.8125H12V35Z" fill="#2B4255"/>
<path d="M16 20H18.8V22.8H16V20Z" fill="#2B4255"/>
<path d="M20.6562 20H23.4688V22.8125H20.6562V20ZM24.875 20H27.6875V22.8125H24.875V20ZM29.0938 20H31.9062V22.8125H29.0938V20ZM33.3125 20H36.125V22.8125H33.3125V20ZM8 24.2188H10.8125V27.0312H8V24.2188ZM12.2188 24.2188H15.0312V27.0312H12.2188V24.2188ZM16.4375 24.2188H19.25V27.0312H16.4375V24.2188ZM20.6562 24.2188H23.4688V27.0312H20.6562V24.2188Z" fill="#F05542"/>
</svg>
