<svg width="45" height="45" viewBox="0 0 45 45" fill="none" xmlns="http://www.w3.org/2000/svg">
<g clip-path="url(#clip0_467_3225)">
<path d="M21.1994 42H4.04142C3.46609 42 3 41.5491 3 40.9926V7.00744C3 6.45088 3.46609 6 4.04142 6H9.47428C10.0496 6 10.5157 6.45088 10.5157 7.00744C10.5157 7.56399 10.0496 8.01487 9.47428 8.01487H5.08284V39.9851H21.1994C21.7747 39.9851 22.2408 40.436 22.2408 40.9926C22.2408 41.5491 21.7747 42 21.1994 42ZM33.9586 20.9636C33.3832 20.9636 32.9172 20.5127 32.9172 19.9562V8.01487H28.5257C27.9504 8.01487 27.4843 7.56399 27.4843 7.00744C27.4843 6.45088 27.9504 6 28.5257 6H33.9586C34.5339 6 35 6.45088 35 7.00744V19.9632C35 20.5127 34.5339 20.9636 33.9586 20.9636Z" fill="#2B4255"/>
<path d="M28.9159 13H9.08408C8.48518 13 8 12.534 8 11.9587V5.04126C8 4.46602 8.48518 4 9.08408 4H28.9159C29.5148 4 30 4.46602 30 5.04126V11.9587C30 12.534 29.5148 13 28.9159 13ZM10.1682 10.9175H27.8243V6.08252H10.1682V10.9175Z" fill="#2B4255"/>
<path d="M22.11 6C21.6183 6 21.2199 5.55658 21.2199 5.00924C21.2199 3.33949 20 1.98152 18.5 1.98152C17 1.98152 15.7801 3.33949 15.7801 5.00924C15.7801 5.55658 15.3817 6 14.89 6C14.3983 6 14 5.55658 14 5.00924C14 2.2448 16.0166 0 18.5 0C20.9834 0 23 2.2448 23 5.00924C23 5.55658 22.6017 6 22.11 6Z" fill="#2B4255"/>
<path d="M33.0377 45.0001C26.4394 45.0001 21.0754 39.9587 21.0754 33.7571C21.0754 27.5556 26.4394 22.5142 33.0377 22.5142C39.636 22.5142 44.9999 27.5556 44.9999 33.7571C45.0074 39.9587 39.636 45.0001 33.0377 45.0001ZM33.0377 24.5251C27.6214 24.5251 23.215 28.6665 23.215 33.7571C23.215 38.8478 27.6214 42.9892 33.0377 42.9892C38.454 42.9892 42.8603 38.8478 42.8603 33.7571C42.8603 28.6665 38.454 24.5251 33.0377 24.5251Z" fill="#F05542"/>
<path d="M33.0377 40.7953C32.4467 40.7953 31.9679 40.3453 31.9679 39.7898V31.1344C31.9679 30.5789 32.4467 30.1289 33.0377 30.1289C33.6287 30.1289 34.1075 30.5789 34.1075 31.1344V39.7898C34.115 40.3453 33.6287 40.7953 33.0377 40.7953Z" fill="#F05542"/>
<path d="M33.0377 28.9549C32.4467 28.9549 31.9679 28.5049 31.9679 27.9494V27.19C31.9679 26.6346 32.4467 26.1846 33.0377 26.1846C33.6287 26.1846 34.1075 26.6346 34.1075 27.19V27.9494C34.115 28.4979 33.6287 28.9549 33.0377 28.9549Z" fill="#F05542"/>
</g>
<defs>
<clipPath id="clip0_467_3225">
<rect width="45" height="45" fill="white"/>
</clipPath>
</defs>
</svg>
