<svg width="45" height="45" viewBox="0 0 45 45" fill="none" xmlns="http://www.w3.org/2000/svg">
<path d="M8.4375 21.0938C8.4375 17.2104 9.6968 14.0625 11.25 14.0625H8.4375C6.8843 14.0625 5.625 17.2104 5.625 21.0938C5.625 24.9771 6.8843 28.125 8.4375 28.125H11.25C9.6968 28.125 8.4375 24.9771 8.4375 21.0938ZM33.75 21.0938C33.75 12.5508 35.9536 5.625 38.6719 5.625H34.4531C31.7348 5.625 29.5312 12.5508 29.5312 21.0938C29.5312 29.6367 31.7348 36.5625 34.4531 36.5625H38.6719C35.9536 36.5625 33.75 29.6374 33.75 21.0938Z" fill="#F05542"/>
<path d="M38.6719 4.92188H34.4531C33.2234 4.92188 32.1848 5.86828 31.3474 7.42008C25.9671 11.109 19.9278 13.7292 13.5584 15.1383C12.9417 13.9859 12.1352 13.3594 11.25 13.3594H8.4375C7.20773 13.3594 6.28594 14.5195 5.69531 16.1719H4.21875C3.75707 16.1719 3.29991 16.2628 2.87338 16.4395C2.44684 16.6162 2.05928 16.8751 1.73283 17.2016C1.07352 17.8609 0.703125 18.7551 0.703125 19.6875V22.5C0.703125 23.4324 1.07352 24.3266 1.73283 24.9859C2.05928 25.3124 2.44684 25.5713 2.87338 25.748C3.29991 25.9247 3.75707 26.0156 4.21875 26.0156H5.69531C5.86221 26.5001 6.08024 26.9653 6.3457 27.4036L8.44875 39.4973C8.47749 39.66 8.56258 39.8073 8.68908 39.9135C8.81559 40.0197 8.97545 40.078 9.14062 40.0781H14.1187C14.646 40.0782 15.1622 39.927 15.6061 39.6426C16.05 39.3582 16.403 38.9524 16.6233 38.4734C16.8435 37.9944 16.9218 37.4622 16.8488 36.9401C16.7757 36.4179 16.5545 35.9277 16.2112 35.5275L15.7191 34.9587C14.1187 33.0838 12.9604 30.873 12.33 28.4899C12.8526 28.1187 13.2737 27.6224 13.5548 27.0464C19.9243 28.4562 25.9635 31.0769 31.3439 34.766C32.1855 36.3192 33.2234 37.2656 34.4531 37.2656H38.6719C42.3281 37.2656 44.2969 28.9329 44.2969 21.0938C44.2969 13.2546 42.3281 4.92188 38.6719 4.92188ZM37.2705 34.8405C36.1631 33.2937 35.0909 30.0227 34.6577 25.4588L38.1389 24.5883V24.5827C39.2534 24.4455 40.0781 23.0006 40.0781 21.0938C40.0781 19.1869 39.2534 17.742 38.1375 17.6048V17.5992L34.6563 16.7287C35.0895 12.1648 36.1617 8.89594 37.2698 7.34625C38.9454 9.62227 40.0781 15.0469 40.0781 21.0938C40.0781 27.1406 38.9454 32.5645 37.2705 34.8405ZM34.4531 21.0938C34.4531 20.0644 34.4883 19.087 34.5459 18.1505L36.4444 18.6244C36.039 19.383 35.8374 20.2339 35.8594 21.0938C35.8371 21.9536 36.0384 22.8045 36.4437 23.5631L34.5452 24.0377C34.4883 23.1005 34.4531 22.1231 34.4531 21.0938ZM37.9688 23.2031C37.7937 23.2031 37.2656 22.455 37.2656 21.0938C37.2656 19.7325 37.7937 18.9844 37.9688 18.9844C38.1438 18.9844 38.6719 19.7325 38.6719 21.0938C38.6719 22.455 38.1438 23.2031 37.9688 23.2031ZM8.4375 14.7656H9.17016C8.22656 16.2577 7.73438 18.7214 7.73438 21.0938C7.73438 23.4661 8.22656 25.9298 9.17016 27.4219H8.4375C7.57688 27.4219 6.32812 24.9567 6.32812 21.0938C6.32812 17.2308 7.57688 14.7656 8.4375 14.7656ZM4.21875 24.6094C3.65931 24.6094 3.12278 24.3871 2.7272 23.9916C2.33161 23.596 2.10938 23.0594 2.10938 22.5V19.6875C2.10938 19.1281 2.33161 18.5915 2.7272 18.1959C3.12278 17.8004 3.65931 17.5781 4.21875 17.5781H5.29172C4.79859 19.8959 4.79859 22.2916 5.29172 24.6094H4.21875ZM15.1439 36.4437C15.3118 36.6397 15.42 36.8798 15.4557 37.1355C15.4913 37.3911 15.4529 37.6516 15.345 37.8861C15.2371 38.1206 15.0643 38.3193 14.8469 38.4585C14.6296 38.5978 14.3769 38.6718 14.1187 38.6719H9.73195L8.01141 28.7789C8.15112 28.8114 8.29407 28.8279 8.4375 28.8281H10.9688C11.6517 31.4242 12.9116 33.8326 14.6545 35.8741L15.1439 36.4437ZM11.25 27.4219C10.3894 27.4219 9.14062 24.9567 9.14062 21.0938C9.14062 17.2308 10.3894 14.7656 11.25 14.7656C11.5102 14.7656 11.8125 15.0096 12.0938 15.4294C12.0066 15.4455 11.9194 15.4638 11.8315 15.4793C11.6973 15.5024 11.5727 15.5641 11.4728 15.6567C11.373 15.7493 11.3021 15.8689 11.269 16.001L11.0777 16.7674C10.3671 19.6076 10.3671 22.5792 11.0777 25.4194L11.269 26.1858C11.3021 26.3179 11.373 26.4375 11.4728 26.5301C11.5727 26.6227 11.6973 26.6844 11.8315 26.7075C11.9194 26.723 12.0066 26.742 12.0938 26.7574C11.8125 27.1772 11.5102 27.4219 11.25 27.4219ZM12.5248 25.4046L12.4432 25.0791C11.7898 22.4624 11.7898 19.7251 12.4432 17.1084L12.5248 16.7829C18.8761 15.5807 24.9397 13.1778 30.3905 9.70313C29.3014 13.4002 28.7747 17.24 28.8281 21.0938C28.7747 24.9475 29.3014 28.7873 30.3905 32.4844C24.9396 29.0099 18.876 26.6071 12.5248 25.4046V25.4046ZM30.2344 21.0938C30.2344 11.9454 32.6911 6.32812 34.4531 6.32812H36.2665C34.1613 9.02883 33.0469 15.2002 33.0469 21.0938C33.0469 26.9873 34.1613 33.1587 36.2665 35.8594H34.4531C32.6911 35.8594 30.2344 30.2421 30.2344 21.0938ZM38.6719 35.8594C38.5491 35.8567 38.4279 35.8309 38.3147 35.7834C40.2321 33.2452 41.4844 27.5569 41.4844 21.0938C41.4844 14.6306 40.2314 8.94234 38.314 6.40477C38.4273 6.35675 38.5488 6.33074 38.6719 6.32812C40.4339 6.32812 42.8906 11.9454 42.8906 21.0938C42.8906 30.2421 40.4339 35.8594 38.6719 35.8594Z" fill="#2B4255"/>
</svg>
