<svg width="45" height="45" viewBox="0 0 45 45" fill="none" xmlns="http://www.w3.org/2000/svg">
<g clip-path="url(#clip0_467_3214)">
<path d="M43.1367 44.0227H12.0656C11.0391 44.0227 10.1953 43.186 10.1953 42.1524V38.9532C10.1953 38.5735 10.4977 38.2711 10.8773 38.2711C11.257 38.2711 11.5594 38.5735 11.5594 38.9532V42.1453C11.5594 42.4266 11.7844 42.6586 12.0656 42.6586H43.1367C43.4109 42.6586 43.643 42.4266 43.643 42.1453V12.9938L33.4406 2.34143H12.0656C11.7914 2.34143 11.5594 2.56643 11.5594 2.84768V17.5219C11.5594 17.9016 11.257 18.2039 10.8773 18.2039C10.4977 18.2039 10.1953 17.9016 10.1953 17.5219V2.84065C10.1953 1.81409 11.032 0.970337 12.0656 0.970337H33.7289C33.9117 0.970337 34.0945 1.04768 34.2211 1.18127L44.8102 12.2414C44.9367 12.375 45 12.5438 45 12.7196V42.1524C45 43.186 44.1633 44.0227 43.1367 44.0227Z" fill="#2B4255"/>
<path d="M44.318 13.4015H33.7289C33.3492 13.4015 33.0469 13.0992 33.0469 12.7195V1.65933C33.0469 1.27964 33.3492 0.977295 33.7289 0.977295C34.1086 0.977295 34.4109 1.27964 34.4109 1.65933V12.0375H44.325C44.7047 12.0375 45.007 12.3398 45.007 12.7195C45 13.0921 44.6977 13.4015 44.318 13.4015Z" fill="#2B4255"/>
<path d="M40.5492 39.1851H15.1945C14.8148 39.1851 14.5125 38.8828 14.5125 38.5031C14.5125 38.1234 14.8148 37.8211 15.1945 37.8211H40.5492C40.9289 37.8211 41.2312 38.1234 41.2312 38.5031C41.2312 38.8758 40.9218 39.1851 40.5492 39.1851ZM40.5492 33.8484L22.7812 33.8273C22.4015 33.8273 22.0992 33.5179 22.0992 33.1453C22.0992 32.7656 22.4015 32.4633 22.7812 32.4633L40.5492 32.4844C40.9289 32.4844 41.2312 32.7937 41.2312 33.1664C41.2312 33.5461 40.9218 33.8484 40.5492 33.8484ZM40.5492 28.5117L22.7812 28.4906C22.4015 28.4906 22.0992 28.1812 22.0992 27.8086C22.0992 27.4359 22.4015 27.1265 22.7812 27.1265L40.5492 27.1476C40.9289 27.1476 41.2312 27.457 41.2312 27.8297C41.2312 28.2094 40.9218 28.5117 40.5492 28.5117ZM40.5492 23.182L22.7812 23.1609C22.4015 23.1609 22.0992 22.8515 22.0992 22.4789C22.0992 22.1062 22.4015 21.7969 22.7812 21.7969L40.5492 21.8179C40.9289 21.8179 41.2312 22.1273 41.2312 22.5C41.2312 22.8726 40.9218 23.182 40.5492 23.182ZM40.5492 17.8453H15.1945C14.8148 17.8453 14.5125 17.5429 14.5125 17.1633C14.5125 16.7836 14.8148 16.4812 15.1945 16.4812H40.5492C40.9289 16.4812 41.2312 16.7836 41.2312 17.1633C41.2312 17.5429 40.9218 17.8453 40.5492 17.8453ZM30.9093 12.5156H14.6531C14.2734 12.5156 13.9711 12.2133 13.9711 11.8336C13.9711 11.4539 14.2734 11.1515 14.6531 11.1515H30.9164C31.2961 11.1515 31.5984 11.4539 31.5984 11.8336C31.5984 12.2133 31.289 12.5156 30.9093 12.5156ZM30.9093 7.17888H14.6531C14.2734 7.17888 13.9711 6.87654 13.9711 6.49685C13.9711 6.11716 14.2734 5.81482 14.6531 5.81482H30.9164C31.2961 5.81482 31.5984 6.11716 31.5984 6.49685C31.5984 6.87654 31.289 7.17888 30.9093 7.17888Z" fill="#2B4255"/>
<path d="M10.8844 34.0453C10.8703 34.0453 10.8563 34.0453 10.8422 34.0453C9.28832 34.0383 7.83988 33.4265 6.75004 32.3226C5.66019 31.2187 5.06957 29.7633 5.0766 28.2164C5.09066 26.6625 5.70238 25.207 6.79926 24.1172C7.8891 23.0344 9.33754 22.4437 10.8704 22.4437C10.8844 22.4437 10.8985 22.4437 10.9125 22.4437C12.4594 22.4508 13.9149 23.0625 15.0047 24.1664C16.0946 25.2703 16.6922 26.7328 16.6782 28.2797C16.6641 29.8265 16.0524 31.282 14.9555 32.3719C13.8586 33.4476 12.4172 34.0453 10.8844 34.0453ZM10.8633 23.8008C9.6891 23.8008 8.58519 24.2578 7.75551 25.0804C6.91176 25.9172 6.44769 27.0281 6.43363 28.2164C6.4266 29.3976 6.88363 30.5156 7.71332 31.3593C8.54301 32.2031 9.66098 32.6742 10.8493 32.6742C10.8633 32.6742 10.8703 32.6742 10.8844 32.6742C12.0586 32.6742 13.1555 32.2242 13.9922 31.3945C14.836 30.5578 15.3071 29.4469 15.3141 28.2656C15.3211 27.0773 14.8641 25.9594 14.0274 25.1156C13.1907 24.2719 12.0797 23.8008 10.8985 23.7937C10.8914 23.8008 10.8774 23.8008 10.8633 23.8008Z" fill="#F05542"/>
<path d="M10.8844 34.0453C10.8703 34.0453 10.8563 34.0453 10.8422 34.0453C9.28832 34.0383 7.83988 33.4265 6.75004 32.3226C5.66019 31.2187 5.06957 29.7633 5.0766 28.2164C5.09066 26.6625 5.70238 25.207 6.79926 24.1172C7.8891 23.0344 9.33754 22.4437 10.8704 22.4437C10.8844 22.4437 10.8985 22.4437 10.9125 22.4437C12.4594 22.4508 13.9149 23.0625 15.0047 24.1664C16.0946 25.2703 16.6922 26.7328 16.6782 28.2797C16.6641 29.8265 16.0524 31.282 14.9555 32.3719C13.8586 33.4476 12.4172 34.0453 10.8844 34.0453ZM10.8633 23.8008C9.6891 23.8008 8.58519 24.2578 7.75551 25.0804C6.91176 25.9172 6.44769 27.0281 6.43363 28.2164C6.4266 29.3976 6.88363 30.5156 7.71332 31.3593C8.54301 32.2031 9.66098 32.6742 10.8493 32.6742C10.8633 32.6742 10.8703 32.6742 10.8844 32.6742C12.0586 32.6742 13.1555 32.2242 13.9922 31.3945C14.836 30.5578 15.3071 29.4469 15.3141 28.2656C15.3211 27.0773 14.8641 25.9594 14.0274 25.1156C13.1907 24.2719 12.0797 23.8008 10.8985 23.7937C10.8914 23.8008 10.8774 23.8008 10.8633 23.8008Z" fill="#F05542"/>
<path d="M12.5789 39.6492L9.04223 39.6281C8.69067 39.6281 8.39536 39.3539 8.36723 39.0023L8.20551 36.9421C6.86254 36.5343 5.63207 35.8101 4.60551 34.8328L2.72114 35.7117C2.3977 35.8593 2.01801 35.7398 1.84223 35.4304L0.0914488 32.3578C-0.0843324 32.0484 0.00707387 31.6546 0.302386 31.4578L2.01801 30.2835C1.85629 29.6085 1.77895 28.9054 1.78598 28.1953C1.79301 27.4851 1.87739 26.789 2.03911 26.114L0.344574 24.9187C0.0562926 24.7148 -0.0280824 24.321 0.147699 24.0187L1.93364 20.9742C2.10942 20.6578 2.48911 20.5382 2.81254 20.6929L4.68285 21.5789C5.73051 20.6156 6.96801 19.9125 8.31098 19.5187L8.49379 17.4515C8.52192 17.1 8.81723 16.8328 9.17582 16.8328C9.17582 16.8328 9.17582 16.8328 9.18286 16.8328L12.7125 16.8539C13.0641 16.8539 13.3594 17.1281 13.3875 17.4796L13.5493 19.5468C14.8922 19.9617 16.1227 20.6789 17.1493 21.6562L19.0336 20.7843C19.3571 20.6367 19.7368 20.7562 19.9125 21.0656L21.6563 24.1312C21.8321 24.4406 21.7407 24.8273 21.4524 25.0312L19.7438 26.2054C19.8985 26.8875 19.9758 27.5906 19.9758 28.3007C19.9688 29.0039 19.8844 29.7 19.7227 30.382L21.4102 31.5703C21.6985 31.7742 21.7829 32.1679 21.6071 32.4703L19.8282 35.5218C19.6524 35.8312 19.2657 35.9507 18.9422 35.796L17.0719 34.9031C16.0313 35.8734 14.7868 36.5765 13.4438 36.9632L13.261 39.0234C13.2258 39.375 12.9375 39.6492 12.5789 39.6492ZM9.68207 38.264L11.9602 38.2781L12.1289 36.3656C12.1571 36.0703 12.368 35.8242 12.6563 35.7609C14.0907 35.4304 15.4055 34.6851 16.4532 33.6023C16.6571 33.3914 16.9735 33.3351 17.2336 33.4617L18.9633 34.2914L20.1094 32.3226L18.5414 31.2187C18.3024 31.05 18.1969 30.7476 18.2813 30.4664C18.4922 29.7632 18.5977 29.032 18.6047 28.2937C18.6118 27.5484 18.5133 26.8171 18.3024 26.107C18.218 25.8257 18.3305 25.5234 18.5696 25.3546L20.1516 24.2648L19.0266 22.282L17.2758 23.0906C17.0086 23.2101 16.6922 23.1539 16.4954 22.9429C15.4618 21.8531 14.161 21.0937 12.7266 20.7351C12.4383 20.6648 12.2344 20.4187 12.2133 20.1234L12.0657 18.2039L9.78754 18.1898L9.61879 20.1093C9.59067 20.4046 9.37973 20.6437 9.09848 20.714C7.66411 21.0515 6.34926 21.7968 5.3016 22.8726C5.0977 23.0835 4.78832 23.1398 4.52114 23.0132L2.79145 22.1906L1.63832 24.1593L3.21332 25.2632C3.45239 25.432 3.55786 25.7343 3.47348 26.0156C3.26254 26.7117 3.15707 27.4499 3.15004 28.1953C3.14301 28.9406 3.24848 29.6718 3.45239 30.3679C3.53676 30.6492 3.43129 30.9585 3.1852 31.1273L1.58911 32.2171L2.72114 34.2L4.47192 33.3843C4.73911 33.2578 5.05551 33.321 5.25239 33.532C6.27895 34.6218 7.57973 35.3882 9.01411 35.7398C9.30239 35.8101 9.50629 36.0562 9.53442 36.3515L9.68207 38.264ZM10.8844 34.0453C10.8704 34.0453 10.8563 34.0453 10.8422 34.0453C9.28832 34.0382 7.83286 33.4265 6.74301 32.3226C5.65317 31.2187 5.06254 29.7632 5.06957 28.2164C5.08364 26.6625 5.69536 25.207 6.79223 24.1171C7.88207 23.0343 9.33051 22.4437 10.8633 22.4437C10.8774 22.4437 10.8914 22.4437 10.9055 22.4437C12.4524 22.4507 13.9079 23.0625 14.9977 24.1664C16.0875 25.2703 16.6852 26.7328 16.6711 28.2796C16.6571 29.8265 16.0454 31.282 14.9485 32.3718C13.8586 33.4476 12.4172 34.0453 10.8844 34.0453ZM10.8704 23.8007C9.69614 23.8007 8.59223 24.2578 7.76254 25.0804C6.91879 25.9171 6.45473 27.0281 6.44067 28.2164C6.43364 29.3976 6.89067 30.5156 7.72035 31.3593C8.55004 32.2031 9.66801 32.6742 10.8563 32.6742C10.8633 32.6742 10.8774 32.6742 10.8914 32.6742C12.0586 32.6742 13.1625 32.2242 13.9993 31.3945C14.843 30.5578 15.3141 29.4468 15.3211 28.2656C15.3282 27.0773 14.8711 25.9593 14.0344 25.1156C13.1977 24.2718 12.0868 23.8007 10.9055 23.7937C10.8914 23.8007 10.8774 23.8007 10.8704 23.8007Z" fill="#F05542"/>
</g>
<defs>
<clipPath id="clip0_467_3214">
<rect width="45" height="45" fill="white"/>
</clipPath>
</defs>
</svg>
