<svg width="57" height="57" viewBox="0 0 57 57" fill="none" xmlns="http://www.w3.org/2000/svg">
<path d="M28.5 0.0625C12.7959 0.0625 0.0625 12.7959 0.0625 28.5C0.0625 44.2041 12.7959 56.9375 28.5 56.9375C44.2041 56.9375 56.9375 44.2041 56.9375 28.5C56.9375 12.7959 44.2041 0.0625 28.5 0.0625ZM40.6875 30.0234C40.6875 30.3027 40.459 30.5312 40.1797 30.5312H30.5312V40.1797C30.5312 40.459 30.3027 40.6875 30.0234 40.6875H26.9766C26.6973 40.6875 26.4688 40.459 26.4688 40.1797V30.5312H16.8203C16.541 30.5312 16.3125 30.3027 16.3125 30.0234V26.9766C16.3125 26.6973 16.541 26.4688 16.8203 26.4688H26.4688V16.8203C26.4688 16.541 26.6973 16.3125 26.9766 16.3125H30.0234C30.3027 16.3125 30.5312 16.541 30.5312 16.8203V26.4688H40.1797C40.459 26.4688 40.6875 26.6973 40.6875 26.9766V30.0234Z" fill="#EF6351"/>
</svg>
