<svg width="45" height="45" viewBox="0 0 45 45" fill="none" xmlns="http://www.w3.org/2000/svg">
<g clip-path="url(#clip0_467_3159)">
<path d="M41.0906 1.6917C41.0216 1.69086 40.9529 1.70034 40.8867 1.71983L24.9961 6.3942C24.9089 6.41996 24.8277 6.46264 24.757 6.5198C24.6863 6.57696 24.6276 6.64747 24.5842 6.72732C24.5408 6.80718 24.5135 6.8948 24.504 6.98519C24.4944 7.07557 24.5027 7.16696 24.5285 7.25412C24.5543 7.34129 24.5969 7.42253 24.6541 7.4932C24.7113 7.56387 24.7818 7.62259 24.8616 7.66601C24.9415 7.70943 25.0291 7.73669 25.1195 7.74625C25.2099 7.7558 25.3013 7.74746 25.3884 7.7217L40.5984 3.24983L40.6687 3.51139C40.3565 3.8503 40.1583 4.2778 40.2834 4.74889C40.41 5.22139 40.7967 5.48858 41.2354 5.62639L41.3845 6.18608C41.0723 6.52498 40.8741 6.95248 41.0006 7.42358C41.1272 7.89608 41.5125 8.16326 41.9526 8.30108L42.1017 8.86076C41.7895 9.19967 41.5912 9.62717 41.7178 10.0983C41.8444 10.5708 42.2297 10.8408 42.6698 10.9786L42.8175 11.5355C42.5067 11.8744 42.307 12.3019 42.4336 12.773C42.5601 13.2455 42.9469 13.5155 43.3856 13.6533L43.4644 13.9486L28.4273 18.3698C28.3385 18.394 28.2554 18.4356 28.1829 18.4922C28.1104 18.5489 28.0499 18.6194 28.0049 18.6997C27.96 18.78 27.9316 18.8685 27.9212 18.96C27.9109 19.0514 27.919 19.144 27.9449 19.2323C27.9708 19.3206 28.014 19.4029 28.0721 19.4742C28.1302 19.5456 28.202 19.6047 28.2832 19.648C28.3644 19.6913 28.4534 19.718 28.545 19.7264C28.6367 19.7349 28.7291 19.725 28.8169 19.6973L44.5036 15.0862C44.6769 15.0352 44.8234 14.9183 44.9117 14.7606C45 14.6029 45.0231 14.417 44.9761 14.2425L44.6189 12.9065C44.5954 12.8186 44.5548 12.7361 44.4993 12.6638C44.4439 12.5916 44.3747 12.531 44.2958 12.4855C44.2169 12.44 44.1298 12.4106 44.0395 12.3989C43.9492 12.3871 43.8574 12.3934 43.7695 12.4172C43.8576 12.3938 43.9403 12.3533 44.0127 12.2979C44.0851 12.2426 44.1459 12.1734 44.1915 12.0945C44.2371 12.0156 44.2666 11.9284 44.2784 11.838C44.2902 11.7476 44.2841 11.6558 44.2603 11.5678L43.9031 10.2319C43.8799 10.1436 43.8395 10.0608 43.7842 9.98826C43.7289 9.91569 43.6598 9.85478 43.5808 9.80903C43.5019 9.76329 43.4147 9.73361 43.3242 9.7217C43.2337 9.7098 43.1418 9.71591 43.0537 9.73967C43.2308 9.6922 43.3818 9.57638 43.4736 9.41765C43.5653 9.25892 43.5904 9.07026 43.5431 8.89311L43.1859 7.55436C43.1624 7.46637 43.1218 7.38388 43.0664 7.31162C43.0109 7.23936 42.9418 7.17877 42.8628 7.1333C42.7839 7.08783 42.6968 7.05839 42.6065 7.04667C42.5162 7.03495 42.4245 7.04117 42.3365 7.06498C42.5136 7.01751 42.6647 6.90169 42.7564 6.74296C42.8482 6.58423 42.8732 6.39557 42.8259 6.21842L42.4687 4.87967C42.4452 4.79183 42.4047 4.70948 42.3493 4.63734C42.294 4.56519 42.225 4.50466 42.1462 4.45921C42.0674 4.41376 41.9805 4.38428 41.8903 4.37246C41.8002 4.36063 41.7086 4.36669 41.6208 4.3903C41.7979 4.34283 41.9489 4.22701 42.0406 4.06828C42.1324 3.90955 42.1574 3.72089 42.1101 3.54373L41.7529 2.20498C41.7139 2.05876 41.628 1.92938 41.5083 1.83667C41.3887 1.74396 41.242 1.69303 41.0906 1.6917V1.6917Z" fill="#2B4255"/>
<path d="M26.8257 13.3735L40.1991 9.78894L40.5591 11.1263L27.1843 14.7108L26.8257 13.3735ZM27.5429 16.0482L40.9163 12.4636L41.2749 13.801L27.9015 17.3855L27.5429 16.0482Z" fill="#F05542"/>
<path d="M21.0375 4.70391L11.6719 7.21126C11.5004 7.26398 11.3561 7.38109 11.2692 7.53798C11.1823 7.69487 11.1596 7.87934 11.2058 8.05263C11.252 8.22592 11.3636 8.37455 11.5172 8.4673C11.6707 8.56004 11.8541 8.58969 12.0291 8.55001L21.3919 6.03985C21.7431 5.94272 22.1102 5.91643 22.4718 5.96253C22.8333 6.00863 23.182 6.12618 23.4977 6.30835C23.8133 6.49053 24.0896 6.73368 24.3104 7.02364C24.5312 7.31361 24.6921 7.6446 24.7837 7.99735L30.877 30.7364C30.9741 31.0878 31.0003 31.455 30.9542 31.8166C30.908 32.1782 30.7903 32.527 30.608 32.8426C30.4257 33.1583 30.1824 33.4346 29.8923 33.6553C29.6021 33.876 29.271 34.0368 28.9181 34.1283L19.5553 36.6356C19.3809 36.6861 19.2333 36.803 19.1441 36.9612C19.055 37.1194 19.0315 37.3063 19.0786 37.4816C19.1258 37.6569 19.2398 37.8068 19.3963 37.8989C19.5527 37.9911 19.7391 38.0182 19.9153 37.9744L29.2781 35.4642C30.3413 35.1778 31.2475 34.4816 31.7981 33.5281C32.3488 32.5747 32.499 31.4418 32.2158 30.3778L26.1225 7.64157C25.8361 6.57812 25.1396 5.67166 24.1859 5.12096C23.2321 4.57027 22.0989 4.42029 21.0347 4.70391H21.0375Z" fill="#2B4255"/>
<path d="M18.3612 5.42105L8.99834 7.92699L6.42632 8.61605L1.24708 10.004C0.389268 10.2346 -0.181656 11.1178 0.0517812 11.9896L7.46272 39.6478C7.69616 40.5196 8.62989 40.9978 9.48771 40.7686L14.6698 39.3806L17.2432 38.6915L26.6018 36.1814C27.6653 35.8949 28.5718 35.1985 29.1228 34.2448C29.6737 33.2911 29.824 32.1579 29.5408 31.0935L23.449 8.3573C23.1623 7.29411 22.4657 6.38799 21.5119 5.83757C20.5582 5.28716 19.4252 5.13737 18.3612 5.42105V5.42105ZM18.7183 6.75699C19.0696 6.65985 19.4367 6.63357 19.7982 6.67966C20.1598 6.72576 20.5085 6.84332 20.8242 7.02549C21.1398 7.20766 21.4161 7.45081 21.6369 7.74078C21.8577 8.03075 22.0186 8.36174 22.1102 8.71449L28.2035 31.4535C28.3006 31.8049 28.3268 32.1721 28.2807 32.5337C28.2345 32.8953 28.1168 33.2441 27.9345 33.5598C27.7522 33.8755 27.5089 34.1517 27.2187 34.3724C26.9286 34.5931 26.5975 34.7539 26.2446 34.8454L16.8818 37.3528L14.3097 38.0418L9.13194 39.4298C8.94631 39.479 8.82678 39.3961 8.79866 39.2892L1.38771 11.6296C1.35959 11.5228 1.42007 11.3934 1.60429 11.3428L6.78631 9.9562L9.35553 9.26714L18.7183 6.75699V6.75699Z" fill="#2B4255"/>
<path d="M15.6445 11.1811C14.4534 11.015 13.241 11.0906 12.0797 11.4033C9.77567 12.0239 7.81182 13.533 6.61892 15.5995C5.42601 17.6661 5.10146 20.1214 5.71643 22.4269C6.33701 24.7307 7.84586 26.6942 9.91209 27.8871C11.9783 29.08 14.4333 29.4048 16.7386 28.7902C19.0427 28.1706 21.0069 26.6622 22.2001 24.5961C23.3933 22.5299 23.7181 20.0748 23.1033 17.7694C22.6437 16.0605 21.6915 14.5246 20.3652 13.3531C19.0388 12.1816 17.3971 11.4262 15.6445 11.1811V11.1811ZM15.4603 12.5494C16.6585 12.7154 17.7328 13.2441 18.7102 13.9261L13.8235 15.234L13.1442 12.6957C13.9247 12.5635 14.7094 12.4454 15.4603 12.5494V12.5494ZM11.8069 13.0557L12.4847 15.5954L7.59799 16.9032C8.01253 16.0169 8.5976 15.221 9.31977 14.5608C10.0419 13.9007 10.8871 13.3892 11.8069 13.0557V13.0557ZM19.9716 15.0244C20.6142 15.7276 21.1008 16.5544 21.451 17.4938L14.9006 19.2488L14.1835 16.5741L19.9716 15.0244ZM12.8447 16.9341L13.5619 19.6088L7.00876 21.3638C6.83732 20.4099 6.85308 19.4317 7.05517 18.4838L12.8447 16.9341V16.9341ZM21.8096 18.8326C21.9809 19.7865 21.9646 20.7648 21.7617 21.7126L15.9736 23.2622L15.2564 20.5876L21.8096 18.8326V18.8326ZM13.9191 20.9447L14.6363 23.6222L8.85096 25.1719C8.20074 24.4522 7.69726 23.6124 7.36878 22.6997L13.9191 20.9447V20.9447ZM21.2203 23.289C20.8064 24.1759 20.2218 24.9726 19.4999 25.6335C18.7779 26.2944 17.9328 26.8066 17.0128 27.1407L16.3336 24.5982L21.2203 23.2904V23.289ZM14.9949 24.9582L15.6769 27.4979C14.7128 27.6689 13.7245 27.6482 12.7684 27.4368C11.8124 27.2254 10.9074 26.8276 10.1053 26.266L14.9949 24.9582V24.9582Z" fill="#F05542"/>
<path fill-rule="evenodd" clip-rule="evenodd" d="M8.9606 13.2792C8.25326 18.9675 9.22499 23.9892 12.929 28.7114L14.0161 27.8564C10.5286 23.4098 9.6567 18.8943 10.3345 13.4535L8.9606 13.2792V13.2792ZM15.66 11.4862L14.5533 12.3229C17.8622 16.6964 19.3626 21.0417 18.5667 26.6371L19.9378 26.8312C20.7844 20.8898 19.118 16.0579 15.66 11.4862V11.4862Z" fill="#F05542"/>
<path d="M8.76379 34.2379L9.36145 36.4711L10.0252 36.2939L9.8635 35.6906L10.2151 35.5978C10.7916 35.4431 11.0391 35.0494 10.8971 34.5164C10.7621 34.0101 10.3529 33.8133 9.7763 33.9665L8.76379 34.2379V34.2379ZM9.56256 34.5698L9.88176 34.4854C10.0786 34.432 10.2221 34.5094 10.2755 34.7034C10.329 34.9045 10.2432 35.0437 10.0449 35.0972L9.72709 35.1815L9.56256 34.5698V34.5698ZM12.7674 35.1759L12.9924 35.4979L13.6997 35.3081L12.181 33.3225L11.5004 33.5053L11.146 35.993L11.828 35.8101L11.866 35.4164L12.766 35.1773L12.7674 35.1759ZM12.4622 34.74L11.9208 34.8834L11.9996 34.0819L12.4622 34.7386V34.74ZM14.1652 32.76C13.6083 32.909 13.3144 33.2803 13.4297 33.7106C13.6407 34.4981 14.7502 33.9722 14.8402 34.3097C14.8683 34.4123 14.791 34.484 14.6504 34.5206C14.4211 34.5825 14.0091 34.5347 13.7279 34.4025L13.6154 34.9734C13.9529 35.1169 14.4029 35.1408 14.7825 35.0381C15.2832 34.9045 15.6432 34.5656 15.5152 34.0917C15.3001 33.2859 14.1863 33.7922 14.0977 33.4645C14.0752 33.3801 14.1399 33.3239 14.2496 33.293C14.438 33.2437 14.7952 33.2733 15.0596 33.3436L15.1679 32.767C14.8406 32.673 14.4938 32.6706 14.1652 32.76V32.76ZM16.2493 32.2017C15.6924 32.3508 15.3985 32.722 15.5138 33.1523C15.7247 33.9398 16.8343 33.4139 16.9243 33.7514C16.9524 33.854 16.875 33.9244 16.7344 33.9623C16.5052 34.0242 16.0932 33.9764 15.8119 33.8442L15.6994 34.4137C16.0369 34.5586 16.4869 34.5825 16.8666 34.4798C17.3672 34.3462 17.7272 34.0073 17.5993 33.5334C17.3841 32.7276 16.2704 33.2339 16.1818 32.9062C16.1593 32.8219 16.224 32.7656 16.335 32.7347C16.5221 32.684 16.8793 32.715 17.1436 32.7853L17.2519 32.2087C16.9246 32.1147 16.5778 32.1123 16.2493 32.2017V32.2017ZM17.4235 31.9176L18.0225 34.1508L18.6835 33.9722L18.5232 33.3703L18.8747 33.2775C19.4513 33.1228 19.7002 32.729 19.5568 32.1947C19.4218 31.6884 19.0139 31.4915 18.4374 31.6462L17.4249 31.9176H17.4235ZM18.2236 32.2495L18.5415 32.1651C18.7383 32.1117 18.8832 32.189 18.9352 32.3831C18.9886 32.5842 18.9029 32.7234 18.706 32.7769L18.3868 32.8612L18.2236 32.2495V32.2495ZM20.6846 31.0233C19.9843 31.2103 19.5976 31.8262 19.7733 32.483C19.9491 33.1425 20.596 33.4912 21.2963 33.3042C21.998 33.1158 22.3819 32.4872 22.2061 31.8304C22.0318 31.1779 21.3863 30.8348 20.686 31.0233H20.6846ZM20.8435 31.5745C21.1374 31.4958 21.4383 31.6786 21.5283 32.0161C21.6183 32.3536 21.451 32.6686 21.1571 32.7473C20.8646 32.8247 20.5426 32.6419 20.4526 32.3044C20.3612 31.9669 20.5468 31.6547 20.8435 31.5745V31.5745ZM24.0652 32.5308L24.8175 32.3297L24.1707 31.7208C24.3746 31.5197 24.4435 31.2426 24.3549 30.9108C24.2199 30.4045 23.7994 30.209 23.2004 30.3694L22.1583 30.6492L22.756 32.8823L23.4197 32.7037L23.258 32.1019L23.6096 32.0076L24.0652 32.5308ZM23.1216 31.5928L22.9571 30.9811L23.3368 30.8798C23.5336 30.8264 23.6771 30.9037 23.7305 31.0978C23.784 31.2989 23.6982 31.4381 23.4999 31.4915L23.1202 31.5928H23.1216ZM26.401 30.0783L26.2604 29.5495L24.2972 30.0754L24.4393 30.6042L25.0862 30.4312L25.5432 32.1356L26.2083 31.957L25.7513 30.2526L26.401 30.0783V30.0783ZM29.5425 7.91998L29.4019 7.39123L27.4388 7.91717L27.5794 8.44592L28.2263 8.27295L28.6833 9.97732L29.3499 9.79873L28.8929 8.09436L29.5425 7.91998V7.91998ZM29.8547 6.92154C29.8102 6.9315 29.7683 6.9506 29.7315 6.97764C29.6948 7.00467 29.6641 7.03905 29.6413 7.07859C29.6186 7.11812 29.6043 7.16196 29.5994 7.20731C29.5945 7.25266 29.5991 7.29853 29.6129 7.34201C29.6649 7.53607 29.8379 7.63732 30.0333 7.58389C30.0778 7.57393 30.1198 7.55483 30.1565 7.52779C30.1933 7.50076 30.224 7.46638 30.2467 7.42684C30.2695 7.38731 30.2837 7.34347 30.2887 7.29812C30.2936 7.25277 30.289 7.2069 30.2752 7.16342C30.2653 7.11891 30.2461 7.07695 30.2191 7.04021C30.1921 7.00348 30.1577 6.97276 30.1182 6.95002C30.0786 6.92727 30.0348 6.913 29.9894 6.90809C29.9441 6.90319 29.8982 6.90777 29.8547 6.92154V6.92154ZM30.8588 9.39373L30.3947 7.66123L29.7507 7.8342L30.2147 9.5667L30.8588 9.39373ZM31.5521 7.32654C31.0036 7.4742 30.7393 7.92701 30.8841 8.46561C31.0262 8.99717 31.4776 9.25311 32.0232 9.10686C32.4043 9.0042 32.6532 8.76232 32.7108 8.44029L32.1427 8.32217C32.1244 8.46842 32.0443 8.5542 31.9205 8.58795C31.749 8.63295 31.5943 8.51482 31.5338 8.28842C31.4747 8.06904 31.5479 7.88764 31.7208 7.84123C31.7786 7.82588 31.8394 7.82696 31.8966 7.84435C31.9537 7.86175 32.0049 7.89476 32.0443 7.93967L32.4732 7.56561C32.2482 7.31811 31.9149 7.22951 31.5521 7.32654V7.32654ZM33.6685 7.99592L34.1466 8.51342L34.906 8.30951L33.9849 7.41654L34.4391 6.57701L33.7135 6.77248L33.3746 7.41936L33.0652 6.26904L32.4226 6.44201L33.0554 8.80451L33.6994 8.63295L33.5743 8.16889L33.6685 7.99592V7.99592Z" fill="#F05542"/>
<path d="M35.3222 6.31683C34.7738 6.46308 34.5024 6.91589 34.6472 7.45589C34.7906 7.98886 35.2378 8.24339 35.8172 8.0887C36.1463 8.00151 36.3769 7.82011 36.5063 7.5712L36.083 7.33214C36.0083 7.46067 35.8877 7.55614 35.7455 7.59933C35.5796 7.64433 35.4333 7.58526 35.3377 7.43198L36.5049 7.11979C36.3713 6.47292 35.9311 6.1537 35.3236 6.31823L35.3222 6.31683ZM35.2406 7.1212C35.2266 6.93698 35.2969 6.79214 35.446 6.75136C35.6006 6.70917 35.7413 6.80198 35.7849 6.97495L35.2406 7.1212V7.1212ZM37.883 6.94823C37.8279 6.99236 37.7662 7.02748 37.7002 7.05229C37.6102 7.0762 37.5385 7.03823 37.5075 6.92573L37.3486 6.3337L37.7761 6.21979L37.6664 5.80776L37.2389 5.92308L37.111 5.44214L36.4697 5.6137L36.5991 6.09464L36.36 6.15792L36.4697 6.56995L36.7088 6.50526L36.8944 7.19714C36.99 7.55573 37.2966 7.70339 37.665 7.60073C37.8322 7.55886 37.9867 7.4768 38.115 7.36167L37.883 6.94823V6.94823Z" fill="#F05542"/>
<path fill-rule="evenodd" clip-rule="evenodd" d="M1.38379 39.4397V40.8249H15.2297V39.4397H1.38379ZM16.6135 39.4397V40.8249H18.0001V39.4397H16.6149H16.6135ZM19.3838 39.4397V40.8249H22.1541V39.4397H19.3838ZM23.5379 39.4397V40.8249H24.923V39.4397H23.5379ZM14.5379 42.21V43.5938H21.4608V42.21H14.5379ZM11.7675 42.21V43.5938H13.1527V42.21H11.769H11.7675ZM8.99864 42.21V43.5938H10.3838V42.21H8.99864ZM26.3082 39.4397V40.8249H33.2311V39.4397H26.3082Z" fill="#F05542"/>
</g>
<defs>
<clipPath id="clip0_467_3159">
<rect width="45" height="45" fill="white"/>
</clipPath>
</defs>
</svg>
