<svg width="45" height="45" viewBox="0 0 45 45" fill="none" xmlns="http://www.w3.org/2000/svg">
<path d="M10.2155 43.2422H34.7845C35.9061 43.2394 36.9812 42.7932 37.7753 42.001C38.5694 41.2088 39.018 40.1347 39.0234 39.0131V12.1405C39.0197 11.9564 38.9449 11.781 38.8147 11.6508L29.4238 1.9764C29.3576 1.90807 29.2784 1.85357 29.191 1.81605C29.1035 1.77853 29.0094 1.75873 28.9143 1.75781H10.2155C9.09385 1.76063 8.01878 2.20679 7.22471 2.99901C6.43064 3.79124 5.98199 4.86527 5.97656 5.98693V39.0131C5.98199 40.1347 6.43064 41.2088 7.22471 42.001C8.01878 42.7932 9.09385 43.2394 10.2155 43.2422ZM29.6191 4.20513L36.6376 11.4258H30.6721C30.5343 11.4269 30.3977 11.4007 30.2701 11.3488C30.1425 11.2969 30.0264 11.2203 29.9286 11.1233C29.8307 11.0264 29.753 10.911 29.6999 10.7839C29.6468 10.6568 29.6193 10.5205 29.6191 10.3827V4.20513ZM7.38281 5.98693C7.38781 5.2381 7.68817 4.52151 8.21861 3.99291C8.74905 3.46432 9.46668 3.16645 10.2155 3.16406H28.2129V10.3827C28.2133 10.7051 28.2772 11.0242 28.401 11.3219C28.5249 11.6195 28.7062 11.8898 28.9346 12.1173C29.163 12.3448 29.434 12.525 29.7322 12.6477C30.0303 12.7703 30.3497 12.833 30.6721 12.832H37.6172V39.0131C37.6122 39.7619 37.3118 40.4785 36.7814 41.0071C36.251 41.5357 35.5333 41.8335 34.7845 41.8359H10.2155C9.46668 41.8335 8.74905 41.5357 8.21861 41.0071C7.68817 40.4785 7.38781 39.7619 7.38281 39.0131V5.98693Z" fill="#2B4255"/>
<path d="M18.6328 26.8945C18.6328 26.7081 18.5587 26.5292 18.4269 26.3973C18.295 26.2655 18.1162 26.1914 17.9297 26.1914H12.3047C12.1182 26.1914 11.9394 26.2655 11.8075 26.3973C11.6756 26.5292 11.6016 26.7081 11.6016 26.8945V31.9922C11.6016 32.1787 11.6756 32.3575 11.8075 32.4894C11.9394 32.6212 12.1182 32.6953 12.3047 32.6953H17.9297C18.1162 32.6953 18.295 32.6212 18.4269 32.4894C18.5587 32.3575 18.6328 32.1787 18.6328 31.9922V26.8945ZM17.2266 31.2891H13.0078V27.5977H17.2266V31.2891Z" fill="#2B4255"/>
<path d="M13.7242 30.0607L14.4492 30.6374C14.5907 30.75 14.7701 30.8037 14.9501 30.7874C15.1301 30.7712 15.297 30.6862 15.416 30.5502L16.5694 29.2318C16.6308 29.1624 16.6778 29.0816 16.7079 28.9939C16.7379 28.9063 16.7503 28.8136 16.7444 28.7211C16.7385 28.6286 16.7143 28.5383 16.6734 28.4552C16.6324 28.3721 16.5754 28.2979 16.5057 28.2369C16.436 28.1759 16.3549 28.1292 16.2671 28.0997C16.1793 28.0701 16.0865 28.0582 15.9941 28.0646C15.9017 28.071 15.8114 28.0956 15.7285 28.137C15.6456 28.1784 15.5718 28.2358 15.5111 28.3058L14.7992 29.119L14.5992 28.96C14.527 28.9025 14.4441 28.8598 14.3553 28.8343C14.2666 28.8089 14.1737 28.8012 14.0819 28.8116C13.9902 28.8221 13.9014 28.8505 13.8206 28.8952C13.7399 28.94 13.6687 29.0002 13.6112 29.0725C13.5537 29.1448 13.5111 29.2276 13.4856 29.3164C13.4601 29.4052 13.4524 29.4981 13.4629 29.5898C13.4733 29.6816 13.5017 29.7704 13.5465 29.8511C13.5913 29.9319 13.6515 30.003 13.7238 30.0605L13.7242 30.0607ZM31.8486 27.2461H20.8245C20.6381 27.2461 20.4592 27.3202 20.3274 27.452C20.1955 27.5839 20.1214 27.7627 20.1214 27.9492C20.1214 28.1357 20.1955 28.3145 20.3274 28.4464C20.4592 28.5783 20.6381 28.6523 20.8245 28.6523H31.8486C32.0351 28.6523 32.2139 28.5783 32.3458 28.4464C32.4776 28.3145 32.5517 28.1357 32.5517 27.9492C32.5517 27.7627 32.4776 27.5839 32.3458 27.452C32.2139 27.3202 32.0351 27.2461 31.8486 27.2461ZM18.6328 34.6289C18.6328 34.4424 18.5587 34.2636 18.4269 34.1317C18.295 33.9999 18.1162 33.9258 17.9297 33.9258H12.3047C12.1182 33.9258 11.9394 33.9999 11.8075 34.1317C11.6756 34.2636 11.6016 34.4424 11.6016 34.6289V39.7266C11.6016 39.913 11.6756 40.0919 11.8075 40.2237C11.9394 40.3556 12.1182 40.4297 12.3047 40.4297H17.9297C18.1162 40.4297 18.295 40.3556 18.4269 40.2237C18.5587 40.0919 18.6328 39.913 18.6328 39.7266V34.6289ZM17.2266 39.0234H13.0078V35.332H17.2266V39.0234Z" fill="#2B4255"/>
<path d="M13.7242 37.8052L14.4492 38.3818C14.5907 38.4944 14.7701 38.5481 14.9501 38.5318C15.1301 38.5156 15.297 38.4306 15.416 38.2946L16.5694 36.9762C16.6308 36.9068 16.6778 36.826 16.7079 36.7383C16.7379 36.6507 16.7503 36.5579 16.7444 36.4655C16.7385 36.373 16.7143 36.2827 16.6734 36.1996C16.6324 36.1165 16.5754 36.0423 16.5057 35.9813C16.436 35.9203 16.3549 35.8736 16.2671 35.8441C16.1793 35.8145 16.0865 35.8026 15.9941 35.809C15.9017 35.8154 15.8114 35.84 15.7285 35.8814C15.6456 35.9228 15.5718 35.9801 15.5111 36.0502L14.7992 36.8634L14.5992 36.7044C14.453 36.5905 14.2678 36.5388 14.0838 36.5606C13.8998 36.5825 13.7318 36.6761 13.6164 36.8211C13.501 36.9662 13.4476 37.1509 13.4677 37.3351C13.4878 37.5193 13.5798 37.6882 13.7238 37.8049L13.7242 37.8052ZM31.8486 34.9805H20.8245C20.6381 34.9805 20.4592 35.0545 20.3274 35.1864C20.1955 35.3183 20.1214 35.4971 20.1214 35.6836C20.1214 35.8701 20.1955 36.0489 20.3274 36.1808C20.4592 36.3126 20.6381 36.3867 20.8245 36.3867H31.8486C32.0351 36.3867 32.2139 36.3126 32.3458 36.1808C32.4776 36.0489 32.5517 35.8701 32.5517 35.6836C32.5517 35.4971 32.4776 35.3183 32.3458 35.1864C32.2139 35.0545 32.0351 34.9805 31.8486 34.9805ZM10.5386 18.2155L13.0605 19.3061C14.4426 19.904 15.9323 20.2132 17.4381 20.2148H20.8172L18.532 24.3596C18.4732 24.4666 18.4432 24.5871 18.4452 24.7092C18.4471 24.8313 18.4808 24.9508 18.543 25.0559C18.6053 25.1609 18.6938 25.248 18.7999 25.3084C18.906 25.3688 19.0261 25.4005 19.1482 25.4004H22.3701C22.4703 25.4014 22.5695 25.3809 22.6611 25.3401C22.7526 25.2994 22.8343 25.2394 22.9006 25.1643L27.2114 20.2148H32.6287C33.1763 20.2128 33.7046 20.0122 34.1155 19.6501C34.5264 19.288 34.792 18.7892 34.8629 18.2462C34.9338 17.7031 34.8053 17.1528 34.5012 16.6974C34.1971 16.2419 33.738 15.9123 33.2093 15.7697L32.7066 15.6332C32.5996 15.6049 32.5006 15.5521 32.4174 15.4791C32.3341 15.406 32.269 15.3146 32.2271 15.2121C32.0698 14.8193 31.7979 14.4829 31.447 14.2466C31.096 14.0102 30.6821 13.8849 30.259 13.8867H14.4844L12.6642 10.9731C12.6014 10.871 12.5138 10.7866 12.4097 10.7274C12.3055 10.6683 12.1881 10.6364 12.0684 10.6348H10.8212C10.6327 10.6363 10.4523 10.7117 10.3188 10.8449C10.1853 10.978 10.1094 11.1582 10.1074 11.3467V17.5693C10.1085 17.7073 10.1499 17.842 10.2265 17.9568C10.3031 18.0716 10.4116 18.1616 10.5386 18.2155ZM30.923 15.737C31.047 16.0417 31.2398 16.3135 31.4864 16.5311C31.733 16.7488 32.0267 16.9064 32.3444 16.9915L32.847 17.1245C33.046 17.1797 33.2185 17.3048 33.3327 17.4769C33.4468 17.649 33.4951 17.8565 33.4685 18.0613C33.442 18.2661 33.3424 18.4544 33.1881 18.5917C33.0338 18.729 32.8352 18.806 32.6287 18.8086H26.8911C26.7909 18.8076 26.6917 18.8281 26.6001 18.8689C26.5086 18.9096 26.4269 18.9696 26.3606 19.0447L22.0498 23.9941H20.3379L22.623 19.8352C22.6819 19.7295 22.7119 19.6102 22.71 19.4893C22.708 19.3683 22.6743 19.25 22.6121 19.1462C22.5495 19.0419 22.4606 18.9558 22.3543 18.8965C22.248 18.8373 22.128 18.807 22.0063 18.8086H17.4381C16.1221 18.8067 14.8202 18.5363 13.6123 18.0138L11.5137 17.1059V15.293H30.259C30.4015 15.2917 30.541 15.3334 30.6595 15.4126C30.7779 15.4918 30.8698 15.6048 30.923 15.737ZM11.5137 12.041H11.6792L12.8247 13.8867H11.5137V12.041ZM20.8245 31.6406H28.3329C28.5194 31.6406 28.6983 31.5665 28.8301 31.4347C28.962 31.3028 29.0361 31.124 29.0361 30.9375C29.0361 30.751 28.962 30.5722 28.8301 30.4403C28.6983 30.3085 28.5194 30.2344 28.3329 30.2344H20.8245C20.6381 30.2344 20.4592 30.3085 20.3274 30.4403C20.1955 30.5722 20.1214 30.751 20.1214 30.9375C20.1214 31.124 20.1955 31.3028 20.3274 31.4347C20.4592 31.5665 20.6381 31.6406 20.8245 31.6406ZM28.3329 37.9688H20.8245C20.6381 37.9688 20.4592 38.0428 20.3274 38.1747C20.1955 38.3066 20.1214 38.4854 20.1214 38.6719C20.1214 38.8584 20.1955 39.0372 20.3274 39.1691C20.4592 39.3009 20.6381 39.375 20.8245 39.375H28.3329C28.5194 39.375 28.6983 39.3009 28.8301 39.1691C28.962 39.0372 29.0361 38.8584 29.0361 38.6719C29.0361 38.4854 28.962 38.3066 28.8301 38.1747C28.6983 38.0428 28.5194 37.9688 28.3329 37.9688Z" fill="#F05542"/>
</svg>
