<svg width="45" height="45" viewBox="0 0 45 45" fill="none" xmlns="http://www.w3.org/2000/svg">
<path d="M9.78049 40.3875C9.40081 40.3875 9.09846 40.0852 9.09846 39.7055V25.3406H3.63518V39.7055C3.63518 40.0852 3.33284 40.3875 2.95315 40.3875C2.57346 40.3875 2.27112 40.0852 2.27112 39.7055V24.6586C2.27112 24.2789 2.57346 23.9766 2.95315 23.9766H9.78049C10.1602 23.9766 10.4625 24.2789 10.4625 24.6586V39.7055C10.4625 40.0852 10.1602 40.3875 9.78049 40.3875Z" fill="#2B4255"/>
<path d="M20.5312 40.3875C20.1515 40.3875 19.8492 40.0852 19.8492 39.7055V25.3406H14.3859V39.7055C14.3859 40.0852 14.0836 40.3875 13.7039 40.3875C13.3242 40.3875 13.0219 40.0852 13.0219 39.7055V24.6586C13.0219 24.2789 13.3242 23.9766 13.7039 23.9766H20.5312C20.9109 23.9766 21.2133 24.2789 21.2133 24.6586V39.7055C21.2133 40.0852 20.9109 40.3875 20.5312 40.3875V40.3875Z" fill="#DF4731"/>
<path d="M31.289 40.3875C30.9094 40.3875 30.607 40.0851 30.607 39.7054V19.3429H25.1437V39.7054C25.1437 40.0851 24.8414 40.3875 24.4617 40.3875C24.082 40.3875 23.7797 40.0851 23.7797 39.7054V18.6609C23.7797 18.2812 24.082 17.9789 24.4617 17.9789H31.289C31.6687 17.9789 31.9711 18.2812 31.9711 18.6609V39.7054C31.9711 40.0851 31.6687 40.3875 31.289 40.3875V40.3875Z" fill="#2B4255"/>
<path d="M42.0469 40.3875C41.6672 40.3875 41.3648 40.0852 41.3648 39.7055V10.1602H35.9015V39.7125C35.9015 40.0922 35.5992 40.3946 35.2195 40.3946C34.8398 40.3946 34.5375 40.0922 34.5375 39.7125V9.47817C34.5375 9.09849 34.8398 8.79614 35.2195 8.79614H42.0469C42.4265 8.79614 42.7289 9.09849 42.7289 9.47817V39.7125C42.7289 40.0852 42.4195 40.3875 42.0469 40.3875V40.3875Z" fill="#DF4731"/>
<path d="M44.318 43.2844H0.682031C0.302344 43.2844 0 42.982 0 42.6023V39.7055C0 39.3258 0.302344 39.0234 0.682031 39.0234H44.318C44.6977 39.0234 45 39.3258 45 39.7055V42.6023C45 42.982 44.6977 43.2844 44.318 43.2844ZM1.36406 41.9203H43.6359V40.3875H1.36406V41.9203Z" fill="#2B4255"/>
<path d="M3.79682 22.6266C3.38873 22.6268 2.98821 22.5164 2.63784 22.3071C2.28748 22.0979 2.00034 21.7976 1.80697 21.4383C1.51931 20.9095 1.45325 20.2882 1.62332 19.7108C1.79338 19.1334 2.18566 18.647 2.714 18.3586L24.757 6.38438L24.0257 6.14531C23.4545 5.95551 22.982 5.54686 22.7117 5.00903C22.4415 4.4712 22.3957 3.84814 22.5843 3.27656C22.7328 2.82481 23.02 2.43142 23.405 2.15242C23.7901 1.87341 24.2533 1.72302 24.7288 1.72266C24.9468 1.72266 25.1718 1.75781 25.3828 1.81406L31.1624 3.71953C31.7179 3.90234 32.1679 4.28906 32.4492 4.80234C32.7234 5.30156 32.7937 5.89219 32.646 6.45469L31.1203 12.2695C30.8038 13.4578 29.5593 14.2031 28.3499 13.8937L28.2796 13.8727C27.7128 13.7088 27.2331 13.3288 26.9437 12.8145C26.6544 12.3003 26.5786 11.693 26.7328 11.1234L26.9296 10.3781L4.87963 22.3453C4.54213 22.5281 4.16947 22.6266 3.79682 22.6266ZM24.7288 3.07969C24.3421 3.07969 23.9976 3.33281 23.8781 3.69844C23.7234 4.16953 23.9765 4.68281 24.4546 4.84453L26.6835 5.58281C26.9437 5.66719 27.1265 5.89922 27.1476 6.16641C27.1687 6.43359 27.0351 6.69375 26.796 6.82734L3.36088 19.5539C3.14994 19.6664 2.99525 19.8633 2.92494 20.0953C2.85463 20.3273 2.88275 20.5734 2.99525 20.7844C3.10775 20.9953 3.30463 21.15 3.53666 21.2203C3.76869 21.2906 4.01479 21.2625 4.22572 21.143L27.6609 8.41641C27.8999 8.28984 28.1953 8.31094 28.4062 8.47969C28.6171 8.64844 28.7156 8.92969 28.6453 9.18984L28.0476 11.4609C27.921 11.9391 28.1882 12.4172 28.6523 12.5578C28.7718 12.593 28.8492 12.6 28.9265 12.6C29.3343 12.6 29.6999 12.3188 29.8054 11.918L31.3312 6.10313C31.3945 5.87813 31.3663 5.64609 31.2538 5.44922C31.1413 5.23828 30.9585 5.08359 30.7406 5.01328L24.982 3.11484C24.9117 3.08672 24.8203 3.07969 24.7288 3.07969V3.07969Z" fill="#DF4731"/>
</svg>
