<svg width="45" height="45" viewBox="0 0 45 45" fill="none" xmlns="http://www.w3.org/2000/svg">
<g clip-path="url(#clip0_467_3205)">
<path d="M26.6901 5.01988C27.7903 3.4841 30.7657 3.4841 31.8659 5.01988L54.8954 37.1732C55.9275 38.6141 54.5133 40.3487 52.3076 40.3487H6.24847C4.04158 40.3487 2.62852 38.6141 3.6606 37.1732L26.6901 5.01907V5.01988Z" fill="white" fill-opacity="0.1"/>
<path fill-rule="evenodd" clip-rule="evenodd" d="M19.6321 4.51347C20.8506 2.21101 24.1494 2.21101 25.3679 4.51347L42.3849 36.6676C43.5289 38.8289 41.963 41.43 39.517 41.43H5.48303C3.03778 41.43 1.47116 38.8289 2.61509 36.6676L19.6321 4.51347ZM23.4557 5.52597C23.3637 5.35228 23.2262 5.20694 23.0578 5.10558C22.8894 5.00421 22.6966 4.95065 22.5 4.95065C22.3035 4.95065 22.1106 5.00421 21.9422 5.10558C21.7739 5.20694 21.6363 5.35228 21.5443 5.52597L4.52732 37.6793C4.44002 37.8441 4.39682 38.0287 4.40192 38.2152C4.40701 38.4016 4.46024 38.5835 4.55642 38.7433C4.6526 38.9031 4.78847 39.0353 4.95083 39.1271C5.11319 39.2188 5.29653 39.2671 5.48303 39.267H39.517C39.7035 39.2671 39.8868 39.2188 40.0492 39.1271C40.2115 39.0353 40.3474 38.9031 40.4436 38.7433C40.5398 38.5835 40.593 38.4016 40.5981 38.2152C40.6032 38.0287 40.56 37.8441 40.4727 37.6793L23.4573 5.52516L23.4557 5.52597Z" fill="#F05542"/>
<path fill-rule="evenodd" clip-rule="evenodd" d="M22.5 20.8774C23.0972 20.8774 23.5815 21.3618 23.5815 21.9589V34.9397C23.5815 35.2265 23.4676 35.5016 23.2647 35.7044C23.0619 35.9072 22.7869 36.0211 22.5 36.0211C22.2132 36.0211 21.9381 35.9072 21.7353 35.7044C21.5325 35.5016 21.4186 35.2265 21.4186 34.9397V21.9589C21.4186 21.3618 21.9029 20.8774 22.5 20.8774V20.8774Z" fill="#2B3151"/>
<path d="M24.1226 16.5508C24.1226 16.9812 23.9517 17.3939 23.6474 17.6982C23.3431 18.0025 22.9304 18.1734 22.5 18.1734C22.0697 18.1734 21.657 18.0025 21.3527 17.6982C21.0484 17.3939 20.8774 16.9812 20.8774 16.5508C20.8774 16.1205 21.0484 15.7078 21.3527 15.4035C21.657 15.0992 22.0697 14.9282 22.5 14.9282C22.9304 14.9282 23.3431 15.0992 23.6474 15.4035C23.9517 15.7078 24.1226 16.1205 24.1226 16.5508V16.5508Z" fill="#2B3151"/>
<path opacity="0.45" fill-rule="evenodd" clip-rule="evenodd" d="M22.5 16.0097C22.3565 16.0097 22.2189 16.0667 22.1174 16.1682C22.0159 16.2697 21.9589 16.4073 21.9589 16.5508C21.9589 16.6943 22.0159 16.832 22.1174 16.9335C22.2189 17.0349 22.3565 17.092 22.5 17.092C22.6436 17.092 22.7812 17.0349 22.8827 16.9335C22.9842 16.832 23.0412 16.6943 23.0412 16.5508C23.0412 16.4073 22.9842 16.2697 22.8827 16.1682C22.7812 16.0667 22.6436 16.0097 22.5 16.0097ZM22.5 18.1734C22.9304 18.1734 23.3431 18.0025 23.6474 17.6982C23.9517 17.3939 24.1226 16.9812 24.1226 16.5508C24.1226 16.1205 23.9517 15.7078 23.6474 15.4035C23.3431 15.0992 22.9304 14.9282 22.5 14.9282C22.0697 14.9282 21.657 15.0992 21.3527 15.4035C21.0484 15.7078 20.8774 16.1205 20.8774 16.5508C20.8774 16.9812 21.0484 17.3939 21.3527 17.6982C21.657 18.0025 22.0697 18.1734 22.5 18.1734Z" fill="#2B3151"/>
</g>
<defs>
<clipPath id="clip0_467_3205">
<rect width="45" height="45" fill="white"/>
</clipPath>
</defs>
</svg>
